<svg width="360" height="360" viewBox="0 0 360 360" fill="none" xmlns="http://www.w3.org/2000/svg">
<g clip-path="url(#clip0_4846_4731)">
<path d="M166.307 215.315L166.021 215.3C165.893 211.341 167.775 207.449 166.428 203.445C166.397 203.016 166.36 202.595 166.33 202.166C165.901 197.175 163.778 193.043 160.098 189.679L160.03 189.611C159.849 189.431 159.661 189.25 159.48 189.069L159.383 188.979C159.202 188.798 159.029 188.625 158.848 188.445L158.758 188.347C158.577 188.174 158.397 188.001 158.208 187.82L158.111 187.745C155.815 185.14 153.045 183.116 150.08 181.355L150.095 181.37C149.869 181.166 149.643 180.971 149.425 180.767L149.417 180.76C149.199 180.579 148.988 180.399 148.77 180.218L148.702 180.173C148.334 179.872 147.972 179.578 147.603 179.277C147.408 179.127 147.212 178.976 147.009 178.826C146.768 178.615 146.535 178.404 146.294 178.201L146.301 178.208C143.983 175.913 141.665 173.617 139.339 171.322L139.324 171.307C139.121 171.088 138.925 170.87 138.722 170.652L138.737 170.667C138.534 170.426 138.331 170.193 138.127 169.952L138.173 169.997C137.962 169.756 137.751 169.508 137.54 169.267L137.601 169.289C136.916 168.243 136.253 167.189 135.546 166.158C130.533 158.85 127.831 150.94 128.546 141.915C129.6 128.729 139.776 120.329 152.774 122C159.774 122.895 165.682 126.245 171.32 130.068C173.924 131.829 175.572 131.732 177.191 129.173L177.153 129.18C177.386 128.962 177.62 128.744 177.853 128.533L177.823 128.586C179.095 128.059 179.855 127.005 180.608 125.936C180.826 125.883 180.946 125.748 180.961 125.53C181.421 125.379 181.804 125.146 181.917 124.627L182.083 124.476C185.967 121.247 190.52 119.478 195.375 118.387C195.804 118.364 196.233 118.342 196.662 118.319C203.293 118.327 209.133 120.555 214.319 124.619L214.372 124.664C214.989 125.695 215.727 126.629 216.735 127.306L216.713 127.283C221.394 134.833 222.365 142.841 219.957 151.376C218.579 156.276 215.975 160.566 213.74 165.044C213.168 165.233 213.002 165.707 212.919 166.234C211.617 167.521 210.684 169.071 209.811 170.659C209.359 170.81 209.156 171.148 209.118 171.608C208.494 171.946 208.02 172.405 207.884 173.143L207.907 173.128C205.205 176.101 202.503 179.074 199.8 182.047C193.531 188.053 187.201 194.007 181.014 200.088C176.4 204.619 171.659 209.037 167.602 214.11L167.632 214.088C167.429 214.314 167.225 214.539 167.022 214.765C166.811 214.953 166.563 215.134 166.307 215.315Z" fill="#06AED5"/>
<path d="M73.2324 185.208C72.811 185.253 72.3895 185.299 71.9755 185.351C70.5304 185.539 69.2283 186.044 68.1369 187.03L68.152 187.015C66.1273 187.677 64.4941 189.024 62.7479 190.161C54.4385 195.572 45.6851 199.592 35.4489 199.125C35.0274 199.087 34.6059 199.05 34.1844 199.012C33.492 198.809 32.7995 198.621 32.1071 198.402C25.4536 196.348 19.5602 193.329 17.656 185.871C15.8496 178.773 18.6796 173.181 23.7977 168.477C25.8073 166.633 27.8245 164.796 29.962 163.11C31.806 161.665 32.0318 160.25 30.7372 158.286C26.4998 151.828 25.9503 145.039 29.2394 138.001L29.2093 138.024C30.4437 136.526 31.6781 135.021 32.9049 133.523C33.1307 133.32 33.3565 133.124 33.5898 132.921L33.5748 132.943C41.8014 127.472 49.8398 128.352 57.5244 133.952C63.8392 138.551 68.3703 144.768 71.825 151.67C77.643 163.291 83.1826 175.055 88.8351 186.759C89.0233 187.143 89.0684 187.564 88.5867 187.993C86.2761 186.992 84.0557 185.547 81.4063 185.291C80.9848 185.261 80.5634 185.231 80.1419 185.201C77.8387 184.343 75.5356 184.388 73.2324 185.208Z" fill="#06AED5"/>
<path d="M294.952 73.1145C293.477 72.7908 292.001 72.836 290.541 73.1822C287.282 73.3704 284.573 74.9359 281.953 76.6896C278.122 79.2562 274.216 81.7099 269.918 83.4184C262.64 86.3086 255.279 87.0462 247.993 83.5614C239.594 79.5422 236.937 70.7511 241.558 62.7052C243.477 59.3709 246.225 56.8118 249.243 54.5087C253.127 51.5432 253.127 51.5432 250.244 47.2004L250.251 47.2079C250.176 46.9068 250.131 46.5907 250.011 46.3047C246.955 39.305 248.174 32.1773 253.292 27.2172C257.733 22.912 265.35 21.9185 271.793 24.8614C277.212 27.3377 281.201 31.4848 284.4 36.3545C291.279 46.809 295.855 58.4526 301.357 69.6221C302.253 71.4436 303.457 73.1672 303.796 75.6058C300.672 74.6198 298.068 72.851 294.952 73.1145Z" fill="#06AED5"/>
<path d="M90.8523 67.3867C90.89 67.8081 90.9201 68.2372 90.9577 68.6586C90.9502 69.2758 90.9427 69.9005 90.9351 70.5177C90.8975 70.9392 90.8523 71.3532 90.8147 71.7747C90.0319 74.409 88.7976 76.8476 87.5482 79.2862C87.375 79.4894 87.2095 79.6927 87.0364 79.8883C85.7568 81.1528 84.4773 82.4173 83.1978 83.6817L83.2204 83.6516C76.0174 87.859 68.122 90.0342 59.918 90.4783C48.9216 91.0804 37.9027 91.1933 26.9138 91.9535C26.4321 91.9836 25.8375 92.0965 25.5967 91.2686C26.4472 90.4482 27.3429 89.5826 28.246 88.717C32.5212 84.6376 34.1544 79.5873 33.2362 73.852C32.1222 66.9049 31.1664 59.9654 31.5427 52.9055C31.5879 52.484 31.6255 52.0625 31.6707 51.6335C32.9652 47.1777 34.8168 42.9779 37.4586 39.1393C37.4586 39.1393 37.4436 39.1619 37.436 39.1544C42.9982 33.8406 49.2377 31.4847 56.7568 34.7287L56.7342 34.6986C57.3815 35.6018 58.232 36.234 59.2707 36.6179L59.2406 36.5652C59.4739 36.791 59.6997 37.0093 59.933 37.2351C59.933 37.2351 59.8804 37.205 59.8879 37.205C60.4825 38.4619 61.4083 39.4554 62.4469 40.3586C62.4469 40.3586 62.4168 40.321 62.4244 40.321C62.4244 40.8704 62.6953 41.2543 63.1544 41.5252L63.162 41.5403C64.5168 44.9197 66.0371 48.2766 66.6769 51.8668C67.0683 54.0345 68.1069 54.2979 69.9209 53.9366C76.198 52.6947 81.6925 54.2979 86.3966 58.6257L86.3815 58.6106C88.3987 61.275 90.0244 64.1276 90.8523 67.3867Z" fill="#06AED5"/>
<path d="M245.208 176.425C245.622 176.364 246.036 176.297 246.457 176.236C250.394 175.958 254.187 176.507 257.762 178.261L257.755 178.254C258.41 179.134 259.298 179.706 260.299 180.128C260.51 180.338 260.72 180.542 260.931 180.752L260.939 180.76C261.142 180.978 261.345 181.196 261.548 181.415L261.541 181.4C261.744 181.641 261.94 181.874 262.143 182.115L262.098 182.085C265.026 187.007 265.5 192.261 264.303 197.77C263.001 203.769 259.486 208.548 255.971 213.373C251.538 219.454 245.87 224.467 241.377 230.496L241.385 230.488C241.174 230.706 240.956 230.917 240.745 231.135L240.752 231.12C240.542 231.339 240.338 231.557 240.128 231.768L240.135 231.76C239.924 231.971 239.721 232.189 239.51 232.4C236.568 235.403 233.625 238.406 230.388 241.703C229.666 239.678 229.959 238.241 229.974 236.826C230.027 231.971 228.507 227.673 224.728 224.572C220.784 221.328 216.562 218.423 212.46 215.367C210.766 213.486 209.08 211.611 207.387 209.73C207.199 209.496 207.011 209.263 206.83 209.03C206.694 208.209 206.28 207.585 205.58 207.141C204.504 204.22 203.232 201.368 202.592 198.289C200.741 189.393 206.017 181.204 214.515 179.714C217.525 179.187 220.272 180.293 223.133 180.775L223.125 180.767C225.797 182.107 228.567 183.289 231.118 184.832C232.955 185.946 234.091 185.667 235.258 184.004C237.757 180.436 241.076 177.885 245.208 176.425Z" fill="#06AED5"/>
<path d="M104.084 94.4751C105.552 94.4751 107.027 94.4675 108.495 94.4675C118.844 97.8921 122.984 103.778 121.84 113.698C121.29 118.47 119.235 122.737 116.759 126.779C111.777 134.893 104.686 141.215 98.4319 148.245C94.9094 152.197 91.2665 156.043 87.6011 160.017C87.3226 159.543 87.157 159.385 87.1495 159.226C87.1344 158.602 87.1269 157.97 87.1871 157.345C87.8419 150.277 84.9141 144.903 79.2014 141.027C73.8048 137.362 68.7394 133.358 64.5095 128.367L64.5396 128.375C60.2118 121.601 57.9011 114.473 60.6558 106.45L60.6483 106.465C61.115 106.171 61.3558 105.765 61.3182 105.2L61.3031 105.223C63.8848 101.422 67.3545 98.8631 71.9683 98.2835C76.9735 97.6513 81.3841 99.6458 85.6667 101.896C91.0257 104.719 91.0106 104.741 94.6159 99.4878L94.6385 99.4652C94.8492 99.2695 95.06 99.0663 95.2707 98.8706L95.2782 98.8631C95.489 98.6598 95.6997 98.4491 95.9105 98.2459C96.1664 98.0502 96.4298 97.862 96.6857 97.6663C96.8739 97.5008 97.062 97.3352 97.2427 97.1696C99.4028 95.9728 101.721 95.175 104.084 94.4751Z" fill="#06AED5"/>
<path d="M294.944 85.6764C295.365 85.6237 295.787 85.5785 296.208 85.5258C299.866 85.2549 303.231 86.0602 306.234 88.2279L306.211 88.1978C306.437 88.4085 306.663 88.6193 306.881 88.83L306.866 88.8225C310.87 93.6395 311.231 99.3522 310.689 105.193C310.449 107.737 311.186 108.903 313.798 109.46C321.407 111.086 325.833 116.505 325.871 123.784C325.901 129.745 320.918 135.51 314.129 137.226C307.746 138.837 301.371 138.182 295.154 136.488C287.884 134.516 280.711 132.153 273.5 129.955C273.086 129.865 272.68 129.775 272.266 129.692C269.888 128.766 267.502 127.84 265.131 126.915C265.439 125.876 266.32 125.936 266.952 125.68C272.567 123.422 275.984 119.343 276.933 113.367C277.934 107.037 279.454 100.888 282.404 95.1524L282.374 95.1749C282.555 94.9341 282.728 94.6932 282.909 94.4599L282.939 94.4223C283.707 94.0535 284.008 93.346 284.263 92.6084L284.241 92.6234C284.444 92.3976 284.647 92.1718 284.851 91.9535C287.786 89.1537 291.188 87.129 294.944 85.6764Z" fill="#06AED5"/>
<path d="M153.806 270.725C153.399 270.823 153 270.914 152.594 271.011C151.984 271.117 151.382 271.237 150.773 271.335C141.078 272.871 131.452 268.784 132.295 257.637C132.347 257.208 132.393 256.786 132.445 256.357C132.859 255.303 133.273 254.257 133.695 253.204C133.823 253.008 133.958 252.805 134.086 252.609C134.176 252.406 134.259 252.195 134.35 251.992C135.057 251.548 135.396 250.848 135.622 250.088L135.606 250.103C140.702 245.097 140.702 245.097 137.21 239.129C134.048 233.717 134.839 227.801 139.453 222.427L139.407 222.457C139.633 222.232 139.867 222.006 140.092 221.78L140.062 221.833C144.827 218.792 149.839 218.626 155.033 220.561L155.018 220.531C157.554 222.201 160.091 223.872 162.627 225.543L162.612 225.528C163.598 227.086 164.96 228.283 166.368 229.427C166.533 229.615 166.699 229.796 166.857 229.984C171.749 236.69 176.634 243.396 181.526 250.103C181.699 250.321 181.865 250.532 182.038 250.75C182.738 252.902 184.868 254.295 185.418 257.05C178.373 254.664 172.404 255.778 167.64 261.37L167.662 261.355C167.437 261.573 167.218 261.784 166.992 262.002L167.03 261.972C166.782 262.183 166.526 262.394 166.277 262.612C166.089 262.77 165.901 262.92 165.713 263.078C162.597 265.254 159.473 267.429 156.357 269.596C155.379 269.657 154.528 270.056 153.806 270.725Z" fill="#06AED5"/>
<path d="M266.538 142.487C266.47 142.683 266.523 142.841 266.681 142.969C267.05 145.641 267.893 148.17 269.059 150.601L269.029 150.586C270.512 155.802 271.995 161.018 273.485 166.241C273.094 166.113 272.634 166.076 272.311 165.85C267.005 162.222 261.6 162.275 256.016 165.202C251.808 167.408 247.307 168.8 242.558 169.146C236.431 169.583 231.178 167.731 227.415 162.643C224.442 158.617 225.435 154.575 227.655 150.608L227.625 150.631C229.492 148.922 231.366 147.221 233.233 145.513C233.857 145.4 234.354 145.084 234.708 144.549C234.708 144.549 234.806 144.504 234.798 144.504C238.787 143.473 237.463 140.907 236.567 138.438C234.851 133.674 236.183 129.572 239.585 126.117C243.07 122.579 247.315 121.857 251.996 123.355C255.534 124.491 257.882 127.148 260.283 129.745V129.752C262.978 133.696 264.747 138.099 266.538 142.487Z" fill="#06AED5"/>
<path d="M292.979 175.07C293.484 174.799 293.612 174.332 293.604 173.805C295.629 171.397 297.684 168.996 300.325 167.257C301.891 166.226 302.087 165.135 301.153 163.599C300.611 162.711 300.197 161.733 299.814 160.762C297.066 153.702 300.845 145.949 307.89 144.452C309.801 144.045 311.849 144.271 313.836 144.203C313.911 144.369 314.024 144.406 314.182 144.316C319.262 146.424 323.206 149.916 326.247 154.432C327.873 156.848 329.295 159.407 330.808 161.898L330.793 161.883C333.751 168.221 336.717 174.558 339.667 180.895C339.968 181.535 340.585 182.265 340.104 182.92C339.554 183.673 338.719 183.093 338.101 182.822C332.833 180.572 328.189 181.957 323.605 184.915C319.398 187.632 315.047 190.123 310.02 191.192C298.459 193.668 290.149 185.833 292.979 175.07Z" fill="#06AED5"/>
<path d="M203.089 302.307C203.052 302.736 203.022 303.165 202.984 303.594C202.314 304.309 202.344 305.212 202.322 306.101L202.329 306.093C200.357 309.984 198.905 314.154 196.165 317.639C192.281 322.576 188.473 327.566 184.529 332.444C182.767 334.619 181.42 337.163 179.064 338.834V338.841C179.215 333.362 178.154 328.447 172.78 325.587V325.594C171.553 324.119 169.792 323.412 168.219 322.441C160.873 317.94 155.423 312.175 155.024 302.977C155.047 302.556 155.07 302.127 155.1 301.705C156.131 299.462 156.635 296.993 158.645 295.21C163.191 291.183 167.963 292.094 173.013 294.035C178.703 296.226 178.756 296.098 182.293 291.047C182.481 290.867 182.67 290.679 182.865 290.498C188.631 286.644 194.261 286.735 199.732 291.108L199.702 291.077C201.938 294.487 203.323 298.152 203.089 302.307Z" fill="#06AED5"/>
<path d="M116.692 41.45C116.85 41.593 117.031 41.6457 117.234 41.593C120.982 44.0241 120.975 44.0166 123.519 40.7877C124.339 39.749 125.197 38.748 126.04 37.7319L126.108 37.6641C126.326 37.491 126.545 37.3179 126.763 37.1448L126.77 37.1373C127.004 36.9416 127.237 36.7459 127.47 36.5502L127.448 36.5878C128.584 36.3997 129.638 36.0083 130.586 35.3384C131.211 35.2632 131.843 35.1804 132.468 35.1051C143.246 34.8642 147.122 43.5876 145.444 51.6937C144.721 55.1936 143.382 58.4978 141.312 61.4181C137.699 66.5211 134.003 71.5564 130.338 76.6219L130.413 76.8251L130.353 76.6219C129.495 77.081 128.983 77.8186 128.667 78.7142C128.479 78.9325 128.291 79.1433 128.095 79.3615L128.065 79.3992C125.792 81.0625 124.979 84.2162 121.991 85.586C121.72 80.1669 120.553 75.5154 115.518 72.9413L115.533 72.9714C115.074 72.2639 114.472 71.7747 113.599 71.7145C113.599 71.7145 113.629 71.7521 113.621 71.7521C113.381 71.579 113.14 71.4059 112.899 71.2253L112.846 71.1952C111.371 69.863 109.745 68.749 107.924 67.9437L107.946 67.9738C107.706 67.7931 107.472 67.6125 107.231 67.4319L107.201 67.4093C103.393 64.2255 100.081 60.7482 98.779 55.7054C96.5887 47.1928 100.397 40.6146 108.142 39.877C111.115 39.5985 113.862 40.7802 116.692 41.45Z" fill="#06AED5"/>
<path d="M99.3653 208.593C99.5384 208.623 99.6363 208.556 99.6664 208.383C100.133 208.149 100.6 207.923 101.051 207.675C107.795 203.949 115.337 207.622 116.375 215.224C116.895 219.033 115.728 222.495 113.508 225.566C111.679 228.095 109.692 230.518 107.78 232.995L107.803 232.98C106.109 234.658 104.423 236.336 102.73 238.022L102.745 238.007C101.239 239.061 99.9599 240.348 98.8234 241.786C98.6126 241.801 98.4772 241.914 98.432 242.124C96.1439 243.366 94.8945 246.031 92.0946 246.964C91.929 242.313 91.6279 237.955 87.127 235.493L87.1496 235.531C86.9238 235.313 86.698 235.095 86.4722 234.876L86.5023 234.899C83.5669 231.73 80.6391 228.561 77.7037 225.393L77.7338 225.415C77.1468 223.827 76.6349 222.201 75.6113 220.817C75.6113 220.817 75.6189 220.568 75.6113 220.568C75.7393 217.339 75.5662 214.058 77.0339 211.017L77.0188 211.032C77.1919 210.814 77.365 210.595 77.5381 210.377C77.779 210.114 78.0123 209.858 78.2532 209.594C80.5187 207.811 83.0401 206.937 85.9679 207.156C88.2033 207.321 89.9796 208.706 92.0871 209.158L92.0645 209.135C92.2903 209.293 92.5086 209.444 92.7344 209.602C92.8397 209.775 92.9978 209.843 93.1935 209.813C96.3095 212.161 96.3095 212.161 99.3653 208.593Z" fill="#06AED5"/>
<path d="M192.83 86.8505C191.641 87.7612 190.587 88.7999 189.775 90.0719L189.76 90.0869C189.556 90.2902 189.353 90.4934 189.157 90.7041L189.135 90.7267C188.932 90.9299 188.728 91.1331 188.525 91.3288L188.503 91.3514C188.299 91.5546 188.104 91.7578 187.9 91.9611L187.878 91.9836C186.576 92.7739 185.499 93.79 184.694 95.0846L184.702 95.0771C183.866 95.5061 183.219 96.1233 182.805 96.9738C181.721 97.5684 180.825 98.3587 180.246 99.4651L180.261 99.45C178.131 101.211 175.993 102.972 173.457 105.065C173.457 103.469 173.464 102.363 173.457 101.264C173.427 98.0426 172.2 95.2878 169.746 93.2707C166.593 90.6891 163.62 87.9343 160.767 85.0366L160.76 85.0291C158.795 81.4389 157.064 77.8487 157.433 73.5134C157.997 66.9201 163.168 63.1869 169.505 65.1739C171.387 65.761 173.336 66.4609 174.902 67.605C177.1 69.2006 178.741 69.2157 180.336 66.9803C180.697 66.476 181.164 66.0545 181.586 65.5954C182.135 65.5427 182.534 65.2567 182.79 64.775C187.547 63.089 192.123 62.9385 195.668 67.176C199.303 71.5188 198.551 76.3208 196.353 81.0023C195.389 83.0571 194.012 84.9162 192.823 86.8656L192.83 86.8505Z" fill="#06AED5"/>
<path d="M274.69 201.563C274.758 201.149 274.826 200.743 274.886 200.329C275.202 199.689 275.541 199.057 275.834 198.41C278.935 191.5 285.22 190.055 291.06 194.955C292.573 196.227 294.041 197.582 295.343 199.065C296.284 200.126 297.157 200.374 298.278 199.599C301.5 197.379 305.06 197.206 308.755 197.808L308.74 197.8C315.003 202.038 316.689 206.501 314.062 212.296C312.27 216.248 309.162 219.078 305.564 221.321C298.542 225.709 291 229.133 283.594 232.799C283.27 232.957 282.819 233.22 282.367 232.483C283.504 229.585 284.211 226.469 282.924 223.248C281.75 220.312 279.868 217.821 277.994 215.322C277.994 215.322 278.032 215.352 278.024 215.352C276.369 210.889 273.99 206.606 274.69 201.563Z" fill="#06AED5"/>
<path d="M19.0865 100.052C19.3123 100.278 19.5305 100.504 19.7563 100.73C20.2004 102.084 20.9004 102.701 22.2627 101.678C23.5121 100.745 24.7841 99.8414 26.0486 98.9231L26.026 98.9457C30.0001 97.5307 33.7182 98.1027 37.2331 100.353C37.4062 100.519 37.5793 100.684 37.7524 100.85C38.6481 102.295 39.5513 103.74 40.447 105.185C40.4997 105.599 40.5523 106.013 40.605 106.427C41.1244 111.365 38.8814 115.294 36.0138 118.997L36.0213 118.989C34.8096 119.877 33.673 120.856 32.8451 122.135L32.8602 122.12C25.7174 126.937 18.5747 131.754 11.1308 136.774C11.0179 134.276 11.8835 132.356 11.3943 130.392C11.3792 129.97 11.3642 129.549 11.3416 129.127C10.8674 126.237 9.30188 124.032 7.0439 122.256L7.01379 122.218C6.24608 120.735 5.28268 119.403 3.98057 118.342L4.00315 118.364C2.89674 115.911 1.0753 113.803 0.533387 111.079C-0.414966 106.299 -0.422492 101.731 3.25049 97.8995C6.44177 94.5652 10.175 95.2201 13.991 96.4017L13.9759 96.3942C15.6844 97.606 17.3855 98.8328 19.0865 100.052Z" fill="#06AED5"/>
<path d="M128.546 109.596C128.538 104.531 131.692 101.512 135.621 99.2318C137.841 97.9448 138.406 96.7104 137.533 94.2116C135.884 89.4623 137.435 85.4205 141.454 82.741C144.721 80.5658 149.214 80.9949 152.842 83.8851C155.792 86.2259 157.757 89.3268 159.164 92.7514C162.19 100.097 164.094 107.79 166.631 116.392C160.918 112.095 155.958 113.54 150.877 115.775C147.25 117.371 143.434 118.628 139.347 118.492C138.933 118.447 138.519 118.402 138.112 118.357C133.867 117.228 130.232 115.354 128.711 110.823C128.666 110.416 128.606 110.002 128.546 109.596Z" fill="#06AED5"/>
<path d="M339.276 85.985C339.013 85.9248 338.749 85.8646 338.486 85.7968C335.927 85.9248 333.722 87.129 331.449 88.1226C331.027 88.1978 330.613 88.2656 330.192 88.3408C329.936 88.4387 329.672 88.5365 329.416 88.6344V88.5817C326.737 88.672 324.065 88.7698 321.386 88.8602L321.137 88.7247L320.859 88.7548C318.759 87.6785 316.651 86.6097 314.551 85.5334L314.582 85.5635C311.646 81.7776 311.36 77.8412 313.927 73.7467C313.927 73.7467 313.904 73.7693 313.897 73.7693C315.319 72.678 316.742 71.5866 318.164 70.4952L318.217 70.4651C318.458 70.292 318.699 70.1114 318.939 69.9383L318.894 69.9759C319.421 69.9533 319.828 69.7125 320.083 69.2533L320.106 69.2458C321.837 68.9297 322.168 67.9287 321.837 66.2803C319.978 57.0301 324.66 52.1529 333.895 53.6432L333.88 53.6131C337.545 55.6603 340.202 58.6484 341.805 62.502C345.23 70.721 346.698 79.4519 348.399 88.1226C348.03 88.0774 347.653 88.0322 347.285 87.9871C345.057 85.6011 342.385 84.9313 339.276 85.985Z" fill="#06AED5"/>
<path d="M192.793 254.468C192.808 254.047 192.823 253.625 192.838 253.204C193.342 250.306 191.769 248.146 190.151 246.083C187.728 242.997 185.816 239.641 184.484 235.968C182.188 229.638 184.95 223.09 190.528 221.464C194.818 220.214 197.881 222.585 200.53 225.31C202.66 227.493 204.279 228.147 207.086 226.228C210.029 224.211 213.476 224.377 216.592 226.409C219.671 228.418 221.055 231.279 220.754 234.982C220.476 238.429 218.79 241.101 216.419 243.464C211.053 248.808 204.203 251.909 197.813 255.68C196.112 256.688 194.494 258.013 192.198 258.54C192.334 256.892 193.207 255.755 192.793 254.468Z" fill="#06AED5"/>
<path d="M196.723 280.247C194.344 274.978 195.165 272.216 200.516 268.731C202.338 267.549 203.09 266.556 202.39 264.23C201.194 260.286 202.601 257.095 205.725 255.341C208.833 253.595 212.1 254.167 215.163 256.99C215.464 257.268 215.81 257.501 216.141 257.765C216.307 257.945 216.48 258.134 216.646 258.314C217.308 259.225 217.963 260.136 218.625 261.046C218.557 261.204 218.603 261.317 218.761 261.385C221.387 267.805 223.465 274.384 225.234 281.775C220.718 279.042 217.014 279.916 213.071 281.729C207.478 284.304 201.796 284.763 196.723 280.232V280.247Z" fill="#06AED5"/>
<path d="M134.342 214.238C133.702 214.216 133.07 214.193 132.43 214.171C131.083 213.403 129.608 212.786 128.404 211.83C125.401 209.444 125.032 205.809 127.35 203.016C131.527 197.973 131.527 197.973 132.001 191.628L131.956 191.606C134.372 187.722 136.992 186.337 140.356 187.218C143.035 187.925 145.113 189.641 146.347 191.975C149.636 198.154 151.254 204.943 153.512 212.131C150.095 210.565 147.22 209.85 144.232 211.258C141.079 212.733 137.684 213.418 134.342 214.238Z" fill="#06AED5"/>
<path d="M251.477 245L251.289 244.872L251.071 244.924C250.243 244.269 249.287 244.337 248.324 244.443L248.105 244.3L247.842 244.322C247.435 243.968 247.022 243.615 246.615 243.268H246.585C250.363 241.522 251.011 238.083 251.357 234.477C251.696 231.023 252.433 227.703 254.699 224.919C255.986 224.106 257.265 223.3 258.552 222.487C262.602 222.48 265.153 223.94 265.597 227.613C265.996 230.947 267.185 232.505 270.437 233.627C274.945 235.185 275.472 240.898 271.859 244.096C270.211 245.556 268.269 246.113 266.154 246.377C262.895 246.776 259.719 246.016 256.505 245.797C255.88 245.737 255.256 245.677 254.631 245.624C253.675 244.962 252.569 244.992 251.477 245Z" fill="#06AED5"/>
<path d="M91.4022 40.5394C91.3194 40.705 91.357 40.8405 91.5151 40.9383C91.4549 41.5103 91.5753 42.0146 92.042 42.391C91.9667 42.5716 92.0043 42.7146 92.1624 42.82C91.9968 43.5124 92.343 44.807 90.8829 44.0769C87.9249 42.5942 85.2304 43.6253 82.4907 44.7468C80.9553 45.379 79.3822 45.9661 77.7715 46.3349C74.3469 47.1177 70.3954 45.379 68.8751 42.5866C67.0386 39.2072 69.1159 37.1223 71.3212 35.06C71.6147 34.7891 71.8104 34.3977 72.0438 34.0665L72.0287 34.0891C73.7674 33.788 74.2114 32.6365 73.8351 31.1161C73.0599 27.9549 74.0458 25.4185 76.4242 23.3261L76.3941 23.3486C77.6436 23.0852 78.893 22.8218 80.1424 22.5583C80.5564 22.6261 80.9628 22.6938 81.3768 22.7616C82.8595 23.9809 84.3498 25.2002 85.8325 26.4195L85.8476 26.4345C86.0357 26.6829 86.2239 26.9388 86.4121 27.1872C86.5099 27.3678 86.6078 27.5485 86.6981 27.7367C86.826 27.9248 86.954 28.113 87.0894 28.3087L87.097 28.3313C87.2626 28.6624 87.4357 28.9861 87.6013 29.3172L87.526 29.4753L87.6464 29.6032C88.6098 33.344 89.9721 36.9567 91.4022 40.5394Z" fill="#06AED5"/>
<path d="M203.511 94.5126C206.89 100.361 208.892 106.713 210.578 113.751C206.484 111.764 202.961 113.051 199.394 114.594C196.669 115.775 193.832 116.227 190.874 114.947C185.959 112.817 185.041 108.226 189.203 104.854C191.401 103.07 192.71 101.693 191.95 98.4264C191.039 94.5427 195.736 91.0654 199.559 92.3525C200.733 92.7439 201.81 93.4213 202.931 93.9632C203.119 94.1438 203.315 94.3244 203.511 94.5126Z" fill="#06AED5"/>
<path d="M318.721 39.1169C320.753 43.678 320.143 47.0273 315.943 50.0304C311.638 53.1088 306.957 55.6603 301.68 58.9118C302.727 52.9809 298.692 49.6917 297.029 45.4166C296.412 43.8285 295.908 42.2931 296.058 40.5695C296.276 38.1234 297.157 36.0837 299.498 34.9998C301.748 33.9536 303.765 34.5934 305.632 36.0234C306.204 36.4675 306.821 36.8514 307.423 37.2653L307.438 37.2503C308.191 38.6502 309.388 38.7706 310.584 38.0932C313.271 36.5653 315.725 37.1298 318.156 38.6352C318.344 38.7932 318.533 38.9513 318.721 39.1169Z" fill="#06AED5"/>
<path d="M245.886 263.282C245.728 263.395 245.683 263.545 245.735 263.733C244.223 266.202 241.897 267.963 240.098 270.191C239.895 270.394 239.684 270.59 239.481 270.793C238.299 271.456 237.313 272.329 236.515 273.428L236.417 273.503C235.1 274.24 234.047 275.264 233.098 276.423L233.113 276.386C232.346 276.476 231.924 276.145 231.977 275.362C232.142 272.705 230.675 270.884 228.846 269.265C226.505 267.196 224.601 264.802 223.253 261.972C223.178 261.558 223.103 261.152 223.035 260.738C223.622 254.031 226.61 252.15 232.534 255.085C234.679 256.154 236.177 255.77 237.923 254.536C239.797 253.204 241.859 253.324 243.824 254.408C245.856 255.529 246.736 257.373 246.586 259.631C246.511 260.858 246.134 262.062 245.886 263.282Z" fill="#06AED5"/>
<path d="M340.255 93.2406C340.714 94.1663 341.399 95.0394 341.595 96.0179C342.204 98.9758 343.108 101.113 346.562 102.242C350.183 103.417 350.409 108.392 347.398 111.003C346.397 111.876 345.155 112.471 344.018 113.186C343.401 113.269 342.784 113.359 342.167 113.442C341.753 113.449 341.339 113.449 340.932 113.457C340.511 113.442 340.082 113.419 339.66 113.404C339.45 113.397 339.239 113.389 339.036 113.382C338.629 113.352 338.215 113.322 337.809 113.291C335.754 112.659 333.647 112.336 331.502 112.238C330.869 112.17 330.245 112.11 329.612 112.042C328.16 111.621 326.707 111.199 325.247 110.77L325.277 110.785C325.488 110.416 325.699 110.047 325.909 109.679L325.887 109.701C328.559 108.354 329.086 105.991 328.935 103.296C328.973 102.89 329.01 102.476 329.048 102.069C329.372 100.79 329.658 99.4952 330.034 98.2307C331.554 93.2029 334.618 91.4417 339.578 92.7062L339.548 92.6535C339.788 92.8567 340.029 93.0524 340.27 93.2556L340.255 93.2406Z" fill="#06AED5"/>
<path d="M278.664 159.309C278.589 158.895 278.521 158.489 278.446 158.075C278.311 157.826 278.168 157.578 278.032 157.33L278.077 157.345C276.7 154.063 274.201 151.211 274.239 147.387L274.352 147.221L274.254 147.048C276.007 142.547 278.845 140.297 281.329 142.171C284.716 144.738 288.02 145.716 292.054 144.79C292.528 144.677 293.078 144.918 293.597 144.994L293.567 144.933C293.808 145.137 294.056 145.332 294.297 145.535L294.275 145.52C297.27 148.644 296.389 151.79 294.35 154.951C294.139 155.185 293.921 155.418 293.71 155.644C292.905 156.058 292.129 156.509 291.67 157.337L291.685 157.307C287.689 159.437 283.685 161.56 279.688 163.69L279.425 163.675L279.206 163.825C277.987 162.448 280.004 160.679 278.664 159.309Z" fill="#06AED5"/>
<path d="M113.523 239.287C113.651 239.437 113.816 239.483 114.005 239.407C115.186 240.423 116.458 241.349 117.527 242.471C118.468 243.457 119.394 243.697 120.568 243.088C122.818 241.929 125.009 242.305 127.169 243.351L127.402 243.276L127.169 243.336C128.84 245.594 129.389 247.958 128.117 250.652C127.372 252.233 125.889 253.121 124.956 254.491L124.903 254.528C124.685 254.709 124.467 254.89 124.248 255.078L124.241 255.085C123.97 255.273 123.699 255.454 123.428 255.642H123.172L122.976 255.8C122.728 255.951 122.48 256.109 122.239 256.259L122.269 256.207C120.011 256.937 118.016 258.179 116.059 259.488C115.533 259.488 115.073 259.616 114.802 260.121C113.764 260.181 112.989 261.197 111.717 260.903C111.792 258.322 111.649 255.785 110.083 253.49C109.09 252.044 108.405 250.359 107.742 248.725C105.703 243.713 108.187 239.708 113.523 239.287Z" fill="#06AED5"/>
<path d="M2.13574 146.732C2.31638 146.288 2.49702 145.844 2.67766 145.392C4.98833 147.018 7.39684 148.064 10.2344 146.77C10.6483 146.71 11.0698 146.649 11.4838 146.597C12.1762 146.687 12.8461 146.702 13.4106 146.19C14.0278 146.183 14.6374 146.183 15.2546 146.175C18.747 147.093 21.9533 148.343 22.864 152.407C22.8188 152.814 22.7737 153.22 22.7285 153.634C21.72 155.41 20.3953 156.893 18.4158 157.518C16.5567 158.105 15.7664 159.113 15.8793 161.168C16.0299 163.923 14.4267 165.684 11.8601 166.482C9.40644 167.242 7.61511 166 6.08721 164.269C4.67221 162.666 4.22061 160.581 3.44537 158.662C3.36258 158.263 3.28731 157.857 3.20452 157.458C3.27226 156.163 3.42279 154.853 2.76797 153.642C2.70023 152.806 2.64003 151.971 2.57229 151.143C2.65508 149.645 2.80561 148.147 2.13574 146.732Z" fill="#06AED5"/>
<path d="M151.48 291.589C151.412 292.011 151.337 292.432 151.269 292.854C150.231 293.674 149.192 294.502 148.153 295.322C147.34 295.3 146.527 295.27 145.715 295.247C143.404 293.99 141.492 292.349 140.145 290.016C139.332 288.601 138.941 286.908 137.548 285.846L137.578 285.869C137.42 284.883 137.172 283.942 136.291 283.332L136.321 283.355C136.464 282.331 135.238 281.586 135.757 280.322C138.489 281.059 140.747 279.908 143.02 278.568C145.158 277.311 147.408 276.197 150.042 276.536L150.027 276.528C150.328 277.025 150.787 277.093 151.307 277.04C151.42 277.198 151.57 277.251 151.751 277.198C152.029 277.379 152.308 277.56 152.586 277.733L152.601 277.748C152.805 277.943 153.008 278.147 153.219 278.342L153.249 278.365C154.084 280.028 154.077 281.722 153.452 283.438C153.249 283.506 153.151 283.649 153.151 283.867C152.97 284.138 152.79 284.416 152.609 284.687L152.594 284.71C149.049 286.494 151.841 289.301 151.48 291.589Z" fill="#06AED5"/>
<path d="M177.597 286.516C177.401 286.494 177.25 286.561 177.137 286.72C176.769 286.659 176.55 286.817 176.475 287.179L176.498 287.156C174.149 287.743 171.884 287.638 169.596 286.704C168 286.057 166.261 285.741 164.583 285.282L164.598 285.297C162.822 284.394 161.046 283.491 159.006 282.452C161.738 281.12 162.942 279.035 163.574 276.506C164.35 273.405 166.374 271.252 169.009 269.604L168.986 269.619C172.96 269.506 174.744 270.53 174.608 273.721C174.473 276.875 175.88 278.523 178.379 279.765C178.477 279.953 178.583 280.149 178.68 280.337C178.801 280.533 178.921 280.736 179.042 280.932C179.245 282.655 179.102 284.326 178.342 285.907L178.387 285.877C178.116 286.087 177.852 286.306 177.597 286.516Z" fill="#06AED5"/>
<path d="M110.046 35.7073C108.405 34.789 106.854 35.4739 105.311 35.9933C102.843 36.8212 100.366 37.3255 97.7771 36.6029L97.6191 36.4298L97.3858 36.4373C94.6536 33.4944 96.174 31.2214 98.5298 29.0763L98.5223 29.0989C99.8846 28.7753 99.5835 27.6914 99.4706 26.8108C99.1921 24.6958 99.7341 22.9948 101.864 22.2497C104.115 21.4594 105.831 22.6486 106.99 24.3647C108.089 25.9829 108.774 27.8796 109.639 29.6559C109.744 30.0698 109.85 30.4838 109.955 30.8978C110.076 31.1537 110.204 31.4096 110.324 31.6655C110.264 31.8687 110.316 32.0343 110.49 32.1547C110.444 32.8321 110.407 33.517 111.024 33.9987L111.031 34.0138C111.009 34.631 110.986 35.2557 110.964 35.8728C110.655 35.8126 110.354 35.7599 110.046 35.7073Z" fill="#06AED5"/>
<path d="M92.7566 77.4724L92.9071 77.3595L92.877 77.1713C94.3522 75.4176 96.2038 74.8832 98.1005 76.1778C99.6359 77.224 100.863 77.1262 102.323 76.223C103.617 75.4176 104.897 75.7036 106.079 76.6445C107.298 77.6154 107.516 78.9476 107.238 80.3099C107.035 81.2959 106.463 82.2066 106.056 83.1474C105.898 83.2152 105.83 83.3281 105.875 83.5012C103.414 85.7291 101.051 88.0774 98.2209 89.7257C97.5435 88.3408 97.0392 86.9559 96.2489 85.7667C95.4511 84.57 94.3823 83.5614 93.4265 82.47H93.434C93.148 80.8067 91.9211 79.2788 92.7566 77.4724Z" fill="#06AED5"/>
<path d="M255.783 103.921C256.777 99.9242 258.079 99.2092 261.752 100.85C262.911 101.369 263.882 101.58 264.988 100.873C266.772 99.7285 268.383 100.112 269.805 101.565C271.265 103.048 270.776 104.515 269.948 106.149C269.316 107.391 268.42 108.384 267.63 109.483C267.457 109.634 267.291 109.777 267.118 109.927C265.44 111.018 263.942 112.321 262.67 113.863L262.685 113.833C262.301 114.082 261.917 114.33 261.534 114.579L261.3 114.518L261.067 114.556C261.037 112.727 260.555 111.131 259.223 109.754C258.011 108.497 257.033 107.014 255.949 105.637C255.896 105.065 255.843 104.493 255.783 103.921Z" fill="#06AED5"/>
<path d="M279.838 182.724C277.829 184.35 275.827 185.968 273.697 187.692C272.575 186.503 273.185 184.614 271.762 183.816L271.747 183.831C270.889 182.77 270.024 181.708 269.166 180.647C269.068 180.467 268.962 180.286 268.864 180.105C268.736 179.91 268.609 179.721 268.481 179.526L268.473 179.511C268.503 178.954 268.39 178.449 267.924 178.081C268.021 177.907 267.991 177.757 267.841 177.621C268.925 173.083 270.106 172.466 274.344 174.423C275.307 174.867 276.037 174.912 276.956 174.385C278.461 173.527 280.079 173.008 281.592 174.362C283.225 175.815 283.173 177.629 282.503 179.526C282.352 179.691 282.292 179.879 282.33 180.105C281.517 180.971 280.704 181.829 279.891 182.694C279.891 182.679 279.838 182.724 279.838 182.724Z" fill="#06AED5"/>
<path d="M225.594 31.4924C225.737 31.3644 225.782 31.2139 225.73 31.0257C226.919 29.9946 228.116 28.9032 229.824 29.0613C231.781 29.2419 232.323 28.0151 232.662 26.4947L232.624 26.5173C232.842 26.2915 233.053 26.0581 233.271 25.8323L233.234 25.8624C233.753 25.8248 234.212 25.6743 234.483 25.1851L234.476 25.1926C238.638 25.3883 239.225 26.1108 239.624 31.4848C239.556 31.8913 239.488 32.2977 239.428 32.7041C238.555 35.4438 237.682 38.191 236.779 41.0135C235.642 40.2307 235.221 38.9362 233.866 38.9964L233.874 39.0039C232.963 37.8072 231.465 37.9728 230.261 37.4685C227.574 36.3621 225.12 35.075 225.594 31.4924Z" fill="#06AED5"/>
<path d="M121.659 145.076C124.181 147.063 124.361 149.216 122.442 151.813C120.305 154.718 117.565 156.893 114.426 159.219C113.945 156.201 111.882 154.402 110.362 152.242C108.992 150.3 107.871 148.192 109.76 145.98C111.536 143.91 113.523 144.805 115.367 145.972C117.091 147.063 118.016 145.566 119.213 144.911C120.034 144.971 120.846 145.024 121.659 145.076Z" fill="#06AED5"/>
<path d="M337.605 159.339C337.696 159.016 337.794 158.7 337.884 158.376C339.675 156.712 341.564 156.607 343.582 157.962C344.379 158.504 345.17 158.925 346.148 158.21C348.316 156.622 350.273 157.397 352.132 158.858L352.094 158.835C352.267 160.273 352.629 161.688 351.718 163.088C349.452 166.587 346.547 169.335 342.724 171.051C342.806 170.9 342.761 170.795 342.603 170.735C342.347 167.867 340.375 166.128 338.396 164.405L338.388 164.39C338.215 164.081 338.035 163.78 337.861 163.471C337.779 163.148 337.703 162.824 337.621 162.508C337.613 161.454 337.605 160.393 337.605 159.339Z" fill="#06AED5"/>
<path d="M322.588 202.813C322.649 201.285 321.557 200.382 320.699 199.343C319.63 198.041 318.614 196.686 318.283 195C318.035 193.728 318.118 192.441 319.239 191.553C320.308 190.71 321.58 190.469 322.762 191.215C324.335 192.201 325.75 192.328 327.368 191.245C328.61 190.409 329.799 191.124 330.785 191.975C332.102 193.111 332.012 194.564 331.462 196.017C330.522 198.47 328.271 199.848 326.638 201.729L326.608 201.827C325.434 202.271 324.493 203.031 323.687 203.98L323.469 203.934L323.288 204.07C323.16 203.927 323.01 203.897 322.837 203.987C322.754 203.588 322.671 203.204 322.588 202.813Z" fill="#06AED5"/>
<path d="M54.5216 106.006C55.4549 107.88 54.9656 109.408 53.385 110.672C53.2195 110.635 53.1066 110.702 53.0614 110.868C52.798 111.018 52.527 111.169 52.2636 111.319L52.241 111.252C49.825 111.297 47.4691 112.426 45.0004 111.696L44.9854 111.47C45.0004 109.588 45.0155 107.707 45.0305 105.825C45.0983 105.434 45.1735 105.042 45.2413 104.651C47.1304 101.294 47.8229 101.189 50.8185 103.808L50.8109 104.056C51.1045 105.878 52.2937 105.983 53.7463 105.607C54.0022 105.742 54.2581 105.878 54.5216 106.006Z" fill="#06AED5"/>
<path d="M154.407 59.0171C153.368 58.7311 152.179 59.5138 151.23 58.573C151.253 56.2623 151.276 53.9517 151.298 51.6485C151.404 51.2647 151.509 50.8808 151.614 50.497C152.525 49.4056 153.699 48.9615 155.099 49.0895C155.182 49.24 155.302 49.2852 155.46 49.2174C155.739 49.4357 156.025 49.654 156.303 49.8798L156.236 49.8497C156.65 51.1518 157.026 52.5141 158.878 52.198C159.269 52.3109 159.668 52.4238 160.059 52.5442C161.459 53.9968 161.444 55.5624 160.413 57.2032C160.247 57.1505 160.157 57.2107 160.119 57.3763C159.826 57.5419 159.54 57.7074 159.246 57.873L159.021 57.8504L158.855 58.001C158.313 57.9483 157.816 58.0311 157.493 58.5354L157.222 58.5128L156.981 58.6483C156.1 58.5278 155.212 58.4902 154.407 59.0171Z" fill="#06AED5"/>
<path d="M118.791 221.772C119.762 220.824 120.65 219.695 122.268 220.026C122.494 220.169 122.72 220.312 122.946 220.463C123.164 220.674 123.382 220.892 123.6 221.103L123.585 221.088C123.788 221.321 123.992 221.554 124.195 221.787L124.157 221.772C124.165 222.683 124.774 222.992 125.527 223.218C127.07 223.677 128.741 224.249 128.553 226.221C128.372 228.185 126.641 228.765 124.993 229.246C124.504 229.389 124.022 229.562 123.54 229.721C123.141 229.796 122.742 229.871 122.343 229.946C121.102 229.894 119.867 229.841 118.625 229.796L118.678 229.879C118.603 227.583 118.527 225.295 118.452 222.999C118.565 222.585 118.678 222.179 118.791 221.772Z" fill="#06AED5"/>
<path d="M115.397 192.697C114.17 193.021 113.034 193.518 112.168 194.496C107.765 196.558 103.362 198.628 98.3041 200.999C101.089 194.85 99.9599 189.724 95.9106 185.171C94.1569 181.385 91.7409 177.885 91.0936 173.625C90.5667 170.147 91.2517 166.919 93.1559 164.036C96.5278 158.925 101.405 158.097 106.395 161.62C106.568 161.74 106.749 161.853 106.892 162.004C110.362 165.759 113.591 168.484 119.446 165.3C122.916 163.419 127.093 165.519 129.585 169.026C132.144 172.624 131.963 176.553 130.051 180.338C127.635 185.125 123.307 187.963 118.882 190.642C117.73 191.342 116.564 192.012 115.397 192.697Z" fill="#06AED5"/>
<path d="M247.504 109.453C243.274 111.952 239.142 114.609 234.686 116.724C230.336 118.786 226.061 121.006 221.62 123.219C221.507 122.85 221.296 122.557 221.364 122.369C223.487 116.761 221.74 112.087 218.384 107.436C214.695 102.318 212.317 96.6578 214.139 90.0344C216.246 82.3648 223.78 79.4971 229.651 84.8561C233.55 88.4162 236.432 90.7118 241.994 87.8216C245.291 86.1055 249.152 88.1226 251.719 91.2462C254.398 94.5052 254.534 98.0954 253.074 101.904C251.915 104.93 249.498 107.007 247.527 109.423C247.542 109.423 247.504 109.453 247.504 109.453Z" fill="#06AED5"/>
<path d="M207.041 70.9167C210.91 66.9427 210.661 62.773 209.502 58.272C208.464 54.2227 207.869 50.0455 209.751 45.9585C211.346 42.5038 213.657 39.862 217.669 39.7415C221.447 39.6286 223.976 41.849 225.278 45.2585C226.512 48.495 228.093 50.3842 232.112 49.7594C235.461 49.2326 238.638 51.7691 239.804 55.0883C241.046 58.6408 239.797 61.6891 237.321 64.2632C235.936 65.7008 234.189 66.7169 232.345 67.4921C228.514 69.0878 212.009 71.3909 207.041 70.9167Z" fill="#06AED5"/>
<path d="M183.505 209.068C183.49 208.548 183.309 208.112 182.85 207.833C181.804 203.054 183.618 200.999 187.87 202.173C189.007 203.543 190.271 203.505 191.762 202.7C193.38 201.827 195.073 201.819 196.315 203.362C197.685 205.063 197.489 206.938 196.202 208.586C194.261 211.085 191.905 213.177 189.383 215.081C188.593 215.676 187.705 216.308 187.306 214.728C186.719 212.364 184.965 210.821 183.505 209.068Z" fill="#06AED5"/>
<path d="M330.29 140.387C330.109 140.154 329.928 139.913 329.748 139.68C327.542 132.048 329.989 128.495 338.667 127.344C340.917 127.043 341.662 126.154 342.069 124.145C343.07 119.2 345.975 116.52 350.175 116.415C354.315 116.31 357.86 119.17 359.162 123.799C360.584 128.872 359.929 133.982 359.162 139.07C358.529 143.27 357.784 147.447 356.919 152.686C353.502 146.77 348.496 146.71 343.408 146.627C340.127 146.574 337.079 145.347 334.053 144.158C332.804 142.901 331.547 141.644 330.29 140.387Z" fill="#06AED5"/>
<path d="M28.57 81.0023C24.9196 79.5948 22.0369 80.8141 19.1166 81.9281C17.5134 82.5377 15.9103 82.6055 14.2168 82.0334C12.4179 81.4313 10.9126 80.4754 10.4309 78.639C9.91157 76.667 11.1234 75.1692 12.6061 74.1305C14.2318 72.994 14.9845 71.7747 14.6383 69.7049C14.277 67.5598 15.135 65.6631 17.3102 64.9405C19.6134 64.1803 21.6154 64.9104 23.0907 66.9276C26.0486 70.9919 26.9744 75.7939 28.57 81.0023Z" fill="#06AED5"/>
<path d="M261.533 213.99C261.533 212.733 261.495 211.898 261.54 211.07C261.631 209.542 262.624 208.556 263.874 207.999C265.213 207.404 266.064 208.541 266.621 209.482C267.291 210.611 268.239 210.957 269.383 211.213C270.482 211.461 271.257 212.184 271.453 213.305C271.679 214.6 270.934 215.488 269.933 216.158C267.75 217.618 265.131 217.956 262.745 217.708C260.163 217.437 262.398 214.863 261.533 213.99Z" fill="#06AED5"/>
<path d="M42.3667 212.883C42.171 212.665 41.9753 212.447 41.7871 212.229C43.172 210.836 45.4375 211.86 46.8074 210.407C49.261 209.707 50.2019 207.479 51.5717 205.688C52.3244 204.777 53.077 203.859 53.8297 202.948C55.749 201.737 57.5177 200.307 59.7606 199.599C62.8164 198.636 65.4959 198.997 67.8442 201.24C70.1624 203.46 69.8538 206.087 68.913 208.759C68.5367 209.835 68.0775 210.889 67.5356 211.898C66.8959 213.094 66.8959 214.065 68.1829 214.78C71.3441 218.626 71.7882 221.968 69.5452 224.986C67.4453 227.809 63.5917 228.418 59.2564 226.845C55.2673 225.393 52.7383 222.021 49.4116 219.695C48.7342 218.679 47.8611 217.881 46.8224 217.249C45.6332 215.488 43.9548 214.231 42.3667 212.883Z" fill="#06AED5"/>
</g>
<defs>
<clipPath id="clip0_4846_4731">
<rect width="360" height="360" fill="white"/>
</clipPath>
</defs>
</svg>
