<?xml version="1.0" encoding="utf-8"?>
<!-- Generator: Adobe Illustrator 24.1.2, SVG Export Plug-In . SVG Version: 6.00 Build 0)  -->
<svg version="1.1" id="Layer_1" xmlns="http://www.w3.org/2000/svg" xmlns:xlink="http://www.w3.org/1999/xlink" x="0px" y="0px"
	 viewBox="0 0 1628.6 579.1" style="enable-background:new 0 0 1628.6 579.1;" xml:space="preserve">
<style type="text/css">
	.st0{fill:#06AED5;}
	.st1{fill:#13273B;}
	.st2{fill:none;stroke:#58595B;stroke-width:5;stroke-linecap:round;stroke-miterlimit:10;}
	.st3{fill:#115F83;}
</style>
<g>
	<path class="st0" d="M285.7,335.9l-0.4,0c-0.2-5.3,2.3-10.4,0.5-15.8c0-0.6-0.1-1.1-0.1-1.7c-0.6-6.6-3.4-12.1-8.3-16.6l-0.1-0.1
		c-0.2-0.2-0.5-0.5-0.7-0.7l-0.1-0.1c-0.2-0.2-0.5-0.5-0.7-0.7l-0.1-0.1c-0.2-0.2-0.5-0.5-0.7-0.7l-0.1-0.1c-3-3.5-6.7-6.1-10.7-8.5
		l0,0c-0.3-0.3-0.6-0.5-0.9-0.8l0,0c-0.3-0.2-0.6-0.5-0.9-0.7l-0.1-0.1c-0.5-0.4-1-0.8-1.5-1.2c-0.3-0.2-0.5-0.4-0.8-0.6
		c-0.3-0.3-0.6-0.6-1-0.8l0,0c-3.1-3-6.2-6.1-9.3-9.1l0,0c-0.3-0.3-0.5-0.6-0.8-0.9l0,0c-0.3-0.3-0.5-0.6-0.8-1l0.1,0.1
		c-0.3-0.3-0.6-0.6-0.8-1l0.1,0c-0.9-1.4-1.8-2.8-2.7-4.2c-6.7-9.7-10.3-20.2-9.3-32.2c1.4-17.5,14.9-28.7,32.2-26.5
		c9.3,1.2,17.1,5.6,24.6,10.7c3.5,2.3,5.6,2.2,7.8-1.2l0,0c0.3-0.3,0.6-0.6,0.9-0.9l0,0.1c1.7-0.7,2.7-2.1,3.7-3.5
		c0.3-0.1,0.5-0.3,0.5-0.5c0.6-0.2,1.1-0.5,1.3-1.2l0.2-0.2c5.2-4.3,11.2-6.6,17.7-8.1c0.6,0,1.1-0.1,1.7-0.1c8.8,0,16.6,3,23.5,8.4
		l0.1,0.1c0.8,1.4,1.8,2.6,3.1,3.5l0,0c6.2,10,7.5,20.7,4.3,32c-1.8,6.5-5.3,12.2-8.3,18.2c-0.8,0.3-1,0.9-1.1,1.6
		c-1.7,1.7-3,3.8-4.1,5.9c-0.6,0.2-0.9,0.6-0.9,1.3c-0.8,0.5-1.5,1.1-1.6,2l0,0c-3.6,4-7.2,7.9-10.8,11.9c-8.3,8-16.7,15.9-25,24
		c-6.1,6-12.4,11.9-17.8,18.6l0,0c-0.3,0.3-0.5,0.6-0.8,0.9l0,0C286.4,335.4,286.1,335.7,285.7,335.9z"/>
	<path class="st0" d="M162.1,295.9c-0.6,0.1-1.1,0.1-1.7,0.2c-1.9,0.3-3.6,0.9-5.1,2.2l0,0c-2.7,0.9-4.9,2.7-7.2,4.2
		c-11,7.2-22.7,12.5-36.3,11.9c-0.6,0-1.1-0.1-1.7-0.1c-0.9-0.3-1.8-0.5-2.8-0.8c-8.8-2.7-16.7-6.7-19.2-16.6
		c-2.4-9.4,1.4-16.9,8.2-23.1c2.7-2.5,5.3-4.9,8.2-7.1c2.4-1.9,2.8-3.8,1-6.4c-5.6-8.6-6.4-17.6-2-26.9l0,0c1.6-2,3.3-4,4.9-6l0,0
		c0.3-0.3,0.6-0.5,0.9-0.8l0,0c10.9-7.3,21.6-6.1,31.8,1.3c8.4,6.1,14.4,14.4,19,23.5c7.7,15.4,15.1,31.1,22.6,46.6
		c0.3,0.5,0.3,1.1-0.3,1.6c-3.1-1.3-6-3.3-9.5-3.6c-0.6,0-1.1-0.1-1.7-0.1C168.2,294.8,165.1,294.8,162.1,295.9z"/>
	<path class="st0" d="M456.6,147c-2-0.4-3.9-0.4-5.9,0.1c-4.3,0.3-7.9,2.3-11.4,4.7c-5.1,3.4-10.3,6.7-16,8.9
		c-9.7,3.8-19.5,4.8-29.1,0.2c-11.2-5.3-14.7-17-8.5-27.7c2.5-4.4,6.2-7.8,10.2-10.9c5.2-3.9,5.2-3.9,1.3-9.7l0,0
		c-0.1-0.4-0.2-0.8-0.3-1.2c-4.1-9.3-2.4-18.8,4.4-25.4c5.9-5.7,16-7,24.6-3.1c7.2,3.3,12.5,8.8,16.8,15.3
		c9.1,13.9,15.2,29.4,22.5,44.2c1.2,2.4,2.8,4.7,3.2,7.9C464.3,149,460.8,146.6,456.6,147z"/>
	<path class="st0" d="M185.5,139.4c0.1,0.6,0.1,1.1,0.1,1.7c0,0.8,0,1.6,0,2.5c-0.1,0.6-0.1,1.1-0.2,1.7c-1,3.5-2.7,6.7-4.3,10
		c-0.2,0.3-0.4,0.5-0.7,0.8c-1.7,1.7-3.4,3.4-5.1,5l0,0c-9.6,5.6-20.1,8.5-31,9.1c-14.6,0.8-29.3,0.9-43.8,2c-0.6,0-1.4,0.2-1.8-0.9
		c1.1-1.1,2.3-2.2,3.5-3.4c5.7-5.4,7.8-12.1,6.6-19.8c-1.5-9.2-2.8-18.4-2.3-27.8c0.1-0.6,0.1-1.1,0.2-1.7
		c1.7-5.9,4.2-11.5,7.7-16.6c0,0,0,0,0,0c7.4-7.1,15.7-10.2,25.7-5.9l0,0c0.9,1.2,2,2,3.4,2.6l0-0.1c0.3,0.3,0.6,0.6,0.9,0.9
		c0,0-0.1,0-0.1,0c0.8,1.7,2,3,3.4,4.2c0,0,0-0.1,0-0.1c0,0.7,0.4,1.2,1,1.6l0,0c1.8,4.5,3.8,8.9,4.7,13.7c0.5,2.9,1.9,3.2,4.3,2.8
		c8.3-1.7,15.6,0.5,21.9,6.2l0,0C182.2,131.3,184.4,135.1,185.5,139.4z"/>
	<path class="st0" d="M390.6,284.2c0.5-0.1,1.1-0.2,1.7-0.3c5.2-0.4,10.3,0.4,15,2.7l0,0c0.9,1.2,2,1.9,3.4,2.5l0,0
		c0.3,0.3,0.6,0.5,0.8,0.8l0,0c0.3,0.3,0.5,0.6,0.8,0.9l0,0c0.3,0.3,0.5,0.6,0.8,1l-0.1,0c3.9,6.5,4.5,13.5,2.9,20.8
		c-1.7,8-6.4,14.3-11.1,20.7c-5.9,8.1-13.4,14.7-19.4,22.8l0,0c-0.3,0.3-0.6,0.6-0.9,0.9l0,0c-0.3,0.3-0.5,0.6-0.8,0.9l0,0
		c-0.3,0.3-0.5,0.6-0.8,0.9l0,0c-3.9,4-7.8,8-12.1,12.4c-1-2.7-0.6-4.6-0.5-6.5c0.1-6.5-2-12.2-7-16.3c-5.2-4.3-10.9-8.2-16.3-12.2
		c-2.3-2.5-4.5-5-6.7-7.5c-0.3-0.3-0.5-0.6-0.7-0.9c-0.2-1.1-0.7-1.9-1.7-2.5c-1.4-3.9-3.1-7.7-4-11.8c-2.5-11.8,4.5-22.7,15.8-24.7
		c4-0.7,7.6,0.8,11.5,1.4l0,0c3.5,1.8,7.2,3.4,10.6,5.4c2.4,1.5,4,1.1,5.5-1.1C380.7,289.6,385.1,286.2,390.6,284.2z"/>
	<path class="st0" d="M203.1,175.4c1.9,0,3.9,0,5.9,0c13.8,4.6,19.3,12.4,17.7,25.6c-0.7,6.3-3.5,12-6.8,17.4
		c-6.6,10.8-16,19.2-24.4,28.5c-4.7,5.3-9.5,10.4-14.4,15.6c-0.4-0.6-0.6-0.8-0.6-1c0-0.8,0-1.7,0.1-2.5c0.9-9.4-3-16.5-10.6-21.7
		c-7.2-4.9-13.9-10.2-19.5-16.8l0,0c-5.8-9-8.8-18.5-5.2-29.1l0,0c0.6-0.4,0.9-0.9,0.9-1.7l0,0c3.4-5.1,8-8.4,14.2-9.2
		c6.6-0.8,12.5,1.8,18.2,4.8c7.1,3.8,7.1,3.8,11.9-3.2l0,0c0.3-0.3,0.6-0.5,0.8-0.8l0,0c0.3-0.3,0.6-0.6,0.8-0.8l0,0
		c0.3-0.3,0.7-0.5,1-0.8c0.3-0.2,0.5-0.4,0.7-0.7C196.8,177.4,199.9,176.3,203.1,175.4z"/>
	<path class="st0" d="M456.6,163.7c0.6-0.1,1.1-0.1,1.7-0.2c4.9-0.4,9.3,0.7,13.3,3.6l0,0c0.3,0.3,0.6,0.6,0.9,0.8l0,0
		c5.3,6.4,5.8,14,5.1,21.8c-0.3,3.4,0.7,4.9,4.1,5.7c10.1,2.2,16,9.4,16,19c0,7.9-6.6,15.6-15.6,17.9c-8.5,2.1-17,1.3-25.2-1
		c-9.7-2.6-19.2-5.8-28.8-8.7c-0.5-0.1-1.1-0.2-1.6-0.4c-3.2-1.2-6.3-2.5-9.5-3.7c0.4-1.4,1.6-1.3,2.4-1.6c7.5-3,12-8.4,13.3-16.4
		c1.3-8.4,3.4-16.6,7.3-24.2l0,0c0.2-0.3,0.5-0.6,0.7-0.9l0-0.1c1-0.5,1.4-1.4,1.8-2.4l0,0c0.3-0.3,0.5-0.6,0.8-0.9l0,0
		C447.1,168.3,451.7,165.6,456.6,163.7z"/>
	<path class="st0" d="M269.1,409.5c-0.5,0.1-1.1,0.3-1.6,0.4c-0.8,0.1-1.6,0.3-2.4,0.4c-12.9,2-25.7-3.4-24.6-18.2
		c0.1-0.6,0.1-1.1,0.2-1.7c0.6-1.4,1.1-2.8,1.7-4.2l0,0c0.2-0.3,0.4-0.5,0.5-0.8c0.1-0.3,0.2-0.5,0.4-0.8c0.9-0.6,1.4-1.5,1.7-2.5
		l0,0c6.8-6.6,6.8-6.6,2.1-14.6c-4.2-7.2-3.1-15,3-22.2l-0.1,0c0.3-0.3,0.6-0.6,0.9-0.9l0,0.1c6.3-4,13-4.3,19.9-1.7l0,0
		c3.4,2.2,6.7,4.4,10.1,6.7l0,0c1.3,2.1,3.1,3.7,5,5.2c0.2,0.3,0.4,0.5,0.6,0.7c6.5,8.9,13,17.8,19.5,26.7c0.2,0.3,0.5,0.6,0.7,0.9
		c0.9,2.9,3.8,4.7,4.5,8.4c-9.4-3.2-17.3-1.7-23.6,5.7l0,0c-0.3,0.3-0.6,0.6-0.9,0.9l0,0c-0.3,0.3-0.7,0.6-1,0.9
		c-0.3,0.2-0.5,0.4-0.8,0.6c-4.1,2.9-8.3,5.8-12.4,8.7l0,0C271.2,408.1,270.1,408.6,269.1,409.5z"/>
	<path class="st0" d="M418.9,239.1c-0.1,0.3,0,0.5,0.2,0.6c0.5,3.6,1.6,6.9,3.2,10.1l0,0c2,6.9,3.9,13.9,5.9,20.8l0,0
		c-0.5-0.2-1.1-0.2-1.6-0.5c-7-4.8-14.2-4.8-21.6-0.9c-5.6,2.9-11.6,4.8-17.9,5.2c-8.1,0.6-15.1-1.9-20.1-8.6
		c-4-5.4-2.6-10.7,0.3-16l0,0c2.5-2.3,5-4.5,7.5-6.8l0,0c0.8-0.1,1.5-0.6,2-1.3c0,0,0.1-0.1,0.1-0.1c5.3-1.4,3.5-4.8,2.4-8.1
		c-2.3-6.3-0.5-11.8,4-16.4c4.6-4.7,10.3-5.7,16.5-3.7c4.7,1.5,7.8,5,11,8.5v0C414.2,227.5,416.5,233.3,418.9,239.1z"/>
	<path class="st0" d="M454,282.5c0.7-0.4,0.8-1,0.8-1.7c2.7-3.2,5.4-6.4,8.9-8.7c2.1-1.4,2.3-2.8,1.1-4.9c-0.7-1.2-1.3-2.5-1.8-3.8
		c-3.6-9.4,1.4-19.7,10.7-21.7c2.5-0.5,5.3-0.2,7.9-0.3c0.1,0.2,0.3,0.3,0.5,0.1c6.8,2.8,12,7.4,16,13.4c2.2,3.2,4,6.6,6.1,9.9l0,0
		c3.9,8.4,7.9,16.8,11.8,25.3c0.4,0.9,1.2,1.8,0.6,2.7c-0.7,1-1.8,0.2-2.7-0.1c-7-3-13.2-1.1-19.3,2.8c-5.6,3.6-11.4,6.9-18,8.3
		C461.3,307.2,450.3,296.8,454,282.5z"/>
	<path class="st0" d="M334.6,451.5c0,0.6-0.1,1.1-0.1,1.7c-0.9,1-0.9,2.1-0.9,3.3l0,0c-2.6,5.2-4.5,10.7-8.2,15.3
		c-5.2,6.6-10.2,13.2-15.5,19.7c-2.3,2.9-4.1,6.3-7.3,8.5v0c0.2-7.3-1.2-13.8-8.4-17.6v0c-1.6-2-4-2.9-6.1-4.2
		c-9.8-6-17-13.6-17.5-25.9c0-0.6,0.1-1.1,0.1-1.7c1.4-3,2-6.3,4.7-8.6c6-5.4,12.4-4.1,19.1-1.6c7.6,2.9,7.6,2.7,12.3-4
		c0.3-0.2,0.5-0.5,0.8-0.7c7.7-5.1,15.1-5,22.4,0.8l0,0C333.1,441.1,334.9,446,334.6,451.5z"/>
	<path class="st0" d="M219.8,104.9c0.2,0.2,0.4,0.3,0.7,0.2c5,3.2,5,3.2,8.4-1.1c1.1-1.4,2.2-2.7,3.4-4.1l0.1-0.1
		c0.3-0.2,0.6-0.5,0.9-0.7l0,0c0.3-0.3,0.6-0.5,0.9-0.8l0,0.1c1.5-0.3,2.9-0.8,4.2-1.7c0.8-0.1,1.7-0.2,2.5-0.3
		c14.3-0.3,19.5,11.3,17.2,22c-1,4.7-2.7,9-5.5,12.9c-4.8,6.8-9.7,13.5-14.6,20.2l0.1,0.3l-0.1-0.3c-1.1,0.6-1.8,1.6-2.2,2.8l0,0
		c-0.3,0.3-0.5,0.6-0.8,0.9l0,0.1c-3,2.2-4.1,6.4-8.1,8.2c-0.4-7.2-1.9-13.4-8.6-16.8l0,0c-0.6-0.9-1.4-1.6-2.6-1.7c0,0,0,0.1,0,0.1
		c-0.3-0.2-0.6-0.5-1-0.7l-0.1,0c-2-1.8-4.1-3.3-6.5-4.3l0,0c-0.3-0.2-0.6-0.5-0.9-0.7l0,0c-5.1-4.2-9.5-8.9-11.2-15.6
		c-2.9-11.3,2.1-20.1,12.4-21C212.4,102.5,216.1,104,219.8,104.9z"/>
	<path class="st0" d="M196.8,327c0.2,0,0.4,0,0.4-0.3c0.6-0.3,1.2-0.6,1.8-0.9c9-5,19-0.1,20.4,10c0.7,5.1-0.9,9.7-3.8,13.7
		c-2.4,3.4-5.1,6.6-7.6,9.9l0,0c-2.3,2.2-4.5,4.5-6.7,6.7l0,0c-2,1.4-3.7,3.1-5.2,5c-0.3,0-0.5,0.2-0.5,0.5c-3,1.6-4.7,5.2-8.4,6.4
		c-0.2-6.2-0.6-12-6.6-15.2l0,0c-0.3-0.3-0.6-0.6-0.9-0.9l0,0c-3.9-4.2-7.8-8.4-11.7-12.6l0,0c-0.8-2.1-1.5-4.3-2.8-6.1
		c0,0,0-0.3,0-0.3c0.2-4.3-0.1-8.6,1.9-12.7l0,0c0.2-0.3,0.5-0.6,0.7-0.9c0.3-0.4,0.6-0.7,0.9-1c3-2.4,6.4-3.5,10.3-3.2
		c3,0.2,5.3,2.1,8.1,2.7l0,0c0.3,0.2,0.6,0.4,0.9,0.6c0.1,0.2,0.4,0.3,0.6,0.3C192.7,331.7,192.7,331.7,196.8,327z"/>
	<path class="st0" d="M321,165.2c-1.6,1.2-3,2.6-4.1,4.3l0,0c-0.3,0.3-0.5,0.5-0.8,0.8l0,0c-0.3,0.3-0.5,0.5-0.8,0.8l0,0
		c-0.3,0.3-0.5,0.5-0.8,0.8l0,0c-1.7,1.1-3.2,2.4-4.2,4.1l0,0c-1.1,0.6-2,1.4-2.5,2.5l0,0c-1.4,0.8-2.6,1.8-3.4,3.3l0,0
		c-2.8,2.3-5.7,4.7-9,7.5c0-2.1,0-3.6,0-5.1c0-4.3-1.7-7.9-4.9-10.6c-4.2-3.4-8.1-7.1-11.9-10.9l0,0c-2.6-4.8-4.9-9.5-4.4-15.3
		c0.8-8.8,7.6-13.7,16-11.1c2.5,0.8,5.1,1.7,7.2,3.2c2.9,2.1,5.1,2.1,7.2-0.8c0.5-0.7,1.1-1.2,1.7-1.8c0.7-0.1,1.3-0.4,1.6-1.1
		c6.3-2.2,12.4-2.4,17.1,3.2c4.8,5.8,3.8,12.1,0.9,18.4C324.4,160.2,322.6,162.7,321,165.2L321,165.2z"/>
	<path class="st0" d="M429.7,317.6c0.1-0.5,0.2-1.1,0.3-1.6c0.4-0.9,0.9-1.7,1.3-2.5c4.1-9.2,12.5-11.1,20.2-4.6
		c2,1.7,4,3.5,5.7,5.5c1.3,1.4,2.4,1.7,3.9,0.7c4.3-3,9-3.2,13.9-2.4l0,0c8.3,5.6,10.6,11.6,7.1,19.3c-2.4,5.3-6.5,9-11.3,12
		c-9.3,5.8-19.4,10.4-29.2,15.3c-0.4,0.2-1,0.6-1.6-0.4c1.5-3.9,2.5-8,0.7-12.3c-1.6-3.9-4.1-7.2-6.5-10.5c0,0,0,0,0,0
		C432,330,428.8,324.3,429.7,317.6z"/>
	<path class="st0" d="M90.1,182.8c0.3,0.3,0.6,0.6,0.9,0.9c0.6,1.8,1.5,2.6,3.3,1.3c1.7-1.2,3.3-2.4,5-3.7l0,0
		c5.3-1.9,10.2-1.1,14.9,1.9c0.2,0.2,0.5,0.4,0.7,0.7c1.2,1.9,2.4,3.8,3.6,5.8c0.1,0.6,0.1,1.1,0.2,1.6c0.7,6.6-2.3,11.8-6.1,16.7
		l0,0c-1.6,1.2-3.1,2.5-4.2,4.2l0,0c-9.5,6.4-19,12.8-28.9,19.5c-0.2-3.3,1-5.9,0.3-8.5c0-0.6,0-1.1-0.1-1.7
		c-0.6-3.8-2.7-6.8-5.7-9.1l0-0.1c-1-2-2.3-3.7-4-5.1l0,0c-1.5-3.3-3.9-6.1-4.6-9.7c-1.3-6.4-1.3-12.4,3.6-17.5
		c4.2-4.4,9.2-3.6,14.3-2l0,0C85.6,179.5,87.9,181.1,90.1,182.8z"/>
	<path class="st0" d="M235.6,195.4c0-6.7,4.2-10.7,9.4-13.8c2.9-1.7,3.7-3.4,2.5-6.7c-2.2-6.3-0.1-11.7,5.2-15.2
		c4.3-2.9,10.3-2.3,15.1,1.5c3.9,3.1,6.5,7.2,8.4,11.8c4,9.8,6.5,20,9.9,31.4c-7.6-5.7-14.2-3.8-20.9-0.8c-4.8,2.1-9.9,3.8-15.3,3.6
		c-0.6-0.1-1.1-0.1-1.6-0.2c-5.6-1.5-10.5-4-12.5-10C235.7,196.5,235.6,196,235.6,195.4z"/>
	<path class="st0" d="M515.5,164.1c-0.3-0.1-0.7-0.2-1-0.3c-3.4,0.2-6.3,1.8-9.4,3.1c-0.6,0.1-1.1,0.2-1.7,0.3
		c-0.3,0.1-0.7,0.3-1,0.4v-0.1c-3.6,0.1-7.1,0.3-10.7,0.4l-0.3-0.2l-0.4,0c-2.8-1.4-5.6-2.9-8.4-4.3l0,0c-3.9-5-4.3-10.3-0.9-15.7
		c0,0,0,0,0,0c1.9-1.4,3.8-2.9,5.7-4.4l0.1,0c0.3-0.2,0.6-0.5,1-0.7l-0.1,0.1c0.7,0,1.2-0.4,1.6-1l0,0c2.3-0.4,2.7-1.8,2.3-3.9
		c-2.5-12.3,3.8-18.8,16-16.8l0,0c4.9,2.7,8.4,6.7,10.5,11.8c4.5,10.9,6.5,22.5,8.8,34c-0.5-0.1-1-0.1-1.5-0.2
		C523.2,163.6,519.7,162.7,515.5,164.1z"/>
	<path class="st0" d="M320.9,387.9c0-0.6,0-1.1,0.1-1.7c0.7-3.9-1.4-6.7-3.6-9.5c-3.2-4.1-5.8-8.6-7.5-13.4c-3-8.4,0.6-17.1,8-19.3
		c5.7-1.7,9.8,1.5,13.3,5.1c2.8,2.9,5,3.8,8.7,1.2c3.9-2.7,8.5-2.5,12.6,0.2c4.1,2.7,5.9,6.5,5.5,11.4c-0.4,4.6-2.6,8.1-5.8,11.3
		c-7.1,7.1-16.2,11.2-24.7,16.2c-2.3,1.3-4.4,3.1-7.5,3.8C320.3,391.1,321.5,389.6,320.9,387.9z"/>
	<path class="st0" d="M326.1,422.2c-3.2-7-2.1-10.7,5-15.3c2.4-1.6,3.4-2.9,2.5-6c-1.6-5.2,0.3-9.5,4.4-11.8
		c4.1-2.3,8.5-1.6,12.5,2.2c0.4,0.4,0.9,0.7,1.3,1c0.2,0.2,0.5,0.5,0.7,0.7c0.9,1.2,1.8,2.4,2.6,3.6c-0.1,0.2,0,0.4,0.2,0.5
		c3.5,8.5,6.3,17.3,8.6,27.1c-6-3.6-10.9-2.5-16.2-0.1C340.4,427.6,332.9,428.2,326.1,422.2L326.1,422.2z"/>
	<path class="st0" d="M243.3,334.5c-0.9,0-1.7-0.1-2.5-0.1c-1.8-1-3.8-1.8-5.4-3.1c-4-3.2-4.5-8-1.4-11.7c5.6-6.7,5.6-6.7,6.2-15.1
		l-0.1,0c3.2-5.2,6.7-7,11.2-5.8c3.6,0.9,6.3,3.2,8,6.3c4.4,8.2,6.5,17.2,9.5,26.8c-4.5-2.1-8.4-3-12.3-1.2
		C252.2,332.5,247.7,333.4,243.3,334.5z"/>
	<path class="st0" d="M398.9,375.4l-0.3-0.2l-0.3,0.1c-1.1-0.9-2.4-0.8-3.6-0.6l-0.3-0.2l-0.4,0c-0.5-0.5-1.1-0.9-1.6-1.4h0
		c5-2.3,5.9-6.9,6.3-11.7c0.5-4.6,1.4-9,4.4-12.7c1.7-1.1,3.4-2.1,5.1-3.2c5.4,0,8.8,1.9,9.4,6.8c0.5,4.4,2.1,6.5,6.4,8
		c6,2.1,6.7,9.7,1.9,13.9c-2.2,1.9-4.8,2.7-7.6,3c-4.3,0.5-8.5-0.5-12.8-0.8c-0.8-0.1-1.7-0.2-2.5-0.2
		C401.8,375.3,400.4,375.4,398.9,375.4z"/>
	<path class="st0" d="M186.2,103.7c-0.1,0.2-0.1,0.4,0.1,0.5c-0.1,0.8,0.1,1.4,0.7,1.9c-0.1,0.2-0.1,0.4,0.2,0.6
		c-0.2,0.9,0.2,2.6-1.7,1.7c-3.9-2-7.5-0.6-11.1,0.9c-2,0.8-4.1,1.6-6.3,2.1c-4.6,1-9.8-1.3-11.8-5c-2.4-4.5,0.3-7.3,3.3-10
		c0.4-0.4,0.6-0.9,1-1.3l0,0c2.3-0.4,2.9-1.9,2.4-3.9c-1-4.2,0.3-7.6,3.4-10.3l0,0c1.7-0.3,3.3-0.7,5-1.1c0.6,0.1,1.1,0.2,1.6,0.3
		c2,1.6,3.9,3.2,5.9,4.9l0,0c0.3,0.3,0.5,0.7,0.8,1c0.1,0.2,0.3,0.5,0.4,0.7c0.2,0.3,0.3,0.5,0.5,0.8l0,0c0.2,0.4,0.4,0.9,0.7,1.3
		l-0.1,0.2l0.2,0.2C182.5,94.2,184.3,98.9,186.2,103.7z"/>
	<path class="st0" d="M335.2,175.4c4.5,7.8,7.1,16.2,9.4,25.6c-5.4-2.6-10.1-0.9-14.9,1.1c-3.6,1.6-7.4,2.2-11.3,0.5
		c-6.5-2.8-7.8-8.9-2.2-13.4c2.9-2.4,4.7-4.2,3.6-8.5c-1.2-5.2,5-9.8,10.1-8.1c1.6,0.5,3,1.4,4.5,2.1
		C334.6,174.9,334.9,175.2,335.2,175.4z"/>
	<path class="st0" d="M488.2,101.8c2.7,6.1,1.9,10.5-3.7,14.5c-5.7,4.1-11.9,7.5-19,11.8c1.4-7.9-4-12.3-6.2-17.9
		c-0.8-2.1-1.5-4.2-1.3-6.4c0.3-3.3,1.5-6,4.6-7.4c3-1.4,5.7-0.5,8.1,1.4c0.8,0.6,1.6,1.1,2.4,1.7l0,0c1,1.9,2.6,2,4.2,1.1
		c3.6-2,6.8-1.3,10.1,0.7C487.7,101.4,488,101.6,488.2,101.8z"/>
	<path class="st0" d="M391.5,399.6c-0.2,0.1-0.3,0.4-0.2,0.6c-2,3.3-5.1,5.6-7.5,8.6c-0.3,0.3-0.5,0.5-0.8,0.8
		c-1.6,0.9-2.9,2-3.9,3.5l-0.1,0.1c-1.8,1-3.1,2.3-4.4,3.9c0,0,0,0,0,0c-1,0.1-1.6-0.3-1.5-1.4c0.2-3.5-1.7-6-4.2-8.1
		c-3.1-2.8-5.6-5.9-7.4-9.7c-0.1-0.5-0.2-1.1-0.3-1.6c0.8-8.9,4.8-11.4,12.6-7.5c2.9,1.4,4.8,0.9,7.2-0.7c2.5-1.8,5.2-1.6,7.8-0.2
		c2.7,1.5,3.9,3.9,3.7,6.9C392.3,396.4,391.8,398,391.5,399.6z"/>
	<path class="st0" d="M516.8,173.7c0.6,1.2,1.5,2.4,1.8,3.7c0.8,3.9,2,6.8,6.6,8.3c4.8,1.6,5.1,8.2,1.1,11.6c-1.3,1.2-3,1.9-4.5,2.9
		c-0.8,0.1-1.6,0.2-2.5,0.3c-0.5,0-1.1,0-1.6,0c-0.6,0-1.1-0.1-1.7-0.1c-0.3,0-0.6,0-0.8,0c-0.5,0-1.1-0.1-1.6-0.1
		c-2.7-0.8-5.5-1.3-8.4-1.4c-0.8-0.1-1.7-0.2-2.5-0.3c-1.9-0.6-3.9-1.1-5.8-1.7l0,0c0.3-0.5,0.6-1,0.8-1.5l0,0
		c3.5-1.8,4.3-4.9,4-8.5c0-0.5,0.1-1.1,0.1-1.6c0.4-1.7,0.8-3.4,1.3-5.1c2-6.7,6.1-9,12.7-7.3l0-0.1
		C516.2,173.2,516.5,173.5,516.8,173.7L516.8,173.7z"/>
	<path class="st0" d="M435,261.5c-0.1-0.5-0.2-1.1-0.3-1.6c-0.2-0.3-0.4-0.7-0.5-1l0.1,0c-1.8-4.4-5.1-8.1-5.1-13.2l0.1-0.2
		l-0.1-0.2c2.3-6,6.1-9,9.4-6.5c4.5,3.4,8.9,4.7,14.3,3.5c0.6-0.1,1.4,0.2,2,0.3l0-0.1c0.3,0.3,0.6,0.5,1,0.8l0,0
		c4,4.1,2.8,8.3,0.1,12.5c-0.3,0.3-0.6,0.6-0.9,0.9c-1.1,0.5-2.1,1.1-2.7,2.3l0,0c-5.3,2.8-10.6,5.6-15.9,8.5l-0.4,0l-0.3,0.2
		C434.1,265.7,436.8,263.3,435,261.5z"/>
	<path class="st0" d="M215.6,367.8c0.2,0.2,0.4,0.3,0.6,0.2c1.6,1.4,3.3,2.6,4.7,4.1c1.3,1.3,2.5,1.6,4,0.8c3-1.5,5.9-1,8.8,0.4
		l0.3-0.1l-0.3,0.1c2.2,3,2.9,6.1,1.3,9.7c-1,2.1-3,3.3-4.2,5.1l-0.1,0c-0.3,0.2-0.6,0.5-0.9,0.7l0,0c-0.4,0.3-0.7,0.5-1.1,0.7h-0.3
		l-0.3,0.2c-0.3,0.2-0.7,0.4-1,0.6l0-0.1c-3,1-5.6,2.6-8.3,4.4c-0.7,0-1.3,0.2-1.7,0.8c-1.4,0.1-2.4,1.4-4.1,1
		c0.1-3.4-0.1-6.8-2.2-9.9c-1.3-1.9-2.2-4.2-3.1-6.3C205.2,373.6,208.5,368.3,215.6,367.8z"/>
	<path class="st0" d="M67.6,244.8c0.2-0.6,0.5-1.2,0.7-1.8c3.1,2.2,6.3,3.6,10,1.8c0.6-0.1,1.1-0.2,1.7-0.2c0.9,0.1,1.8,0.1,2.6-0.5
		c0.8,0,1.6,0,2.4,0c4.6,1.2,8.9,2.9,10.1,8.3c-0.1,0.5-0.1,1.1-0.2,1.6c-1.3,2.4-3.1,4.3-5.7,5.2c-2.5,0.8-3.5,2.1-3.4,4.9
		c0.2,3.7-1.9,6-5.3,7.1c-3.3,1-5.6-0.6-7.7-2.9c-1.9-2.1-2.5-4.9-3.5-7.5c-0.1-0.5-0.2-1.1-0.3-1.6c0.1-1.7,0.3-3.5-0.6-5.1
		c-0.1-1.1-0.2-2.2-0.3-3.3C68.3,248.7,68.5,246.7,67.6,244.8z"/>
	<path class="st0" d="M266,437.3c-0.1,0.6-0.2,1.1-0.3,1.7c-1.4,1.1-2.8,2.2-4.1,3.3c-1.1,0-2.2-0.1-3.2-0.1c-3.1-1.7-5.6-3.9-7.4-7
		c-1.1-1.9-1.6-4.1-3.4-5.5l0,0c-0.2-1.3-0.5-2.6-1.7-3.4l0,0c0.2-1.4-1.4-2.4-0.8-4c3.6,1,6.6-0.5,9.6-2.3c2.8-1.7,5.8-3.1,9.3-2.7
		l0,0c0.4,0.7,1,0.8,1.7,0.7c0.1,0.2,0.4,0.3,0.6,0.2c0.4,0.2,0.7,0.5,1.1,0.7l0,0c0.3,0.3,0.5,0.5,0.8,0.8l0,0
		c1.1,2.2,1.1,4.5,0.3,6.7c-0.3,0.1-0.4,0.3-0.4,0.6c-0.2,0.4-0.5,0.7-0.7,1.1l0,0C262.8,430.5,266.5,434.2,266,437.3z"/>
	<path class="st0" d="M300.7,430.5c-0.3,0-0.5,0.1-0.6,0.3c-0.5-0.1-0.8,0.1-0.9,0.6l0,0c-3.1,0.8-6.1,0.6-9.2-0.6
		c-2.1-0.9-4.4-1.3-6.7-1.9l0,0c-2.4-1.2-4.7-2.4-7.4-3.8c3.6-1.8,5.2-4.5,6.1-7.9c1-4.1,3.7-7,7.2-9.2l0,0c5.3-0.1,7.6,1.2,7.5,5.5
		c-0.2,4.2,1.7,6.4,5,8c0.1,0.3,0.3,0.5,0.4,0.8c0.2,0.3,0.3,0.5,0.5,0.8l0,0c0.3,2.3,0.1,4.5-0.9,6.6l0.1,0
		C301.4,429.9,301.1,430.2,300.7,430.5z"/>
	<path class="st0" d="M211,97.3c-2.2-1.2-4.2-0.3-6.3,0.4c-3.3,1.1-6.6,1.8-10,0.8l-0.2-0.2l-0.3,0c-3.6-3.9-1.6-6.9,1.5-9.8l0,0
		c1.8-0.4,1.4-1.9,1.3-3c-0.4-2.8,0.4-5.1,3.2-6.1c3-1.1,5.3,0.5,6.8,2.8c1.5,2.2,2.4,4.7,3.5,7c0.1,0.6,0.3,1.1,0.4,1.7
		c0.2,0.3,0.3,0.7,0.5,1c-0.1,0.3,0,0.5,0.2,0.7c-0.1,0.9-0.1,1.8,0.7,2.4l0,0c0,0.8-0.1,1.7-0.1,2.5
		C211.8,97.4,211.4,97.3,211,97.3z"/>
	<path class="st0" d="M188,152.8l0.2-0.1l0-0.3c2-2.3,4.4-3,6.9-1.3c2,1.4,3.7,1.3,5.6,0.1c1.7-1.1,3.4-0.7,5,0.6
		c1.6,1.3,1.9,3.1,1.5,4.9c-0.3,1.3-1,2.5-1.6,3.8c-0.2,0.1-0.3,0.2-0.2,0.5c-3.3,3-6.4,6.1-10.2,8.3c-0.9-1.8-1.6-3.7-2.6-5.3
		c-1.1-1.6-2.5-2.9-3.8-4.4h0C188.5,157.2,186.9,155.2,188,152.8z"/>
	<path class="st0" d="M404.6,187.9c1.3-5.3,3-6.3,7.9-4.1c1.5,0.7,2.8,1,4.3,0c2.4-1.5,4.5-1,6.4,0.9c1.9,2,1.3,3.9,0.2,6.1
		c-0.8,1.6-2,3-3.1,4.4c-0.2,0.2-0.5,0.4-0.7,0.6c-2.2,1.4-4.2,3.2-5.9,5.2l0,0c-0.5,0.3-1,0.7-1.5,1l-0.3-0.1l-0.3,0.1
		c0-2.4-0.7-4.6-2.5-6.4c-1.6-1.7-2.9-3.6-4.4-5.5C404.8,189.4,404.7,188.7,404.6,187.9z"/>
	<path class="st0" d="M436.6,292.6c-2.7,2.2-5.3,4.3-8.2,6.6c-1.5-1.6-0.7-4.1-2.6-5.1l0,0c-1.1-1.4-2.3-2.8-3.4-4.2
		c-0.1-0.2-0.3-0.5-0.4-0.7c-0.2-0.3-0.3-0.5-0.5-0.8l0,0c0-0.7-0.1-1.4-0.7-1.9c0.1-0.2,0.1-0.4-0.1-0.6c1.4-6,3-6.9,8.6-4.3
		c1.3,0.6,2.3,0.6,3.5,0c2-1.1,4.1-1.8,6.2,0c2.2,1.9,2.1,4.3,1.2,6.9c-0.2,0.2-0.3,0.5-0.2,0.8
		C438.8,290.3,437.7,291.4,436.6,292.6C436.6,292.6,436.6,292.6,436.6,292.6z"/>
	<path class="st0" d="M364.5,91.7c0.2-0.2,0.3-0.4,0.2-0.6c1.6-1.4,3.2-2.8,5.4-2.6c2.6,0.2,3.3-1.4,3.8-3.4l0,0
		c0.3-0.3,0.6-0.6,0.9-0.9l0,0c0.7-0.1,1.3-0.3,1.7-0.9l0,0c5.5,0.3,6.3,1.2,6.8,8.4c-0.1,0.5-0.2,1.1-0.3,1.6
		c-1.2,3.6-2.3,7.3-3.5,11c-1.5-1-2.1-2.8-3.9-2.7l0,0c-1.2-1.6-3.2-1.4-4.8-2C367.1,98.2,363.9,96.4,364.5,91.7z"/>
	<path class="st0" d="M226.4,242.6c3.4,2.6,3.6,5.5,1,8.9c-2.8,3.9-6.5,6.7-10.6,9.8c-0.6-4-3.4-6.4-5.4-9.3
		c-1.8-2.6-3.3-5.4-0.8-8.3c2.4-2.8,5-1.6,7.4,0c2.3,1.4,3.5-0.5,5.1-1.4C224.3,242.4,225.3,242.5,226.4,242.6z"/>
	<path class="st0" d="M513.3,261.5c0.1-0.4,0.3-0.9,0.4-1.3c2.4-2.2,4.9-2.4,7.6-0.5c1.1,0.7,2.1,1.3,3.4,0.3c2.9-2.1,5.5-1.1,8,0.9
		l0,0c0.2,1.9,0.7,3.8-0.5,5.6c-3,4.6-6.9,8.3-12,10.6c0.1-0.2,0-0.3-0.2-0.4c-0.3-3.8-3-6.1-5.6-8.4l0,0c-0.2-0.4-0.5-0.8-0.7-1.2
		c-0.1-0.4-0.2-0.9-0.3-1.3C513.3,264.4,513.3,263,513.3,261.5z"/>
	<path class="st0" d="M493.4,319.3c0.1-2-1.4-3.2-2.5-4.6c-1.4-1.7-2.8-3.5-3.2-5.8c-0.3-1.7-0.2-3.4,1.3-4.6
		c1.4-1.1,3.1-1.4,4.7-0.5c2.1,1.3,4,1.5,6.1,0c1.6-1.1,3.2-0.2,4.5,1c1.8,1.5,1.6,3.4,0.9,5.4c-1.3,3.3-4.2,5.1-6.4,7.6l0,0.1
		c-1.6,0.6-2.8,1.6-3.9,2.9l-0.3-0.1l-0.2,0.2c-0.2-0.2-0.4-0.2-0.6-0.1C493.6,320.3,493.5,319.8,493.4,319.3z"/>
	<path class="st0" d="M137.2,190.7c1.2,2.5,0.6,4.5-1.5,6.2c-0.2-0.1-0.4,0-0.4,0.3c-0.4,0.2-0.7,0.4-1.1,0.6l0-0.1
		c-3.2,0.1-6.3,1.6-9.6,0.6l0-0.3c0-2.5,0-5,0.1-7.5c0.1-0.5,0.2-1,0.3-1.6c2.5-4.5,3.4-4.6,7.4-1.1l0,0.3c0.4,2.4,2,2.6,3.9,2.1
		C136.5,190.3,136.9,190.5,137.2,190.7z"/>
	<path class="st0" d="M269.9,128.3c-1.4-0.4-3,0.7-4.2-0.6c0-3.1,0.1-6.1,0.1-9.2c0.1-0.5,0.3-1,0.4-1.5c1.2-1.4,2.8-2,4.6-1.9
		c0.1,0.2,0.3,0.3,0.5,0.2c0.4,0.3,0.8,0.6,1.1,0.9l-0.1,0c0.5,1.7,1,3.5,3.5,3.1c0.5,0.2,1,0.3,1.6,0.5c1.9,1.9,1.8,4,0.5,6.2
		c-0.2-0.1-0.3,0-0.4,0.2c-0.4,0.2-0.8,0.4-1.2,0.7l-0.3,0l-0.2,0.2c-0.7-0.1-1.4,0-1.8,0.7l-0.4,0l-0.3,0.2
		C272.2,127.6,271,127.6,269.9,128.3z"/>
	<path class="st0" d="M222.6,344.5c1.3-1.3,2.5-2.8,4.6-2.3c0.3,0.2,0.6,0.4,0.9,0.6c0.3,0.3,0.6,0.6,0.9,0.9l0,0
		c0.3,0.3,0.5,0.6,0.8,0.9l-0.1,0c0,1.2,0.8,1.6,1.8,1.9c2.1,0.6,4.3,1.4,4,4c-0.2,2.6-2.5,3.4-4.7,4c-0.6,0.2-1.3,0.4-1.9,0.6
		c-0.5,0.1-1.1,0.2-1.6,0.3c-1.6-0.1-3.3-0.1-4.9-0.2l0.1,0.1c-0.1-3-0.2-6.1-0.3-9.1C222.3,345.6,222.5,345,222.6,344.5z"/>
	<path class="st0" d="M218.1,305.9c-1.6,0.4-3.1,1.1-4.3,2.4c-5.9,2.7-11.7,5.5-18.4,8.6c3.7-8.2,2.2-15-3.2-21
		c-2.3-5-5.5-9.7-6.4-15.3c-0.7-4.6,0.2-8.9,2.7-12.7c4.5-6.8,11-7.9,17.6-3.2c0.2,0.2,0.5,0.3,0.7,0.5c4.6,5,8.9,8.6,16.7,4.4
		c4.6-2.5,10.2,0.3,13.5,5c3.4,4.8,3.2,10,0.6,15c-3.2,6.4-9,10.1-14.8,13.7C221.2,304.1,219.6,305,218.1,305.9z"/>
	<path class="st0" d="M393.6,195.3c-5.6,3.3-11.1,6.9-17,9.7c-5.8,2.7-11.5,5.7-17.4,8.6c-0.1-0.5-0.4-0.9-0.3-1.1
		c2.8-7.4,0.5-13.7-4-19.8c-4.9-6.8-8.1-14.3-5.6-23.1c2.8-10.2,12.8-14,20.6-6.9c5.2,4.7,9,7.8,16.4,3.9c4.4-2.3,9.5,0.4,12.9,4.6
		c3.6,4.3,3.7,9.1,1.8,14.2C399.5,189.3,396.3,192,393.6,195.3C393.7,195.2,393.6,195.3,393.6,195.3z"/>
	<path class="st0" d="M339.9,144.1c5.1-5.3,4.8-10.8,3.3-16.8c-1.4-5.4-2.2-10.9,0.3-16.4c2.1-4.6,5.2-8.1,10.5-8.3
		c5-0.2,8.4,2.8,10.1,7.3c1.6,4.3,3.7,6.8,9.1,6c4.5-0.7,8.7,2.7,10.2,7.1c1.6,4.7,0,8.8-3.3,12.2c-1.8,1.9-4.2,3.3-6.6,4.3
		C368.4,141.6,346.5,144.7,339.9,144.1z"/>
	<path class="st0" d="M308.6,327.6c0-0.7-0.3-1.3-0.9-1.6c-1.4-6.4,1-9.1,6.7-7.5c1.5,1.8,3.2,1.8,5.2,0.7c2.1-1.2,4.4-1.2,6,0.9
		c1.8,2.3,1.6,4.8-0.1,6.9c-2.6,3.3-5.7,6.1-9.1,8.6c-1,0.8-2.2,1.6-2.8-0.5C312.9,332,310.5,329.9,308.6,327.6z"/>
	<path class="st0" d="M503.6,236.4c-0.2-0.3-0.5-0.6-0.7-0.9c-2.9-10.1,0.3-14.9,11.8-16.4c3-0.4,4-1.6,4.5-4.3
		c1.3-6.6,5.2-10.1,10.8-10.3c5.5-0.1,10.2,3.7,11.9,9.8c1.9,6.7,1,13.5,0,20.3c-0.8,5.6-1.8,11.1-3,18.1c-4.5-7.9-11.2-7.9-18-8.1
		c-4.4-0.1-8.4-1.7-12.4-3.3C506.9,239.7,505.3,238,503.6,236.4z"/>
	<path class="st0" d="M102.7,157.5c-4.8-1.9-8.7-0.3-12.6,1.2c-2.1,0.8-4.3,0.9-6.5,0.1c-2.4-0.8-4.4-2.1-5-4.5
		c-0.7-2.6,0.9-4.6,2.9-6c2.2-1.5,3.2-3.1,2.7-5.9c-0.5-2.9,0.7-5.4,3.6-6.3c3.1-1,5.7,0,7.7,2.6
		C99.4,144.2,100.6,150.6,102.7,157.5z"/>
	<path class="st0" d="M412.3,334.1c0-1.7,0-2.8,0-3.9c0.1-2,1.4-3.3,3.1-4.1c1.8-0.8,2.9,0.7,3.6,2c0.9,1.5,2.1,2,3.7,2.3
		c1.5,0.3,2.5,1.3,2.8,2.8c0.3,1.7-0.7,2.9-2,3.8c-2.9,1.9-6.4,2.4-9.5,2.1C410.4,338.7,413.4,335.3,412.3,334.1z"/>
	<path class="st0" d="M121.1,332.7c-0.3-0.3-0.5-0.6-0.8-0.9c1.8-1.9,4.8-0.5,6.7-2.4c3.3-0.9,4.5-3.9,6.3-6.3c1-1.2,2-2.4,3-3.6
		c2.6-1.6,4.9-3.5,7.9-4.5c4.1-1.3,7.6-0.8,10.7,2.2c3.1,3,2.7,6.4,1.4,10c-0.5,1.4-1.1,2.8-1.8,4.2c-0.9,1.6-0.9,2.9,0.9,3.8
		c4.2,5.1,4.8,9.5,1.8,13.6c-2.8,3.8-7.9,4.6-13.7,2.5c-5.3-1.9-8.7-6.4-13.1-9.5c-0.9-1.4-2.1-2.4-3.4-3.3
		C125.4,336.1,123.2,334.5,121.1,332.7z"/>
</g>
<g>
	<path class="st1" d="M668.5,204.9c0.6,0.8,0.9,1.8,0.9,3c0,3.1-2.5,5.8-5.7,5.8c-2,0-3.8-1.1-4.9-2.7l-11.4-16.6h-7.5v12.8
		c0,3.6-2.9,6.6-6.6,6.6c-3.6,0-6.6-3-6.6-6.6v-42.2c0-4.3,2.5-6.7,6.7-6.7h15.9c12.6,0,20.7,6.7,20.7,17.9
		c0,7.8-3.8,13.5-10.4,16.2L668.5,204.9z M639.8,169.4V183h8.4c6.3,0,8.7-2.2,8.7-6.8s-2.4-6.7-8.8-6.7L639.8,169.4L639.8,169.4z"/>
	<path class="st1" d="M674.5,193c0-11.4,8.1-21,20.3-21c12.3,0,20.1,8.1,20.2,18.8c0,3.2-1.9,5.1-5.3,5.1h-22.7
		c0.3,4.6,4.9,7.9,11.2,7.9c2.5,0,5.6-0.4,8.8-1.3c2.9-0.8,5.7,1.4,5.7,4.4c0,1.8-1.1,3.5-2.7,4.2c-5.4,2.4-10.5,2.5-12.9,2.5
		C684.3,213.6,674.5,205.5,674.5,193z M702.8,188.1c-0.5-3.8-3.6-6.4-7.8-6.4c-4,0-7.3,2.6-8,6.4H702.8z"/>
	<path class="st1" d="M718.8,192.8c0-12.4,9.2-20.9,21.5-20.9c2.9,0,5.6,0.4,8.2,1.3c2.2,0.6,3.8,2.6,3.8,5.1c0,3.3-3.1,5.9-6.2,5.3
		c-1-0.4-2.4-0.6-3.8-0.6c-6.1,0-11,3.1-11,9.9c0,6.7,4.8,9.9,11,9.9c1.4,0,2.6-0.2,3.8-0.6c3.1-0.9,6.2,1.8,6.2,5.3
		c0,2.4-1.7,4.4-3.8,5c-2.6,1-5.3,1.3-8.2,1.3C728,213.7,718.8,205.3,718.8,192.8z"/>
	<path class="st1" d="M755.9,192.7c0-11.4,9.3-20.9,21.7-20.9c12.3,0,21.6,9.6,21.6,20.9c0,12.1-9.7,20.9-21.8,20.9
		C765.5,213.7,755.9,204.6,755.9,192.7z M786.7,192.7c0-5.7-3.8-9.8-9.3-9.8c-5.4,0-9,4.2-9,9.8c0,5.9,3.7,9.9,9.2,9.9
		C783,202.6,786.7,198.7,786.7,192.7z"/>
	<path class="st1" d="M805,207.4v-29c0-3.5,2.7-6.4,6.2-6.4c3.1,0,5.6,2.4,6.2,5.3v1.6c2.6-4.1,6.8-6.8,12-6.8
		c9.9,0,15.3,6.7,15.3,16.7v18.7c0,3.4-2.8,6.3-6.3,6.3c-3.4,0-6.2-2.9-6.2-6.3v-16.3c0-6-2.8-8.7-7.1-8.7c-4.5,0-7.7,2.9-7.7,8.9
		v16.1c0,3.4-2.7,6.3-6.2,6.3C807.7,213.7,805,210.8,805,207.4z"/>
	<path class="st1" d="M849.7,192.8c0-12.4,9.2-20.9,21.5-20.9c2.9,0,5.6,0.4,8.2,1.3c2.2,0.6,3.8,2.6,3.8,5.1c0,3.3-3.1,5.9-6.2,5.3
		c-1-0.4-2.4-0.6-3.8-0.6c-6.1,0-11,3.1-11,9.9c0,6.7,4.8,9.9,11,9.9c1.4,0,2.6-0.2,3.8-0.6c3.1-0.9,6.2,1.8,6.2,5.3
		c0,2.4-1.7,4.4-3.8,5c-2.6,1-5.3,1.3-8.2,1.3C858.9,213.7,849.7,205.3,849.7,192.8z"/>
	<path class="st1" d="M887.7,163.1c0-3.6,2.9-6.2,6.9-6.2c4.1,0,6.9,2.7,6.9,6.2s-2.8,6-6.9,6C890.6,169.2,887.7,166.6,887.7,163.1z
		 M888.4,207.4v-29.1c0-3.4,2.8-6.3,6.3-6.3c3.4,0,6.2,2.9,6.2,6.3v29.1c0,3.4-2.8,6.3-6.3,6.3C891.2,213.7,888.4,210.8,888.4,207.4
		z"/>
	<path class="st1" d="M908.2,207.4v-44.1c0-3.4,2.7-6.3,6.2-6.3c3.5,0,6.2,2.9,6.2,6.3v44.1c0,3.4-2.7,6.3-6.2,6.3
		C910.9,213.7,908.2,210.8,908.2,207.4z"/>
	<path class="st1" d="M927.2,163.1c0-3.6,2.9-6.2,6.9-6.2c4.1,0,6.9,2.7,6.9,6.2s-2.8,6-6.9,6C930.1,169.2,927.2,166.6,927.2,163.1z
		 M927.9,207.4v-29.1c0-3.4,2.8-6.3,6.3-6.3c3.4,0,6.2,2.9,6.2,6.3v29.1c0,3.4-2.8,6.3-6.3,6.3C930.7,213.7,927.9,210.8,927.9,207.4
		z"/>
	<path class="st1" d="M946,200.9c0-8.1,6.3-12.8,15.1-12.8c4.1,0,7.9,1.1,10.2,2.6v-2.3c0-3.4-2.3-5.5-6.4-6
		c-2.9-0.6-6.6-0.2-10.2,0.6c-2.8,0.7-5.9-1.5-5.9-4.6c0-2.1,1.5-3.9,3.4-4.5c3.8-1.3,8.1-2.1,12.4-2.1c12.7,0,19,5.5,19,16.5v18.3
		c0,3.9-2.5,6.9-6.2,6.9c-2.8,0-5.3-1.8-6.2-4.5v-0.3c-2.6,2.7-6.5,4.7-11.4,4.7C952,213.7,946,208.9,946,200.9z M971.7,200.3
		c0-3.2-3.7-4.6-6.7-4.6c-3.2,0-6.5,1.4-6.5,4.6c0,3.1,3.2,4.6,6.5,4.6C968.1,204.8,971.7,203.3,971.7,200.3z"/>
	<path class="st1" d="M1010.2,213.4c-5.4,0.7-9.5,0.3-12.3-1.7c-3.2-2.3-4.7-6.3-4.7-12.6v-15.4h-1.2c-2.7,0-4.9-2.5-4.9-5.3
		c0-2.8,2.3-5.3,5-5.3h1.1v-5c0-3.4,2.8-6.3,6.3-6.3c3.4,0,6.2,2.9,6.2,6.3v5h2.5c2.9,0,5.3,2.4,5.3,5.3s-2.4,5.3-5.3,5.3h-2.5v14.1
		c0,2.2,0.5,3.5,1.5,4.2c0.7,0.6,1.7,0.7,2.8,0.6c2.7,0.2,5,2.5,5,5.4C1014.9,210.8,1012.8,213.1,1010.2,213.4z"/>
	<path class="st1" d="M1019,163.1c0-3.6,2.9-6.2,6.9-6.2c4.1,0,6.9,2.7,6.9,6.2s-2.8,6-6.9,6C1021.9,169.2,1019,166.6,1019,163.1z
		 M1019.7,207.4v-29.1c0-3.4,2.8-6.3,6.3-6.3c3.4,0,6.2,2.9,6.2,6.3v29.1c0,3.4-2.8,6.3-6.3,6.3
		C1022.5,213.7,1019.7,210.8,1019.7,207.4z"/>
	<path class="st1" d="M1038,192.7c0-11.4,9.3-20.9,21.7-20.9c12.3,0,21.6,9.6,21.6,20.9c0,12.1-9.7,20.9-21.8,20.9
		C1047.6,213.7,1038,204.6,1038,192.7z M1068.8,192.7c0-5.7-3.8-9.8-9.3-9.8c-5.4,0-9,4.2-9,9.8c0,5.9,3.7,9.9,9.2,9.9
		C1065.2,202.6,1068.8,198.7,1068.8,192.7z"/>
	<path class="st1" d="M1087.1,207.4v-29c0-3.5,2.7-6.4,6.2-6.4c3.1,0,5.6,2.4,6.2,5.3v1.6c2.6-4.1,6.8-6.8,12-6.8
		c9.9,0,15.3,6.7,15.3,16.7v18.7c0,3.4-2.8,6.3-6.3,6.3c-3.4,0-6.2-2.9-6.2-6.3v-16.3c0-6-2.8-8.7-7.1-8.7c-4.5,0-7.7,2.9-7.7,8.9
		v16.1c0,3.4-2.7,6.3-6.2,6.3C1089.8,213.7,1087.1,210.8,1087.1,207.4z"/>
	<path class="st1" d="M626.9,310c0.6,0.8,0.9,1.8,0.9,3c0,3.1-2.5,5.8-5.7,5.8c-2,0-3.8-1.1-4.9-2.7l-11.4-16.6h-7.5v12.8
		c0,3.6-2.9,6.6-6.6,6.6c-3.6,0-6.6-3-6.6-6.6V270c0-4.3,2.5-6.7,6.7-6.7h15.9c12.6,0,20.7,6.7,20.7,17.9c0,7.8-3.8,13.5-10.4,16.2
		L626.9,310z M598.3,274.5v13.6h8.4c6.3,0,8.7-2.2,8.7-6.8c0-4.6-2.4-6.7-8.8-6.7L598.3,274.5L598.3,274.5z"/>
	<path class="st1" d="M633.3,297.8c0-11.4,9.3-20.9,21.7-20.9c12.3,0,21.6,9.5,21.6,20.9c0,12.1-9.7,20.9-21.8,20.9
		C642.8,318.8,633.3,309.7,633.3,297.8z M664.1,297.8c0-5.7-3.8-9.8-9.3-9.8c-5.4,0-9,4.2-9,9.8c0,5.9,3.7,9.9,9.2,9.9
		C660.4,307.7,664.1,303.8,664.1,297.8z"/>
	<path class="st1" d="M680.7,306c0-8.1,6.3-12.8,15.1-12.8c4.1,0,7.9,1,10.2,2.6v-2.3c0-3.4-2.3-5.5-6.4-6
		c-2.9-0.6-6.6-0.2-10.2,0.6c-2.8,0.7-5.9-1.5-5.9-4.5c0-2.1,1.5-3.9,3.4-4.5c3.8-1.3,8.1-2.1,12.4-2.1c12.7,0,19,5.5,19,16.5v18.3
		c0,3.9-2.5,6.9-6.2,6.9c-2.8,0-5.3-1.8-6.2-4.5V314c-2.6,2.7-6.5,4.7-11.4,4.7C686.7,318.8,680.7,314,680.7,306z M706.4,305.4
		c0-3.2-3.7-4.6-6.7-4.6c-3.2,0-6.5,1.4-6.5,4.5s3.2,4.6,6.5,4.6C702.8,309.9,706.4,308.4,706.4,305.4z"/>
	<path class="st1" d="M754.2,314v-1.3c-3,3.5-7.5,6-13.2,6c-10.1,0-18.2-8.7-18.2-21.2c0-12.9,8.7-20.7,18.2-20.7
		c5.7,0,10.1,2.5,13.2,6.3v-14.9c0-3.4,2.7-6.3,6.2-6.3c3.5,0,6.2,2.9,6.2,6.3v44.1c0,3.4-2.7,6.3-6.2,6.3
		C757.6,318.8,755,316.9,754.2,314z M754.2,302.3v-9.5c-1.7-3.7-5.3-5.9-9-5.9c-6.1,0-9.9,4.5-9.9,10.7c0,6.2,3.7,10.7,9.9,10.7
		C749,308.3,752.5,306.3,754.2,302.3z"/>
	<path class="st1" d="M789.5,290.3c0-16.4,11.8-28.3,29.2-28.3c3.7,0,8.1,0.8,12.2,2.5c1.9,0.8,3.4,2.6,3.4,4.9c0,3-2.5,5.4-5.4,5.4
		c-0.6,0-1.1-0.1-1.7-0.4c-2.8-1-5.6-1.5-7.9-1.5c-9.7,0-16.6,6.7-16.6,17.3s6.9,17.3,16.6,17.3c2.3,0,5.1-0.4,7.9-1.5
		c0.5-0.3,1-0.2,1.7-0.2c3,0,5.3,2.4,5.3,5.3c0,2.2-1.4,4.1-3.3,4.9c-4,1.8-8.5,2.5-12.2,2.5C801.2,318.8,789.5,306.8,789.5,290.3z"
		/>
	<path class="st1" d="M839.9,312.5v-44.1c0-3.4,2.7-6.3,6.2-6.3c3.5,0,6.2,2.9,6.2,6.3v15.5c2.6-4,6.8-6.8,12.1-6.8
		c9.8,0,15.3,6.7,15.3,16.8v18.7c0,3.4-2.8,6.3-6.3,6.3c-3.4,0-6.2-2.9-6.2-6.3v-14.5c0-6-2.9-9.4-7.2-9.4c-4.5,0-7.7,3.6-7.7,9.5
		v14.4c0,3.4-2.7,6.3-6.2,6.3C842.6,318.8,839.9,315.9,839.9,312.5z"/>
	<path class="st1" d="M884.9,306c0-8.1,6.3-12.8,15.1-12.8c4.1,0,7.9,1,10.2,2.6v-2.3c0-3.4-2.3-5.5-6.4-6
		c-2.9-0.6-6.6-0.2-10.2,0.6c-2.8,0.7-5.9-1.5-5.9-4.5c0-2.1,1.5-3.9,3.4-4.5c3.8-1.3,8.1-2.1,12.4-2.1c12.7,0,19,5.5,19,16.5v18.3
		c0,3.9-2.5,6.9-6.2,6.9c-2.8,0-5.3-1.8-6.2-4.5V314c-2.6,2.7-6.5,4.7-11.4,4.7C891,318.8,884.9,314,884.9,306z M910.7,305.4
		c0-3.2-3.7-4.6-6.7-4.6c-3.2,0-6.5,1.4-6.5,4.5s3.2,4.6,6.5,4.6C907.1,309.9,910.7,308.4,910.7,305.4z"/>
	<path class="st1" d="M929.1,312.5v-44.1c0-3.4,2.7-6.3,6.2-6.3c3.5,0,6.2,2.9,6.2,6.3v44.1c0,3.4-2.7,6.3-6.2,6.3
		C931.8,318.8,929.1,315.9,929.1,312.5z"/>
	<path class="st1" d="M948.7,312.5v-44.1c0-3.4,2.7-6.3,6.2-6.3c3.5,0,6.2,2.9,6.2,6.3v44.1c0,3.4-2.7,6.3-6.2,6.3
		C951.4,318.8,948.7,315.9,948.7,312.5z"/>
	<path class="st1" d="M966.4,298.1c0-11.4,8.1-21,20.3-21c12.3,0,20.1,8.1,20.2,18.8c0,3.2-1.9,5.1-5.3,5.1H979
		c0.3,4.6,4.9,7.9,11.2,7.9c2.5,0,5.6-0.4,8.8-1.3c2.9-0.8,5.7,1.4,5.7,4.4c0,1.8-1.1,3.5-2.7,4.2c-5.4,2.4-10.5,2.5-12.9,2.5
		C976.2,318.7,966.4,310.6,966.4,298.1z M994.8,293.2c-0.5-3.8-3.6-6.4-7.8-6.4c-4,0-7.3,2.6-8,6.4H994.8z"/>
	<path class="st1" d="M1012.4,312.5v-29c0-3.5,2.7-6.4,6.2-6.4c3.1,0,5.6,2.4,6.2,5.3v1.6c2.6-4.1,6.8-6.8,12-6.8
		c9.9,0,15.3,6.7,15.3,16.7v18.7c0,3.4-2.8,6.3-6.3,6.3c-3.4,0-6.2-2.9-6.2-6.3v-16.3c0-6-2.8-8.7-7.1-8.7c-4.5,0-7.7,2.9-7.7,8.9
		v16.1c0,3.4-2.7,6.3-6.2,6.3C1015.1,318.8,1012.4,315.9,1012.4,312.5z"/>
	<path class="st1" d="M1063.6,329.2c-1.9-0.7-3.3-2.5-3.3-4.6c0-3.6,3.6-6,6.7-4.7c2.9,1.2,6,1.9,9,1.9c7.2,0,11.3-3,11.3-9.1v-2
		c-2.9,3-7,5.3-12.7,5.3c-9.6,0-17.5-8.1-17.5-19.7c0-11.9,8.4-19.1,17.6-19.1c5.6,0,9.6,1.9,12.6,5.3l0.2-0.7
		c0.9-2.5,3.4-4.2,6.1-4.2c3.4,0,6.2,2.9,6.2,6.3V309c0,15.1-6.2,23-21.6,23C1073.6,331.9,1068.3,331,1063.6,329.2z M1087.3,300.6
		v-8.6c-1.6-3.5-4.9-5.4-8.5-5.4c-5.6,0-9.3,3.9-9.3,9.5c0,5.9,3.7,10.1,9.3,10.1C1082.4,306.3,1085.7,304.2,1087.3,300.6z"/>
	<path class="st1" d="M1105.2,298.1c0-11.4,8.1-21,20.3-21c12.3,0,20.1,8.1,20.2,18.8c0,3.2-1.9,5.1-5.3,5.1h-22.7
		c0.3,4.6,4.9,7.9,11.2,7.9c2.4,0,5.6-0.4,8.8-1.3c2.9-0.8,5.7,1.4,5.7,4.4c0,1.8-1.1,3.5-2.7,4.2c-5.4,2.4-10.5,2.5-12.9,2.5
		C1115,318.7,1105.2,310.6,1105.2,298.1z M1133.6,293.2c-0.5-3.8-3.6-6.4-7.8-6.4c-4,0-7.3,2.6-8,6.4H1133.6z"/>
</g>
<line class="st2" x1="1240.9" y1="110.2" x2="1240.9" y2="468.9"/>
<g>
	<path d="M466.9,408.7c0.1-12.4,9.6-22,21.9-22c3.9,0,7.6,1,10.9,2.7c0.8,0.4,1.4,1.3,1.4,2.3c0,1.4-1.2,2.6-2.6,2.6
		c-0.4,0-0.8-0.1-1.2-0.3c-2.4-1.2-5.1-1.9-8.4-1.9c-9.3,0-15.9,7-16,16.7c0.1,9.8,6.7,16.7,16,16.7c3.3,0,6-0.6,8.4-1.8
		c0.3-0.2,0.8-0.3,1.2-0.3c1.4,0,2.6,1.2,2.6,2.6c0,1-0.6,1.8-1.4,2.3c-3.3,1.7-7,2.7-10.9,2.7C476.4,431,466.9,421.3,466.9,408.7z"
		/>
	<path d="M505.9,414.7c0-9.1,7.2-16.3,16.3-16.3c9.1,0,16.3,7.2,16.3,16.3c0,9.2-7.2,16.3-16.4,16.3
		C513.1,431,505.9,423.9,505.9,414.7z M533,414.7c0-6.5-4.5-11.1-10.9-11.1s-10.7,4.5-10.7,11.1c0,6.6,4.4,11.1,10.8,11.1
		C528.7,425.8,533,421.4,533,414.7z"/>
	<path d="M544.7,428.2v-26.9c0-1.5,1.2-2.8,2.7-2.8c1.6,0,2.8,1.3,2.8,2.8v2.4c2-2.7,4.7-5.2,9.6-5.2s8.5,2.6,10.3,5.8
		c2.6-3.9,6.2-5.8,10.7-5.8c7.2,0,12,4.9,12,12.5v17.2c0,1.5-1.2,2.8-2.8,2.8c-1.5,0-2.7-1.3-2.7-2.8v-15.5c0-5.7-2.7-9-7.6-9
		c-4.8,0-8.1,3.8-8.1,9.2v15.3c0,1.5-1.2,2.8-2.8,2.8c-1.5,0-2.7-1.3-2.7-2.8v-15.6c0-5.5-2.9-8.9-7.7-8.9s-8.2,4-8.2,9.4v15.1
		c0,1.5-1.2,2.8-2.7,2.8C545.9,431,544.7,429.7,544.7,428.2z"/>
	<path d="M600.6,428.2v-26.9c0-1.5,1.2-2.8,2.7-2.8c1.6,0,2.8,1.3,2.8,2.8v2.4c2-2.7,4.7-5.2,9.6-5.2s8.5,2.6,10.3,5.8
		c2.6-3.9,6.2-5.8,10.7-5.8c7.2,0,12,4.9,12,12.5v17.2c0,1.5-1.2,2.8-2.8,2.8c-1.5,0-2.7-1.3-2.7-2.8v-15.5c0-5.7-2.7-9-7.6-9
		c-4.8,0-8.1,3.8-8.1,9.2v15.3c0,1.5-1.2,2.8-2.8,2.8c-1.5,0-2.7-1.3-2.7-2.8v-15.6c0-5.5-2.9-8.9-7.7-8.9s-8.2,4-8.2,9.4v15.1
		c0,1.5-1.2,2.8-2.7,2.8C601.9,431,600.6,429.7,600.6,428.2z"/>
	<path d="M656.8,418.6v-17.3c0-1.5,1.2-2.8,2.8-2.8c1.5,0,2.7,1.3,2.7,2.8v15.6c0,5.6,3,9,8.1,9c5.3,0,8.9-3.8,8.9-9.3v-15.2
		c0-1.5,1.2-2.8,2.8-2.8c1.5,0,2.7,1.3,2.7,2.8v26.9c0,1.5-1.2,2.8-2.7,2.8c-1.6,0-2.8-1.3-2.8-2.8v-2.5c-2.5,3.5-5.8,5.3-10.2,5.3
		C661.8,431,656.8,425.9,656.8,418.6z"/>
	<path d="M692.8,428.2v-26.9c0-1.5,1.2-2.8,2.7-2.8c1.6,0,2.8,1.3,2.8,2.8v2.5c2.5-3.5,5.8-5.3,10.2-5.3c7.4,0,12.4,5.1,12.4,12.4
		v17.3c0,1.5-1.2,2.8-2.8,2.8c-1.5,0-2.7-1.3-2.7-2.8v-15.6c0-5.6-3-9-8.1-9c-5.3,0-8.9,3.8-8.9,9.3v15.2c0,1.5-1.2,2.8-2.8,2.8
		C694,431,692.8,429.7,692.8,428.2z"/>
	<path d="M728.3,428.2v-26.9c0-1.5,1.2-2.8,2.8-2.8c1.5,0,2.7,1.3,2.7,2.8v26.9c0,1.5-1.2,2.8-2.8,2.8
		C729.5,431,728.3,429.7,728.3,428.2z"/>
	<path d="M753.9,430.5c-3.3,0.8-6,0.5-7.8-0.7c-2-1.6-3-4.2-3-8v-17.2h-1.8c-1.4,0-2.6-1.2-2.6-2.6c0-1.4,1.2-2.6,2.6-2.6h1.8v-5.1
		c0-1.5,1.2-2.8,2.8-2.8c1.5,0,2.7,1.3,2.7,2.8v5.1h2.8c1.4,0,2.6,1.2,2.6,2.6s-1.2,2.6-2.6,2.6h-2.8v16.9c0,1.8,0.3,3,1,3.5
		c0.8,0.7,1.9,0.8,3.3,0.5c1.5-0.3,2.9,1,2.9,2.5C755.8,429.2,755,430.3,753.9,430.5z"/>
	<path d="M765.5,438.5c0-0.2,0-0.6,0.1-1l3.6-9.8l-9.8-25.5c-0.1-0.3-0.2-0.6-0.2-1c0-1.5,1.3-2.7,2.8-2.7c1.2,0,2.1,0.8,2.5,1.8
		l7.7,20.6l7.7-20.6c0.4-1,1.4-1.8,2.5-1.8c1.5,0,2.7,1.2,2.7,2.7c0,0.4,0,0.8-0.1,1l-14.3,37.2c-0.4,1-1.4,1.8-2.6,1.8
		C766.7,441.3,765.5,440,765.5,438.5z"/>
	<path d="M803.6,414.7c0-9.1,7.2-16.3,16.3-16.3c9.1,0,16.3,7.2,16.3,16.3c0,9.2-7.2,16.3-16.4,16.3
		C810.8,431,803.6,423.9,803.6,414.7z M830.7,414.7c0-6.5-4.5-11.1-10.9-11.1s-10.7,4.5-10.7,11.1c0,6.6,4.4,11.1,10.8,11.1
		C826.4,425.8,830.7,421.4,830.7,414.7z"/>
	<path d="M842.9,428.2v-23.6h-2.2c-1.4,0-2.6-1.2-2.6-2.6c0-1.4,1.2-2.6,2.6-2.6h2.2v-2.9c0-3.5,0.8-6.1,2.4-7.7
		c1.4-1.4,3.4-2.1,5.9-2.1c2,0,3.2,0.6,3.2,2.7c0,1.6-1.4,2.6-3.1,2.6c-1,0-1.6,0.2-2.1,0.8c-0.5,0.6-0.8,1.8-0.8,3.5v3.1h3.4
		c1.4,0,2.6,1.2,2.6,2.6s-1.2,2.6-2.6,2.6h-3.4v23.6c0,1.5-1.2,2.8-2.7,2.8C844.1,431,842.9,429.7,842.9,428.2z"/>
	<path d="M875.5,430c-1.8,0-2.8-1-2.8-2.8v-36.8c0-1.8,1-2.8,2.8-2.8h14.2c8.5,0,14,4.6,14,12c0,4-3.3,7.6-5.5,8.8
		c3.3,1.2,6.9,5.2,6.9,9.6c0,7.4-5.5,12-14.1,12L875.5,430L875.5,430z M878.7,406.1h11c5.2,0,8-2.3,8-6.5c0-4.1-2.9-6.6-8-6.6h-11
		V406.1z M878.7,424.6h12.4c5.1,0,7.9-2.5,7.9-6.6c0-4.1-2.9-6.4-7.9-6.4h-12.4V424.6z"/>
	<path d="M911.1,428.2v-26.9c0-1.5,1.2-2.8,2.8-2.8c1.5,0,2.7,1.3,2.7,2.8v26.9c0,1.5-1.2,2.8-2.8,2.8
		C912.3,431,911.1,429.7,911.1,428.2z"/>
	<path d="M926.4,438.6c-0.8-0.4-1.4-1.2-1.4-2.2c0-1.8,1.8-3.1,3.5-2.3c2.9,1.4,5.6,1.9,8.4,1.9c6.2,0,9.5-2.7,9.5-9.4v-1.4
		c-2.7,2.7-5.9,4-9.6,4c-8.2,0-14.5-6.8-14.5-15.5c0-9.6,7.4-15.2,14.5-15.2c3.6,0,6.8,1.4,9.6,4.2v-0.8c0-1.5,1.2-2.8,2.8-2.8
		c1.5,0,2.7,1.3,2.7,2.8v24.5c0,9.6-5.4,14.8-15,14.8C933.2,441.3,929.6,440.1,926.4,438.6z M946.4,418.1v-8.5
		c-1.7-3.5-5.2-5.9-8.8-5.9c-5.7,0-9.8,4-9.8,10c0,6.2,4,10.3,9.8,10.3C941.3,424,944.7,421.6,946.4,418.1z"/>
	<path d="M974.5,428v-38.3c0-1.6,1.4-3,3-3s3,1.4,3,3v15.5h21.9v-15.5c0-1.6,1.4-3,3-3s3,1.4,3,3V428c0,1.6-1.4,3-3,3s-3-1.4-3-3
		v-17.4h-21.9V428c0,1.6-1.4,3-3,3S974.5,429.6,974.5,428z"/>
	<path d="M1015.1,415c0-8.2,5.5-16.5,15.2-16.5c8.9,0,14.3,6.9,14.6,13.9c0,2.1-0.5,3.4-2.7,3.4h-21.5c0.3,6.3,4.6,10,11.3,10
		c2.7,0,5.1-0.5,7.4-1.4c1.6-0.6,3.3,0.5,3.3,2.2c0,0.9-0.5,1.7-1.2,2.1c-2.8,1.6-6,2.3-9.6,2.3C1022.4,431,1015.1,424.1,1015.1,415
		z M1039.4,411.4c-0.3-4.4-4.2-7.7-9.2-7.7c-4.8,0-8.8,3.3-9.3,7.7H1039.4z"/>
	<path d="M1049.3,420.7c0-5.8,5.4-10,12.8-10c3.9,0,7.2,1.2,9.2,3.3v-3.5c0-4.2-3-6.7-8.5-6.7c-2.4,0-4.6,0.5-6.7,1.4
		c-1.4,0.5-3.4-0.5-3.4-2.3c0-1,0.6-1.9,1.6-2.3c2.6-1.1,5.9-2,9.6-2c7.9,0,13,4.4,13,11.5v18.2c0,1.6-1.2,2.8-2.7,2.8
		s-2.8-1.1-2.8-3.1v-0.3c-1.6,1.7-5.2,3.5-9.2,3.5C1054.5,431.1,1049.3,426.8,1049.3,420.7z M1071.4,420.7c0-3.7-4.5-5.4-8.6-5.4
		s-8,1.7-8,5.4c0,3.8,3.9,5.4,8,5.4C1067,426.1,1071.4,424.4,1071.4,420.7z"/>
	<path d="M1084.5,428.2v-26.9c0-1.5,1.2-2.8,2.7-2.8c1.6,0,2.8,1.3,2.8,2.8v1.4c1.4-1.8,3.7-3,6.3-3.4c1.5-0.2,2.9,1,2.9,2.5
		c0,1.4-1.2,2.3-2.6,2.5c-2.9,0.5-6.6,1.8-6.6,5.1v18.9c0,1.5-1.2,2.8-2.7,2.8C1085.8,431,1084.5,429.7,1084.5,428.2z"/>
	<path d="M1117.5,430.5c-3.3,0.8-6,0.5-7.8-0.7c-2.1-1.6-3-4.2-3-8v-17.2h-1.8c-1.4,0-2.6-1.2-2.6-2.6c0-1.4,1.2-2.6,2.6-2.6h1.8
		v-5.1c0-1.5,1.2-2.8,2.8-2.8c1.5,0,2.7,1.3,2.7,2.8v5.1h2.8c1.4,0,2.6,1.2,2.6,2.6s-1.2,2.6-2.6,2.6h-2.8v16.9c0,1.8,0.3,3,1,3.5
		c0.8,0.7,1.9,0.8,3.3,0.5c1.5-0.3,2.9,1,2.9,2.5C1119.4,429.2,1118.6,430.3,1117.5,430.5z"/>
	<path d="M1123.8,428c-0.7-0.5-1.2-1.2-1.2-2.1c0-2.1,2.5-3,3.7-2.2c3.6,2,5.4,2.1,7.7,2.1c3.9,0,6.2-1.6,6.2-4.1
		c0-1.6-1.2-2.9-3.8-3.8l-5.7-1.9c-5.4-1.8-7.8-4.5-7.8-8.7c0-5.2,4.6-8.8,11.1-8.8c3.3,0,6.9,1.2,9.6,2.9c0.8,0.5,1.2,1.2,1.2,2.1
		c0,1.8-1.9,3.1-3.7,2.2c-3.5-1.8-5-2-7-2c-3.5,0-5.6,1.4-5.6,3.6c0,1.5,1,2.3,4.6,3.6l5.7,2c4.5,1.6,7,4.6,7,8.8
		c0,5.4-4.9,9.3-11.8,9.3C1130.3,431,1126.5,429.8,1123.8,428z"/>
</g>
<path class="st0" d="M702,392.4L702,392.4c-0.2-0.4-0.6-0.6-0.7-1c0,0,0-0.1-0.1-0.1c-0.3-0.5-0.3-1-0.2-1.5v0c0,0,0,0,0-0.1v0
	c0,0,0,0,0-0.1v0c0,0,0,0,0-0.1v0c0-0.4,0.2-0.7,0.3-1l0,0c0,0,0-0.1,0-0.1l0,0c0,0,0-0.1,0-0.1v0c0,0,0-0.1,0-0.1c0,0,0,0,0-0.1
	c0,0,0-0.1,0-0.1l0,0c0.1-0.3,0.1-0.7,0.2-1l0,0c0,0,0-0.1,0-0.1l0,0c0,0,0-0.1,0-0.1v0c0,0,0-0.1,0-0.1v0c0-0.1,0-0.3,0-0.4
	c0-0.9-0.2-1.8-0.8-2.6c-0.9-1.1-2.3-1.3-3.3-0.4c-0.6,0.5-0.9,1.1-1.2,1.8c-0.1,0.3-0.3,0.4-0.6,0.3l0,0c0,0-0.1,0-0.1,0h0
	c-0.1,0-0.3,0-0.4-0.1c0,0,0,0-0.1,0c0,0-0.1,0-0.1,0h0c-0.5-0.1-1,0-1.5,0.2c0,0-0.1,0-0.1,0.1c-0.6,0.4-1,0.9-1.2,1.6v0
	c0,0.1,0,0.3-0.1,0.4l0,0c0,0.9,0.4,1.7,1.1,2.3c0.4,0.4,0.9,0.6,1.3,0.9c0.1,0,0.1,0,0.1,0.1c0.2,0,0.4,0.1,0.5,0.2
	c0,0,0.1,0,0.1,0c0.1,0,0.1,0,0.2,0.1l0,0c0.4,0.1,0.8,0.2,1.2,0.3c0.9,0.2,1.8,0.3,2.7,0.5c0.7,0.1,1.3,0.3,2,0.5l0,0
	c0,0,0.1,0,0.1,0l0,0C702,392.4,702,392.4,702,392.4z"/>
<path class="st0" d="M858.3,394.3L858.3,394.3c0.2-0.4,0.6-0.6,0.7-1c0,0,0-0.1,0.1-0.1c0.3-0.5,0.3-1,0.2-1.5v0c0,0,0,0,0-0.1v0
	c0,0,0,0,0-0.1v0c0,0,0,0,0-0.1v0c0-0.4-0.2-0.7-0.3-1l0,0c0,0,0-0.1,0-0.1l0,0c0,0,0-0.1,0-0.1v0c0,0,0-0.1,0-0.1c0,0,0,0,0-0.1
	c0,0,0-0.1,0-0.1l0,0c-0.1-0.3-0.1-0.7-0.2-1l0,0c0,0,0-0.1,0-0.1l0,0c0,0,0-0.1,0-0.1v0c0,0,0-0.1,0-0.1v0c0-0.1,0-0.3,0-0.4
	c0-0.9,0.2-1.8,0.8-2.5c0.9-1.1,2.3-1.3,3.3-0.4c0.6,0.5,0.9,1.1,1.2,1.8c0.1,0.3,0.3,0.4,0.6,0.3l0,0c0,0,0.1,0,0.1,0h0
	c0.1,0,0.3,0,0.4-0.1c0,0,0,0,0.1,0c0,0,0.1,0,0.1,0h0c0.5-0.1,1,0,1.5,0.2c0,0,0.1,0,0.1,0.1c0.6,0.4,1,0.9,1.2,1.6v0
	c0,0.1,0,0.3,0.1,0.4l0,0c0,0.9-0.4,1.7-1.1,2.3c-0.4,0.4-0.9,0.6-1.3,0.9c-0.1,0-0.1,0-0.1,0.1c-0.2,0-0.4,0.1-0.5,0.2
	c0,0-0.1,0-0.1,0c-0.1,0-0.1,0-0.2,0.1l0,0c-0.4,0.1-0.8,0.2-1.2,0.3c-0.9,0.2-1.8,0.3-2.7,0.5c-0.7,0.1-1.3,0.3-2,0.5l0,0
	c0,0-0.1,0-0.1,0l0,0C858.4,394.3,858.4,394.3,858.3,394.3z"/>
<g>
	<g>
		<path class="st3" d="M1561,403.3c-74.9,0-149.7,0-224.6,0c-0.2,0-0.3,0-0.4-0.1c0-74.8,0-149.7,0-224.5c0-0.1,0-0.3,0.1-0.4
			c74.8,0,149.7,0,224.5,0c0.2,0,0.3,0,0.4,0.1C1561,253.3,1561,328.3,1561,403.3z M1524.1,264.4c0-15.6-0.2-29.6,0.1-43.6
			c0.1-4.5-1.3-5.6-5.7-5.6c-46.8,0.1-93.6,0.1-140.4,0c-4,0-5.1,1.1-5.1,5.1c0.1,46.8,0.1,93.6,0,140.4c0,4.4,1.2,5.7,5.6,5.7
			c30.7-0.2,61.3-0.1,92-0.1c1.4,0,2.8-0.3,4.9-0.5c-5-8.2-3.8-15.1,3.3-20.8c-9.3-5.2-12.8-15.1-1-26.1c-1-4.4-2.6-8.6-2.7-12.8
			c-0.2-12.6,9.1-21.3,22.4-21.7c7.5-0.2,15-0.2,22.5,0c3.4,0.1,5-1.4,4-4.4c-0.9-2.8-2.4-5.8-4.4-8c-32-33.2-85.6-32.7-117.7,1.3
			c-4.2,4.5-8.3,3.9-13.7,3.3c13.1-17.9,29.7-29.5,50.5-34.6C1470.3,234.5,1498.4,242.2,1524.1,264.4z M1523.6,347.6
			c0.3-2.6,0.5-4,0.5-5.3c0-14.1,0-28.3-0.1-42.4c0-7.5-1.2-8.2-8.1-6.2c0.9,5.2,3.1,10.5,2.4,15.4c-2,14.7-15.6,22-30.4,17.1
			c-2.5-0.8-5.1-1.9-6.6,1c-1,2-2,5-1.3,6.7c0.8,1.7,3.7,3.2,5.8,3.4c4.9,0.5,10,0.3,15,0.1C1509.7,337,1517.7,338.5,1523.6,347.6z
			 M1496.8,319.4c7.9,0,12.7-5,12.7-13.3c0-7.9-4.9-13.2-12.3-13.3c-7.8-0.1-13.2,5.2-13.3,13
			C1483.8,314.2,1488.7,319.4,1496.8,319.4z M1498.6,346.1c-2.7,0-5.7-0.8-7.9,0.2c-3.2,1.5-6.4,3.9-8.2,6.9c-2,3.1,0.2,6.3,3,8.6
			c6.4,5.2,20.5,4.5,25.6-2.1c1.7-2.2,2.7-6.4,1.7-8.9c-0.8-2.2-4.6-3.6-7.3-4.6C1503.5,345.5,1500.9,346.1,1498.6,346.1z"/>
		<path class="st3" d="M1445.3,348.8c0-2.2,0-4.1,0-6.1c10.2-1.4,10.9-2.3,10.9-12.6c0-16.6,0-33.3,0-49.9c0-1.5,0-2.9,0-4.6
			c3.2,0,6,0,9.4,0c0,1.9,0,3.7,0,5.5c0,16.8,0,33.6-0.1,50.4C1465.6,345,1459.3,350.4,1445.3,348.8z"/>
	</g>
</g>
</svg>
