<?xml version="1.0" encoding="utf-8"?>
<!-- Generator: Adobe Illustrator 24.1.2, SVG Export Plug-In . SVG Version: 6.00 Build 0)  -->
<svg version="1.1" id="Layer_1" xmlns="http://www.w3.org/2000/svg" xmlns:xlink="http://www.w3.org/1999/xlink" x="0px" y="0px"
	 viewBox="0 0 1628.64 579.08" style="enable-background:new 0 0 1628.64 579.08;" xml:space="preserve">
<style type="text/css">
	.st0{fill:#06AED5;}
	.st1{fill:#13273B;}
	.st2{stroke:#58595B;stroke-width:5;stroke-linecap:round;stroke-miterlimit:10;}
	.st3{fill:#115F83;}
</style>
<g>
	<path class="st0" d="M285.74,335.92c0,0-0.38-0.02-0.38-0.02c-0.17-5.26,2.33-10.43,0.54-15.75c-0.04-0.57-0.09-1.13-0.13-1.7
		c-0.57-6.63-3.39-12.12-8.28-16.59c0,0-0.09-0.09-0.09-0.09c-0.24-0.24-0.49-0.48-0.73-0.72c0,0-0.13-0.12-0.13-0.12
		c-0.24-0.24-0.47-0.47-0.71-0.71c0,0-0.12-0.13-0.12-0.13c-0.24-0.23-0.48-0.46-0.73-0.7c0,0-0.13-0.1-0.13-0.1
		c-3.05-3.46-6.73-6.15-10.67-8.49c0,0,0.02,0.02,0.02,0.02c-0.3-0.27-0.6-0.53-0.89-0.8c0,0-0.01-0.01-0.01-0.01
		c-0.29-0.24-0.57-0.48-0.86-0.72c0,0-0.09-0.06-0.09-0.06c-0.49-0.4-0.97-0.79-1.46-1.19c-0.26-0.2-0.52-0.4-0.79-0.6
		c-0.32-0.28-0.63-0.56-0.95-0.83c0,0,0.01,0.01,0.01,0.01c-3.08-3.05-6.16-6.1-9.25-9.15c0,0-0.02-0.02-0.02-0.02
		c-0.27-0.29-0.53-0.58-0.8-0.87c0,0,0.02,0.02,0.02,0.02c-0.27-0.32-0.54-0.63-0.81-0.95c0,0,0.06,0.06,0.06,0.06
		c-0.28-0.32-0.56-0.65-0.84-0.97c0,0,0.08,0.03,0.08,0.03c-0.91-1.39-1.79-2.79-2.73-4.16c-6.66-9.71-10.25-20.22-9.3-32.21
		c1.4-17.52,14.92-28.68,32.19-26.46c9.3,1.19,17.15,5.64,24.64,10.72c3.46,2.34,5.65,2.21,7.8-1.19c0,0-0.05,0.01-0.05,0.01
		c0.31-0.29,0.62-0.58,0.93-0.86l-0.04,0.07c1.69-0.7,2.7-2.1,3.7-3.52c0.29-0.07,0.45-0.25,0.47-0.54c0.61-0.2,1.12-0.51,1.27-1.2
		l0.22-0.2c5.16-4.29,11.21-6.64,17.66-8.09c0.57-0.03,1.14-0.06,1.71-0.09c8.81,0.01,16.57,2.97,23.46,8.37
		c0,0,0.07,0.06,0.07,0.06c0.82,1.37,1.8,2.61,3.14,3.51c0,0-0.03-0.03-0.03-0.03c6.22,10.03,7.51,20.67,4.31,32.01
		c-1.83,6.51-5.29,12.21-8.26,18.16c-0.76,0.25-0.98,0.88-1.09,1.58c-1.73,1.71-2.97,3.77-4.13,5.88c-0.6,0.2-0.87,0.65-0.92,1.26
		c-0.83,0.45-1.46,1.06-1.64,2.04c0,0,0.03-0.02,0.03-0.02c-3.59,3.95-7.18,7.9-10.77,11.85c-8.33,7.98-16.74,15.89-24.96,23.97
		c-6.13,6.02-12.43,11.89-17.82,18.63c0,0,0.04-0.03,0.04-0.03c-0.27,0.3-0.54,0.6-0.81,0.9c0,0,0,0,0,0
		C286.41,335.43,286.07,335.67,285.74,335.92z"/>
	<path class="st0" d="M162.08,295.92c-0.56,0.06-1.12,0.12-1.67,0.19c-1.92,0.25-3.65,0.92-5.1,2.23c0,0,0.02-0.02,0.02-0.02
		c-2.69,0.88-4.86,2.67-7.18,4.18c-11.04,7.19-22.67,12.53-36.27,11.91c-0.56-0.05-1.12-0.1-1.68-0.15
		c-0.92-0.27-1.84-0.52-2.76-0.81c-8.84-2.73-16.67-6.74-19.2-16.65c-2.4-9.43,1.36-16.86,8.16-23.11c2.67-2.45,5.35-4.89,8.19-7.13
		c2.45-1.92,2.75-3.8,1.03-6.41c-5.63-8.58-6.36-17.6-1.99-26.95c0,0-0.04,0.03-0.04,0.03c1.64-1.99,3.28-3.99,4.91-5.98
		c0,0,0,0,0,0c0.3-0.27,0.6-0.53,0.91-0.8c0,0-0.02,0.03-0.02,0.03c10.93-7.27,21.61-6.1,31.82,1.34c8.39,6.11,14.41,14.37,19,23.54
		c7.73,15.44,15.09,31.07,22.6,46.62c0.25,0.51,0.31,1.07-0.33,1.64c-3.07-1.33-6.02-3.25-9.54-3.59c-0.56-0.04-1.12-0.08-1.68-0.12
		C168.2,294.76,165.14,294.83,162.08,295.92z"/>
	<path class="st0" d="M456.65,146.99c-1.96-0.43-3.92-0.37-5.86,0.09c-4.33,0.25-7.93,2.33-11.41,4.66
		c-5.09,3.41-10.28,6.67-15.99,8.94c-9.67,3.84-19.45,4.82-29.13,0.19c-11.16-5.34-14.69-17.02-8.55-27.71
		c2.55-4.43,6.2-7.83,10.21-10.89c5.16-3.94,5.16-3.94,1.33-9.71c0,0,0.01,0.01,0.01,0.01c-0.1-0.4-0.16-0.82-0.32-1.2
		c-4.06-9.3-2.44-18.77,4.36-25.36c5.9-5.72,16.02-7.04,24.58-3.13c7.2,3.29,12.5,8.8,16.75,15.27
		c9.14,13.89,15.22,29.36,22.53,44.2c1.19,2.42,2.79,4.71,3.24,7.95C464.26,148.99,460.8,146.63,456.65,146.99z"/>
	<path class="st0" d="M185.49,139.38c0.05,0.56,0.09,1.13,0.14,1.69c-0.01,0.82-0.02,1.65-0.03,2.47c-0.05,0.56-0.11,1.11-0.16,1.67
		c-1.04,3.5-2.68,6.74-4.34,9.98c-0.23,0.27-0.45,0.54-0.68,0.8c-1.7,1.68-3.4,3.36-5.1,5.04c0,0,0.03-0.04,0.03-0.04
		c-9.57,5.59-20.06,8.48-30.96,9.07c-14.61,0.8-29.25,0.95-43.85,1.96c-0.64,0.04-1.43,0.19-1.75-0.91
		c1.13-1.09,2.32-2.24,3.52-3.39c5.68-5.42,7.85-12.13,6.63-19.75c-1.48-9.23-2.75-18.45-2.25-27.83c0.06-0.56,0.11-1.12,0.17-1.69
		c1.72-5.92,4.18-11.5,7.69-16.6c0,0-0.02,0.03-0.03,0.02c7.39-7.06,15.68-10.19,25.67-5.88c0,0-0.03-0.04-0.03-0.04
		c0.86,1.2,1.99,2.04,3.37,2.55c0,0-0.04-0.07-0.04-0.07c0.31,0.3,0.61,0.59,0.92,0.89c0,0-0.07-0.04-0.06-0.04
		c0.79,1.67,2.02,2.99,3.4,4.19c0,0-0.04-0.05-0.03-0.05c0,0.73,0.36,1.24,0.97,1.6c0,0,0.01,0.02,0.01,0.02
		c1.8,4.49,3.82,8.95,4.67,13.72c0.52,2.88,1.9,3.23,4.31,2.75c8.34-1.65,15.64,0.48,21.89,6.23c0,0-0.02-0.02-0.02-0.02
		C182.22,131.25,184.39,135.05,185.49,139.38z"/>
	<path class="st0" d="M390.56,284.24c0.55-0.08,1.1-0.17,1.66-0.25c5.23-0.37,10.27,0.36,15.02,2.69c0,0-0.01-0.01-0.01-0.01
		c0.87,1.17,2.05,1.93,3.38,2.49l0,0c0.28,0.28,0.56,0.55,0.84,0.83c0,0,0.01,0.01,0.01,0.01c0.27,0.29,0.54,0.58,0.81,0.87
		c0,0-0.01-0.02-0.01-0.02c0.27,0.32,0.53,0.63,0.8,0.95c0,0-0.06-0.04-0.06-0.04c3.89,6.54,4.52,13.52,2.93,20.84
		c-1.73,7.97-6.4,14.32-11.07,20.73c-5.89,8.08-13.42,14.74-19.39,22.75c0,0,0.01-0.01,0.01-0.01c-0.28,0.29-0.57,0.57-0.85,0.86
		c0,0,0.01-0.02,0.01-0.02c-0.28,0.29-0.55,0.58-0.83,0.86c0,0,0.01-0.01,0.01-0.01c-0.28,0.28-0.55,0.57-0.83,0.85c0,0,0,0,0,0
		c-3.91,3.99-7.82,7.98-12.12,12.36c-0.96-2.69-0.57-4.6-0.55-6.48c0.07-6.45-1.95-12.16-6.97-16.28
		c-5.24-4.31-10.85-8.17-16.3-12.23c-2.25-2.5-4.49-4.99-6.74-7.49c-0.25-0.31-0.5-0.62-0.74-0.93c-0.18-1.09-0.73-1.92-1.66-2.51
		c-1.43-3.88-3.12-7.67-3.97-11.76c-2.46-11.82,4.55-22.7,15.84-24.68c4-0.7,7.65,0.77,11.45,1.41c0,0-0.01-0.01-0.01-0.01
		c3.55,1.78,7.23,3.35,10.62,5.4c2.44,1.48,3.95,1.11,5.5-1.1C380.67,289.58,385.07,286.18,390.56,284.24z"/>
	<path class="st0" d="M203.07,175.36c1.95,0,3.91-0.01,5.86-0.01c13.75,4.55,19.25,12.37,17.73,25.55
		c-0.73,6.34-3.46,12.01-6.75,17.38c-6.62,10.78-16.04,19.18-24.35,28.52c-4.68,5.25-9.52,10.36-14.39,15.64
		c-0.37-0.63-0.59-0.84-0.6-1.05c-0.02-0.83-0.03-1.67,0.05-2.5c0.87-9.39-3.02-16.53-10.61-21.68
		c-7.17-4.87-13.9-10.19-19.52-16.82c0,0,0.04,0.01,0.04,0.01c-5.75-9-8.82-18.47-5.16-29.13c0,0-0.01,0.02-0.01,0.02
		c0.62-0.39,0.94-0.93,0.89-1.68c0,0-0.02,0.03-0.02,0.03c3.43-5.05,8.04-8.45,14.17-9.22c6.65-0.84,12.51,1.81,18.2,4.8
		c7.12,3.75,7.1,3.78,11.89-3.2c0,0,0.03-0.03,0.03-0.03c0.28-0.26,0.56-0.53,0.84-0.79c0,0,0.01-0.01,0.01-0.01
		c0.28-0.27,0.56-0.55,0.84-0.82c0,0,0,0,0,0c0.34-0.26,0.69-0.51,1.03-0.77c0.25-0.22,0.5-0.44,0.74-0.66
		C196.84,177.35,199.93,176.29,203.07,175.36z"/>
	<path class="st0" d="M456.65,163.67c0.56-0.07,1.12-0.13,1.68-0.2c4.86-0.36,9.33,0.71,13.32,3.59c0,0-0.03-0.04-0.03-0.04
		c0.3,0.28,0.6,0.56,0.89,0.84c0,0-0.02-0.01-0.02-0.01c5.32,6.4,5.8,13.99,5.08,21.75c-0.32,3.38,0.66,4.93,4.13,5.67
		c10.11,2.16,15.99,9.36,16.04,19.03c0.04,7.92-6.58,15.58-15.6,17.86c-8.48,2.14-16.95,1.27-25.21-0.98
		c-9.66-2.62-19.19-5.76-28.77-8.68c-0.55-0.12-1.09-0.24-1.64-0.35c-3.16-1.23-6.33-2.46-9.48-3.69c0.41-1.38,1.58-1.3,2.42-1.64
		c7.46-3,12-8.42,13.26-16.36c1.33-8.41,3.35-16.58,7.27-24.2c0,0-0.04,0.03-0.04,0.03c0.24-0.32,0.47-0.64,0.71-0.95
		c0,0,0.04-0.05,0.04-0.05c1.02-0.49,1.42-1.43,1.76-2.41c0,0-0.03,0.02-0.03,0.02c0.27-0.3,0.54-0.6,0.81-0.89c0,0,0,0,0,0
		C447.13,168.29,451.66,165.6,456.65,163.67z"/>
	<path class="st0" d="M269.13,409.53c-0.54,0.13-1.07,0.25-1.61,0.38c-0.81,0.14-1.61,0.3-2.42,0.43
		c-12.88,2.04-25.67-3.39-24.55-18.2c0.07-0.57,0.13-1.13,0.2-1.7c0.55-1.4,1.1-2.79,1.66-4.19c0,0,0,0,0,0
		c0.17-0.26,0.35-0.53,0.52-0.79c0.12-0.27,0.23-0.55,0.35-0.82c0.94-0.59,1.39-1.52,1.69-2.53c0,0-0.02,0.02-0.02,0.02
		c6.77-6.65,6.77-6.65,2.13-14.58c-4.2-7.19-3.15-15.05,2.98-22.19c0,0-0.06,0.04-0.06,0.04c0.3-0.3,0.61-0.6,0.91-0.9
		c0,0-0.04,0.07-0.04,0.07c6.33-4.04,12.99-4.26,19.89-1.69c0,0-0.02-0.04-0.02-0.04c3.37,2.22,6.74,4.44,10.11,6.66
		c0,0-0.02-0.02-0.02-0.02c1.31,2.07,3.12,3.66,4.99,5.18c0.22,0.25,0.44,0.49,0.65,0.74c6.5,8.91,12.99,17.82,19.49,26.73
		c0.23,0.29,0.45,0.57,0.68,0.86c0.93,2.86,3.76,4.71,4.49,8.37c-9.36-3.17-17.29-1.69-23.62,5.74c0,0,0.03-0.02,0.03-0.02
		c-0.3,0.29-0.59,0.57-0.89,0.86c0,0,0.05-0.04,0.05-0.04c-0.33,0.28-0.67,0.56-1,0.85c-0.25,0.21-0.5,0.41-0.75,0.62
		c-4.14,2.89-8.29,5.78-12.43,8.66c0,0,0,0,0,0C271.22,408.12,270.09,408.64,269.13,409.53z"/>
	<path class="st0" d="M418.9,239.15c-0.09,0.26-0.02,0.47,0.19,0.64c0.49,3.55,1.61,6.91,3.16,10.14c0,0-0.04-0.02-0.04-0.02
		c1.97,6.93,3.94,13.86,5.92,20.8c0,0,0,0,0,0c-0.52-0.17-1.13-0.22-1.56-0.52c-7.05-4.82-14.23-4.75-21.65-0.86
		c-5.59,2.93-11.57,4.78-17.88,5.24c-8.14,0.58-15.12-1.88-20.12-8.64c-3.95-5.35-2.63-10.72,0.32-15.99c0,0-0.04,0.03-0.04,0.03
		c2.48-2.27,4.97-4.53,7.45-6.8c0,0,0,0,0,0c0.83-0.15,1.49-0.57,1.96-1.28c0,0,0.13-0.06,0.12-0.06c5.3-1.37,3.54-4.78,2.35-8.06
		c-2.28-6.33-0.51-11.78,4.01-16.37c4.63-4.7,10.27-5.66,16.49-3.67c4.7,1.51,7.82,5.04,11.01,8.49c0,0,0,0.01,0,0.01
		C414.18,227.48,416.53,233.32,418.9,239.15z"/>
	<path class="st0" d="M454.04,282.45c0.67-0.36,0.84-0.98,0.83-1.68c2.69-3.2,5.42-6.39,8.93-8.7c2.08-1.37,2.34-2.82,1.1-4.86
		c-0.72-1.18-1.27-2.48-1.78-3.77c-3.65-9.38,1.37-19.68,10.73-21.67c2.54-0.54,5.26-0.24,7.9-0.33c0.1,0.22,0.25,0.27,0.46,0.15
		c6.75,2.8,11.99,7.44,16.03,13.44c2.16,3.21,4.05,6.61,6.06,9.92c0,0-0.02-0.02-0.02-0.02c3.93,8.42,7.87,16.84,11.79,25.26
		c0.4,0.85,1.22,1.82,0.58,2.69c-0.73,1-1.84,0.23-2.66-0.13c-7-2.99-13.17-1.15-19.26,2.78c-5.59,3.61-11.37,6.92-18.05,8.34
		C461.32,307.16,450.27,296.75,454.04,282.45z"/>
	<path class="st0" d="M334.61,451.49c-0.05,0.57-0.09,1.14-0.14,1.71c-0.89,0.95-0.85,2.15-0.88,3.33c0,0,0.01-0.01,0.01-0.01
		c-2.62,5.17-4.55,10.71-8.19,15.34c-5.16,6.56-10.22,13.19-15.46,19.67c-2.34,2.89-4.13,6.27-7.26,8.49c0,0,0,0.01,0,0.01
		c0.2-7.28-1.21-13.81-8.35-17.61c0,0,0,0.01,0,0.01c-1.63-1.96-3.97-2.9-6.06-4.19c-9.76-5.98-17-13.64-17.53-25.86
		c0.03-0.56,0.06-1.13,0.1-1.69c1.37-2.98,2.04-6.26,4.71-8.63c6.04-5.35,12.38-4.14,19.09-1.56c7.56,2.91,7.63,2.74,12.33-3.97
		c0.25-0.24,0.5-0.49,0.76-0.73c7.66-5.12,15.14-5,22.41,0.81c0,0-0.04-0.04-0.04-0.04C333.08,441.1,334.92,445.98,334.61,451.49z"
		/>
	<path class="st0" d="M219.81,104.91c0.21,0.19,0.45,0.26,0.72,0.19c4.98,3.23,4.97,3.22,8.35-1.07c1.09-1.38,2.23-2.71,3.35-4.06
		c0,0,0.09-0.09,0.09-0.09c0.29-0.23,0.58-0.46,0.87-0.69c0,0,0.01-0.01,0.01-0.01c0.31-0.26,0.62-0.52,0.93-0.78
		c0,0-0.03,0.05-0.03,0.05c1.51-0.25,2.91-0.77,4.17-1.66c0.83-0.1,1.67-0.21,2.5-0.31c14.32-0.32,19.47,11.27,17.24,22.04
		c-0.96,4.65-2.74,9.04-5.49,12.92c-4.8,6.78-9.71,13.47-14.58,20.2l0.1,0.27c0,0-0.08-0.27-0.08-0.27
		c-1.14,0.61-1.82,1.59-2.24,2.78c0,0,0,0,0,0c-0.25,0.29-0.5,0.57-0.76,0.86c0,0-0.04,0.05-0.04,0.05c-3.02,2.21-4.1,6.4-8.07,8.22
		c-0.36-7.2-1.91-13.38-8.6-16.8c0,0,0.02,0.04,0.02,0.04c-0.61-0.94-1.41-1.59-2.57-1.67c0,0,0.04,0.05,0.03,0.05
		c-0.32-0.23-0.64-0.46-0.96-0.7c0,0-0.07-0.04-0.07-0.04c-1.96-1.77-4.12-3.25-6.54-4.32c0,0,0.03,0.04,0.03,0.04
		c-0.32-0.24-0.63-0.48-0.95-0.72c0,0-0.04-0.03-0.04-0.03c-5.06-4.23-9.46-8.85-11.19-15.55c-2.91-11.31,2.15-20.05,12.44-21.03
		C212.41,102.46,216.06,104.03,219.81,104.91z"/>
	<path class="st0" d="M196.8,326.98c0.23,0.04,0.36-0.05,0.4-0.28c0.62-0.31,1.24-0.61,1.84-0.94c8.96-4.95,18.98-0.07,20.36,10.03
		c0.69,5.06-0.86,9.66-3.81,13.74c-2.43,3.36-5.07,6.58-7.61,9.87c0,0,0.03-0.02,0.03-0.02c-2.25,2.23-4.49,4.46-6.74,6.7
		c0,0,0.02-0.02,0.02-0.02c-2,1.4-3.7,3.11-5.21,5.02c-0.28,0.02-0.46,0.17-0.52,0.45c-3.04,1.65-4.7,5.19-8.42,6.43
		c-0.22-6.18-0.62-11.97-6.6-15.24c0,0,0.03,0.05,0.03,0.05c-0.3-0.29-0.6-0.58-0.9-0.87c0,0,0.04,0.03,0.04,0.03
		c-3.9-4.21-7.79-8.42-11.69-12.63c0,0,0.04,0.03,0.04,0.03c-0.78-2.11-1.46-4.27-2.82-6.11c0,0,0.01-0.33,0-0.33
		c0.17-4.29-0.06-8.65,1.89-12.69c0,0-0.02,0.02-0.02,0.02c0.23-0.29,0.46-0.58,0.69-0.87c0.32-0.35,0.63-0.69,0.95-1.04
		c3.01-2.37,6.36-3.53,10.25-3.24c2.97,0.22,5.33,2.06,8.13,2.66c0,0-0.03-0.03-0.03-0.03c0.3,0.21,0.59,0.41,0.89,0.62
		c0.14,0.23,0.35,0.32,0.61,0.28C192.74,331.72,192.74,331.72,196.8,326.98z"/>
	<path class="st0" d="M320.98,165.24c-1.58,1.21-2.98,2.59-4.06,4.28l-0.02,0.02c-0.27,0.27-0.54,0.54-0.8,0.82
		c0,0-0.03,0.03-0.03,0.03c-0.27,0.27-0.54,0.54-0.81,0.8c0,0-0.03,0.03-0.03,0.03c-0.27,0.27-0.53,0.54-0.8,0.81l-0.03,0.03
		c-1.73,1.05-3.16,2.4-4.23,4.12l0.01-0.01c-1.11,0.57-1.97,1.39-2.52,2.52l0,0c-1.44,0.79-2.63,1.84-3.4,3.31l0.02-0.02
		c-2.83,2.34-5.67,4.68-9.04,7.46c0-2.12,0.01-3.59,0-5.05c-0.04-4.28-1.67-7.94-4.93-10.62c-4.19-3.43-8.14-7.09-11.93-10.94
		l-0.01-0.01c-2.61-4.77-4.91-9.54-4.42-15.3c0.75-8.76,7.62-13.72,16.04-11.08c2.5,0.78,5.09,1.71,7.17,3.23
		c2.92,2.12,5.1,2.14,7.22-0.83c0.48-0.67,1.1-1.23,1.66-1.84c0.73-0.07,1.26-0.45,1.6-1.09c6.32-2.24,12.4-2.44,17.11,3.19
		c4.83,5.77,3.83,12.15,0.91,18.37c-1.28,2.73-3.11,5.2-4.69,7.79L320.98,165.24z"/>
	<path class="st0" d="M429.74,317.65c0.09-0.55,0.18-1.09,0.26-1.64c0.42-0.85,0.87-1.69,1.26-2.55c4.12-9.18,12.47-11.1,20.23-4.59
		c2.01,1.69,3.96,3.49,5.69,5.46c1.25,1.41,2.41,1.74,3.9,0.71c4.28-2.95,9.01-3.18,13.92-2.38c0,0-0.02-0.01-0.02-0.01
		c8.32,5.63,10.56,11.56,7.07,19.26c-2.38,5.25-6.51,9.01-11.29,11.99c-9.33,5.83-19.35,10.38-29.19,15.25
		c-0.43,0.21-1.03,0.56-1.63-0.42c1.51-3.85,2.45-7.99,0.74-12.27c-1.56-3.9-4.06-7.21-6.55-10.53c0,0,0.05,0.04,0.04,0.04
		C431.97,330.04,428.81,324.34,429.74,317.65z"/>
	<path class="st0" d="M90.13,182.78c0.3,0.3,0.59,0.6,0.89,0.9c0.59,1.8,1.52,2.62,3.33,1.26c1.66-1.24,3.35-2.44,5.03-3.66
		c0,0-0.03,0.03-0.03,0.03c5.28-1.88,10.22-1.12,14.89,1.87c0.23,0.22,0.46,0.44,0.69,0.66c1.19,1.92,2.39,3.84,3.58,5.76
		c0.07,0.55,0.14,1.1,0.21,1.65c0.69,6.56-2.29,11.78-6.1,16.7c0,0,0.01-0.01,0.01-0.01c-1.61,1.18-3.12,2.48-4.22,4.18
		c0,0,0.02-0.02,0.02-0.02c-9.49,6.4-18.98,12.8-28.87,19.47c-0.15-3.32,1-5.87,0.35-8.48c-0.02-0.56-0.04-1.12-0.07-1.68
		c-0.63-3.84-2.71-6.77-5.71-9.13c0,0-0.04-0.05-0.04-0.05c-1.02-1.97-2.3-3.74-4.03-5.15c0,0,0.03,0.03,0.03,0.03
		c-1.47-3.26-3.89-6.06-4.61-9.68c-1.26-6.35-1.27-12.42,3.61-17.51c4.24-4.43,9.2-3.56,14.27-1.99c0,0-0.02-0.01-0.02-0.01
		C85.61,179.53,87.87,181.15,90.13,182.78z"/>
	<path class="st0" d="M235.57,195.45c-0.01-6.73,4.18-10.74,9.4-13.77c2.95-1.71,3.7-3.35,2.54-6.67
		c-2.19-6.31-0.13-11.68,5.21-15.24c4.34-2.89,10.31-2.32,15.13,1.52c3.92,3.11,6.53,7.23,8.4,11.78
		c4.02,9.76,6.55,19.98,9.92,31.41c-7.59-5.71-14.18-3.79-20.93-0.82c-4.82,2.12-9.89,3.79-15.32,3.61
		c-0.55-0.06-1.1-0.12-1.64-0.18c-5.64-1.5-10.47-3.99-12.49-10.01C235.72,196.54,235.65,195.99,235.57,195.45z"/>
	<path class="st0" d="M515.55,164.08c-0.35-0.08-0.7-0.16-1.05-0.25c-3.4,0.17-6.33,1.77-9.35,3.09c-0.56,0.1-1.11,0.19-1.67,0.29
		c-0.34,0.13-0.69,0.26-1.03,0.39c0,0,0-0.07,0-0.07c-3.56,0.12-7.11,0.25-10.67,0.37l-0.33-0.18c0,0-0.37,0.04-0.37,0.04
		c-2.79-1.43-5.59-2.85-8.38-4.28c0,0,0.04,0.04,0.04,0.04c-3.9-5.03-4.28-10.26-0.87-15.7c0,0-0.03,0.03-0.04,0.03
		c1.89-1.45,3.78-2.9,5.67-4.35c0,0,0.07-0.04,0.07-0.04c0.32-0.23,0.64-0.47,0.96-0.7c0,0-0.06,0.05-0.06,0.05
		c0.7-0.03,1.24-0.35,1.58-0.96c0,0,0.03-0.01,0.03-0.01c2.3-0.42,2.74-1.75,2.3-3.94c-2.47-12.29,3.75-18.77,16.02-16.79
		c0,0-0.02-0.04-0.02-0.04c4.87,2.72,8.4,6.69,10.53,11.81c4.55,10.92,6.5,22.52,8.76,34.04c-0.49-0.06-0.99-0.12-1.48-0.18
		C523.22,163.58,519.67,162.68,515.55,164.08z"/>
	<path class="st0" d="M320.93,387.94c0.02-0.56,0.04-1.12,0.06-1.68c0.67-3.85-1.42-6.72-3.57-9.46c-3.22-4.1-5.76-8.56-7.53-13.44
		c-3.05-8.41,0.62-17.11,8.03-19.27c5.7-1.66,9.77,1.49,13.29,5.11c2.83,2.9,4.98,3.77,8.71,1.22c3.91-2.68,8.49-2.46,12.63,0.24
		c4.09,2.67,5.93,6.47,5.53,11.39c-0.37,4.58-2.61,8.13-5.76,11.27c-7.13,7.1-16.23,11.22-24.72,16.23c-2.26,1.34-4.41,3.1-7.46,3.8
		C320.31,391.15,321.48,389.65,320.93,387.94z"/>
	<path class="st0" d="M326.15,422.18c-3.16-7-2.07-10.67,5.04-15.3c2.42-1.57,3.42-2.89,2.49-5.98c-1.59-5.24,0.28-9.48,4.43-11.81
		c4.13-2.32,8.47-1.56,12.54,2.19c0.4,0.37,0.86,0.68,1.3,1.03c0.22,0.24,0.45,0.49,0.67,0.73c0.88,1.21,1.75,2.42,2.63,3.63
		c-0.09,0.21-0.03,0.36,0.18,0.45c3.49,8.53,6.25,17.27,8.6,27.09c-6-3.63-10.92-2.47-16.16-0.06c-7.43,3.42-14.98,4.03-21.72-1.99
		L326.15,422.18z"/>
	<path class="st0" d="M243.26,334.49c-0.85-0.03-1.69-0.06-2.54-0.09c-1.79-1.02-3.75-1.84-5.35-3.11c-3.99-3.17-4.48-8-1.4-11.71
		c5.55-6.7,5.55-6.7,6.18-15.13c0,0-0.06-0.03-0.06-0.03c3.21-5.16,6.69-7,11.16-5.83c3.56,0.94,6.32,3.22,7.96,6.32
		c4.37,8.21,6.52,17.23,9.52,26.78c-4.54-2.08-8.36-3.03-12.33-1.16C252.21,332.48,247.71,333.4,243.26,334.49z"/>
	<path class="st0" d="M398.9,375.35l-0.25-0.17c0,0-0.29,0.07-0.29,0.07c-1.1-0.87-2.37-0.78-3.65-0.64l-0.29-0.19
		c0,0-0.35,0.03-0.35,0.03c-0.54-0.47-1.09-0.94-1.63-1.4c0,0-0.04,0-0.04,0c5.02-2.32,5.88-6.89,6.34-11.68
		c0.45-4.59,1.43-9,4.44-12.7c1.71-1.08,3.41-2.15,5.12-3.23c5.38-0.01,8.77,1.93,9.36,6.81c0.53,4.43,2.11,6.5,6.43,7.99
		c5.99,2.07,6.69,9.66,1.89,13.91c-2.19,1.94-4.77,2.68-7.58,3.03c-4.33,0.53-8.55-0.48-12.82-0.77c-0.83-0.08-1.66-0.16-2.49-0.23
		C401.81,375.3,400.35,375.35,398.9,375.35z"/>
	<path class="st0" d="M186.21,103.7c-0.11,0.22-0.06,0.4,0.15,0.53c-0.08,0.76,0.08,1.43,0.7,1.93c-0.1,0.24-0.05,0.43,0.16,0.57
		c-0.22,0.92,0.24,2.64-1.7,1.67c-3.93-1.97-7.51-0.6-11.15,0.89c-2.04,0.84-4.13,1.62-6.27,2.11c-4.55,1.04-9.8-1.27-11.82-4.98
		c-2.44-4.49,0.32-7.26,3.25-10c0.39-0.36,0.65-0.88,0.96-1.32c0,0-0.02,0.03-0.02,0.03c2.31-0.4,2.9-1.93,2.4-3.95
		c-1.03-4.2,0.28-7.57,3.44-10.35c0,0-0.04,0.03-0.04,0.03c1.66-0.35,3.32-0.7,4.98-1.05c0.55,0.09,1.09,0.18,1.64,0.27
		c1.97,1.62,3.95,3.24,5.92,4.86c0,0,0.02,0.02,0.02,0.02c0.25,0.33,0.5,0.67,0.75,1c0.13,0.24,0.26,0.48,0.38,0.73
		c0.17,0.25,0.34,0.5,0.52,0.76c0,0,0.01,0.03,0.01,0.03c0.22,0.44,0.45,0.87,0.67,1.31l-0.1,0.21c0,0,0.16,0.17,0.16,0.17
		C182.5,94.15,184.31,98.94,186.21,103.7z"/>
	<path class="st0" d="M335.16,175.41c4.49,7.77,7.15,16.21,9.39,25.56c-5.44-2.64-10.12-0.93-14.86,1.12
		c-3.62,1.57-7.39,2.17-11.32,0.47c-6.53-2.83-7.75-8.93-2.22-13.41c2.92-2.37,4.66-4.2,3.65-8.54c-1.21-5.16,5.03-9.78,10.11-8.07
		c1.56,0.52,2.99,1.42,4.48,2.14C334.65,174.93,334.91,175.17,335.16,175.41z"/>
	<path class="st0" d="M488.24,101.81c2.7,6.06,1.89,10.51-3.69,14.5c-5.72,4.09-11.94,7.48-18.95,11.8
		c1.39-7.88-3.97-12.25-6.18-17.93c-0.82-2.11-1.49-4.15-1.29-6.44c0.29-3.25,1.46-5.96,4.57-7.4c2.99-1.39,5.67-0.54,8.15,1.36
		c0.76,0.59,1.58,1.1,2.38,1.65c0,0,0.02-0.02,0.02-0.02c1,1.86,2.59,2.02,4.18,1.12c3.57-2.03,6.83-1.28,10.06,0.72
		C487.74,101.38,487.99,101.6,488.24,101.81z"/>
	<path class="st0" d="M391.47,399.65c-0.21,0.15-0.27,0.35-0.2,0.6c-2.01,3.28-5.1,5.62-7.49,8.58c-0.27,0.27-0.55,0.53-0.82,0.8
		c-1.57,0.88-2.88,2.04-3.94,3.5c0,0-0.13,0.1-0.13,0.1c-1.75,0.98-3.15,2.34-4.41,3.88c0,0,0.02-0.05,0.02-0.04
		c-1.02,0.12-1.58-0.32-1.51-1.36c0.22-3.53-1.73-5.95-4.16-8.1c-3.11-2.75-5.64-5.93-7.43-9.69c-0.1-0.55-0.2-1.09-0.29-1.64
		c0.78-8.91,4.75-11.41,12.62-7.51c2.85,1.42,4.84,0.91,7.16-0.73c2.49-1.77,5.23-1.61,7.84-0.17c2.7,1.49,3.87,3.94,3.67,6.94
		C392.3,396.42,391.79,398.03,391.47,399.65z"/>
	<path class="st0" d="M516.85,173.72c0.61,1.23,1.52,2.39,1.78,3.69c0.81,3.93,2.01,6.77,6.6,8.27c4.81,1.56,5.11,8.17,1.11,11.64
		c-1.33,1.16-2.98,1.95-4.49,2.9c-0.82,0.11-1.64,0.23-2.46,0.34c-0.55,0.01-1.1,0.01-1.64,0.02c-0.56-0.02-1.13-0.05-1.69-0.07
		c-0.28-0.01-0.56-0.02-0.83-0.03c-0.54-0.04-1.09-0.08-1.63-0.12c-2.73-0.84-5.53-1.27-8.38-1.4c-0.84-0.09-1.67-0.17-2.51-0.26
		c-1.93-0.56-3.86-1.12-5.8-1.69c0,0,0.04,0.02,0.04,0.02c0.28-0.49,0.56-0.98,0.84-1.47c0,0-0.03,0.03-0.03,0.03
		c3.55-1.79,4.25-4.93,4.05-8.51c0.05-0.54,0.1-1.09,0.15-1.63c0.43-1.7,0.81-3.42,1.31-5.1c2.02-6.68,6.09-9.02,12.68-7.34
		c0,0-0.04-0.07-0.04-0.07c0.32,0.27,0.64,0.53,0.96,0.8L516.85,173.72z"/>
	<path class="st0" d="M435.02,261.5c-0.1-0.55-0.19-1.09-0.29-1.64c-0.18-0.33-0.37-0.66-0.55-0.99c0,0,0.06,0.02,0.06,0.02
		c-1.83-4.36-5.15-8.15-5.1-13.23l0.15-0.22c0,0-0.13-0.23-0.13-0.23c2.33-5.98,6.1-8.97,9.4-6.48c4.5,3.41,8.89,4.71,14.25,3.48
		c0.63-0.15,1.36,0.17,2.05,0.27c0,0-0.04-0.08-0.04-0.08c0.32,0.27,0.65,0.53,0.97,0.8c0,0-0.03-0.02-0.03-0.02
		c3.98,4.15,2.81,8.33,0.1,12.53c-0.28,0.31-0.57,0.62-0.85,0.92c-1.07,0.55-2.1,1.15-2.71,2.25c0,0,0.02-0.04,0.02-0.04
		c-5.31,2.83-10.63,5.65-15.94,8.48c0,0-0.35-0.02-0.35-0.02s-0.29,0.2-0.29,0.2C434.12,265.67,436.79,263.32,435.02,261.5z"/>
	<path class="st0" d="M215.61,367.76c0.17,0.2,0.39,0.26,0.64,0.16c1.57,1.35,3.26,2.58,4.68,4.07c1.25,1.31,2.48,1.63,4.04,0.82
		c2.99-1.54,5.9-1.04,8.77,0.35l0.31-0.1c0,0-0.31,0.08-0.31,0.08c2.22,3,2.95,6.14,1.26,9.72c-0.99,2.1-2.96,3.28-4.2,5.1
		c0,0-0.07,0.05-0.07,0.05c-0.29,0.24-0.58,0.48-0.87,0.73c0,0-0.01,0.01-0.01,0.01c-0.36,0.25-0.72,0.49-1.08,0.74l-0.34,0
		c0,0-0.26,0.21-0.26,0.21c-0.33,0.2-0.66,0.41-0.98,0.61c0,0,0.04-0.07,0.04-0.07c-3,0.97-5.65,2.62-8.25,4.36
		c-0.7,0-1.31,0.17-1.67,0.84c-1.38,0.08-2.41,1.43-4.1,1.04c0.1-3.43-0.09-6.8-2.17-9.85c-1.32-1.92-2.23-4.16-3.11-6.33
		C205.22,373.65,208.51,368.33,215.61,367.76z"/>
	<path class="st0" d="M67.61,244.79c0.24-0.59,0.48-1.18,0.72-1.78c3.07,2.16,6.27,3.55,10.04,1.83c0.55-0.08,1.11-0.16,1.66-0.23
		c0.92,0.12,1.81,0.14,2.56-0.54c0.82-0.01,1.63-0.01,2.45-0.02c4.64,1.22,8.9,2.88,10.11,8.28c-0.06,0.54-0.12,1.08-0.18,1.63
		c-1.34,2.36-3.1,4.33-5.73,5.16c-2.47,0.78-3.52,2.12-3.37,4.85c0.2,3.66-1.93,6-5.34,7.06c-3.26,1.01-5.64-0.64-7.67-2.94
		c-1.88-2.13-2.48-4.9-3.51-7.45c-0.11-0.53-0.21-1.07-0.32-1.6c0.09-1.72,0.29-3.46-0.58-5.07c-0.09-1.11-0.17-2.22-0.26-3.32
		C68.31,248.67,68.5,246.68,67.61,244.79z"/>
	<path class="st0" d="M266.03,437.26c-0.09,0.56-0.19,1.12-0.28,1.68c-1.38,1.09-2.76,2.19-4.14,3.28c-1.08-0.03-2.16-0.07-3.24-0.1
		c-3.07-1.67-5.61-3.85-7.4-6.95c-1.08-1.88-1.6-4.13-3.45-5.54c0,0,0.04,0.03,0.04,0.03c-0.21-1.31-0.54-2.56-1.71-3.38
		c0,0,0.04,0.03,0.04,0.03c0.19-1.36-1.44-2.35-0.75-4.03c3.63,0.98,6.63-0.55,9.65-2.33c2.84-1.67,5.83-3.15,9.33-2.7
		c0,0-0.02-0.01-0.02-0.01c0.4,0.66,1.01,0.75,1.7,0.68c0.15,0.21,0.35,0.28,0.59,0.21c0.37,0.24,0.74,0.48,1.11,0.71
		c0,0,0.02,0.02,0.02,0.02c0.27,0.26,0.54,0.53,0.82,0.79c0,0,0.04,0.03,0.04,0.03c1.11,2.21,1.1,4.46,0.27,6.74
		c-0.27,0.09-0.4,0.28-0.4,0.57c-0.24,0.36-0.48,0.73-0.72,1.09c0,0-0.02,0.03-0.02,0.03C262.81,430.48,266.51,434.21,266.03,437.26
		z"/>
	<path class="st0" d="M300.73,430.52c-0.26-0.03-0.46,0.06-0.61,0.27c-0.49-0.08-0.78,0.13-0.88,0.61c0,0,0.03-0.03,0.03-0.03
		c-3.12,0.78-6.13,0.64-9.17-0.6c-2.12-0.86-4.43-1.28-6.66-1.89c0,0,0.02,0.02,0.02,0.02c-2.36-1.2-4.72-2.4-7.43-3.78
		c3.63-1.77,5.23-4.54,6.07-7.9c1.03-4.12,3.72-6.98,7.22-9.17c0,0-0.03,0.02-0.03,0.02c5.28-0.15,7.65,1.21,7.47,5.45
		c-0.18,4.19,1.69,6.38,5.01,8.03c0.13,0.25,0.27,0.51,0.4,0.76c0.16,0.26,0.32,0.53,0.48,0.79c0,0,0,0,0,0
		c0.27,2.29,0.08,4.51-0.93,6.61c0,0,0.06-0.04,0.06-0.04C301.43,429.94,301.08,430.23,300.73,430.52z"/>
	<path class="st0" d="M210.99,97.28c-2.18-1.22-4.24-0.31-6.29,0.38c-3.28,1.1-6.57,1.77-10.01,0.81c0,0-0.21-0.23-0.21-0.23
		s-0.31,0.01-0.31,0.01c-3.63-3.91-1.61-6.93,1.52-9.78c0,0-0.01,0.03-0.01,0.03c1.81-0.43,1.41-1.87,1.26-3.04
		c-0.37-2.81,0.35-5.07,3.18-6.06c2.99-1.05,5.27,0.53,6.81,2.81c1.46,2.15,2.37,4.67,3.52,7.03c0.14,0.55,0.28,1.1,0.42,1.65
		c0.16,0.34,0.33,0.68,0.49,1.02c-0.08,0.27-0.01,0.49,0.22,0.65c-0.06,0.9-0.11,1.81,0.71,2.45c0,0,0.01,0.02,0.01,0.02
		c-0.03,0.82-0.06,1.65-0.09,2.47C211.8,97.42,211.39,97.35,210.99,97.28z"/>
	<path class="st0" d="M188.01,152.77l0.2-0.15c0,0-0.04-0.25-0.04-0.25c1.96-2.33,4.42-3.04,6.94-1.32
		c2.04,1.39,3.67,1.26,5.61,0.06c1.72-1.07,3.42-0.69,4.99,0.56c1.62,1.29,1.91,3.06,1.54,4.87c-0.27,1.31-1.03,2.52-1.57,3.77
		c-0.21,0.09-0.3,0.24-0.24,0.47c-3.27,2.96-6.41,6.08-10.17,8.27c-0.9-1.84-1.57-3.68-2.62-5.26c-1.06-1.59-2.48-2.93-3.75-4.38
		c0,0,0.01,0,0.01,0C188.54,157.2,186.91,155.17,188.01,152.77z"/>
	<path class="st0" d="M404.62,187.92c1.32-5.31,3.05-6.26,7.93-4.08c1.54,0.69,2.83,0.97,4.3,0.03c2.37-1.52,4.51-1.01,6.4,0.92
		c1.94,1.97,1.29,3.92,0.19,6.09c-0.84,1.65-2.03,2.97-3.08,4.43c-0.23,0.2-0.45,0.39-0.68,0.59c-2.23,1.45-4.22,3.18-5.91,5.23
		c0,0,0.02-0.04,0.02-0.04c-0.51,0.33-1.02,0.66-1.53,0.99l-0.31-0.08c0,0-0.31,0.05-0.31,0.05c-0.04-2.43-0.68-4.55-2.45-6.38
		c-1.61-1.67-2.91-3.64-4.35-5.47C404.77,189.44,404.69,188.68,404.62,187.92z"/>
	<path class="st0" d="M436.58,292.61c-2.67,2.16-5.33,4.31-8.16,6.6c-1.49-1.58-0.68-4.09-2.57-5.15c0,0-0.02,0.02-0.02,0.02
		c-1.14-1.41-2.29-2.82-3.43-4.23c-0.13-0.24-0.27-0.48-0.4-0.72c-0.17-0.26-0.34-0.51-0.51-0.77c0,0-0.01-0.02-0.01-0.02
		c0.04-0.74-0.11-1.41-0.73-1.9c0.13-0.23,0.09-0.43-0.11-0.61c1.44-6.03,3.01-6.85,8.64-4.25c1.28,0.59,2.25,0.65,3.47-0.05
		c2-1.14,4.15-1.83,6.16-0.03c2.17,1.93,2.1,4.34,1.21,6.86c-0.2,0.22-0.28,0.47-0.23,0.77c-1.08,1.15-2.16,2.29-3.24,3.44
		C436.64,292.56,436.58,292.61,436.58,292.61z"/>
	<path class="st0" d="M364.51,91.69c0.19-0.17,0.25-0.37,0.18-0.62c1.58-1.37,3.17-2.82,5.44-2.61c2.6,0.24,3.32-1.39,3.77-3.41
		c0,0-0.05,0.03-0.05,0.03c0.29-0.3,0.57-0.61,0.86-0.91c0,0-0.05,0.04-0.05,0.04c0.69-0.05,1.3-0.25,1.66-0.9
		c0,0-0.01,0.01-0.01,0.01c5.53,0.26,6.31,1.22,6.84,8.36c-0.09,0.54-0.18,1.08-0.26,1.62c-1.16,3.64-2.32,7.29-3.52,11.04
		c-1.51-1.04-2.07-2.76-3.87-2.68c0,0,0.01,0.01,0.01,0.01c-1.21-1.59-3.2-1.37-4.8-2.04C367.14,98.15,363.87,96.45,364.51,91.69z"
		/>
	<path class="st0" d="M226.42,242.59c3.35,2.64,3.59,5.5,1.04,8.95c-2.84,3.86-6.48,6.75-10.65,9.84c-0.64-4.01-3.38-6.4-5.4-9.27
		c-1.82-2.58-3.31-5.38-0.8-8.32c2.36-2.75,5-1.56,7.45-0.01c2.29,1.45,3.52-0.54,5.11-1.41
		C224.25,242.45,225.33,242.52,226.42,242.59z"/>
	<path class="st0" d="M513.32,261.54c0.12-0.43,0.25-0.85,0.37-1.28c2.38-2.21,4.89-2.35,7.57-0.55c1.06,0.72,2.11,1.28,3.41,0.33
		c2.88-2.11,5.48-1.08,7.95,0.86c0,0-0.05-0.03-0.05-0.03c0.23,1.91,0.71,3.79-0.5,5.65c-3.01,4.65-6.87,8.3-11.95,10.58
		c0.11-0.2,0.05-0.34-0.16-0.42c-0.34-3.81-2.96-6.12-5.59-8.41c0,0-0.01-0.02-0.01-0.02c-0.23-0.41-0.47-0.81-0.7-1.22
		c-0.11-0.43-0.21-0.86-0.32-1.28C513.34,264.35,513.33,262.95,513.32,261.54z"/>
	<path class="st0" d="M493.37,319.3c0.08-2.03-1.37-3.23-2.51-4.61c-1.42-1.73-2.77-3.53-3.21-5.77c-0.33-1.69-0.22-3.4,1.27-4.58
		c1.42-1.12,3.11-1.44,4.68-0.45c2.09,1.31,3.97,1.48,6.12,0.04c1.65-1.11,3.23-0.16,4.54,0.97c1.75,1.51,1.63,3.44,0.9,5.37
		c-1.25,3.26-4.24,5.09-6.41,7.59c0,0-0.04,0.13-0.04,0.13c-1.56,0.59-2.81,1.6-3.88,2.86l-0.29-0.06c0,0-0.24,0.18-0.24,0.18
		c-0.17-0.19-0.37-0.23-0.6-0.11C493.59,320.34,493.48,319.82,493.37,319.3z"/>
	<path class="st0" d="M137.21,190.69c1.24,2.49,0.59,4.52-1.51,6.2c-0.22-0.05-0.37,0.04-0.43,0.26c-0.35,0.2-0.71,0.4-1.06,0.6
		c0,0-0.03-0.09-0.03-0.09c-3.21,0.06-6.34,1.56-9.62,0.59c0,0-0.02-0.3-0.02-0.3c0.02-2.5,0.04-5,0.06-7.5
		c0.09-0.52,0.19-1.04,0.28-1.56c2.51-4.46,3.43-4.6,7.41-1.12c0,0-0.01,0.33-0.01,0.33c0.39,2.42,1.97,2.56,3.9,2.06
		C136.52,190.34,136.87,190.51,137.21,190.69z"/>
	<path class="st0" d="M269.92,128.25c-1.38-0.38-2.96,0.66-4.22-0.59c0.03-3.07,0.06-6.14,0.09-9.2c0.14-0.51,0.28-1.02,0.42-1.53
		c1.21-1.45,2.77-2.04,4.63-1.87c0.11,0.2,0.27,0.26,0.48,0.17c0.37,0.29,0.75,0.58,1.12,0.88c0,0-0.09-0.04-0.09-0.04
		c0.55,1.73,1.05,3.54,3.51,3.12c0.52,0.15,1.05,0.3,1.57,0.46c1.86,1.93,1.84,4.01,0.47,6.19c-0.22-0.07-0.34,0.01-0.39,0.23
		c-0.39,0.22-0.77,0.44-1.16,0.66l-0.3-0.03c0,0-0.22,0.2-0.22,0.2c-0.72-0.07-1.38,0.04-1.81,0.71l-0.36-0.03
		c0,0-0.32,0.18-0.32,0.18C272.18,127.6,271,127.56,269.92,128.25z"/>
	<path class="st0" d="M222.61,344.49c1.29-1.26,2.47-2.76,4.62-2.32c0.3,0.19,0.6,0.38,0.9,0.58c0.29,0.28,0.58,0.57,0.87,0.85
		c0,0-0.02-0.02-0.02-0.02c0.27,0.31,0.54,0.62,0.81,0.93c0,0-0.05-0.02-0.05-0.02c0.01,1.21,0.82,1.62,1.82,1.92
		c2.05,0.61,4.27,1.37,4.02,3.99c-0.24,2.61-2.54,3.38-4.73,4.02c-0.65,0.19-1.29,0.42-1.93,0.63c-0.53,0.1-1.06,0.2-1.59,0.3
		c-1.65-0.07-3.29-0.14-4.94-0.2c0,0,0.07,0.11,0.07,0.11c-0.1-3.05-0.2-6.09-0.3-9.14C222.31,345.57,222.46,345.03,222.61,344.49z"
		/>
	<path class="st0" d="M218.09,305.86c-1.63,0.43-3.14,1.09-4.29,2.39c-5.85,2.74-11.7,5.49-18.42,8.64
		c3.7-8.17,2.2-14.98-3.18-21.03c-2.33-5.03-5.54-9.68-6.4-15.34c-0.7-4.62,0.21-8.91,2.74-12.74c4.48-6.79,10.96-7.89,17.59-3.21
		c0.23,0.16,0.47,0.31,0.66,0.51c4.61,4.99,8.9,8.61,16.68,4.38c4.61-2.5,10.16,0.29,13.47,4.95c3.4,4.78,3.16,10,0.62,15.03
		c-3.21,6.36-8.96,10.13-14.84,13.69C221.2,304.06,219.64,304.95,218.09,305.86z"/>
	<path class="st0" d="M393.62,195.26c-5.62,3.32-11.11,6.85-17.03,9.66c-5.78,2.74-11.46,5.69-17.36,8.63
		c-0.15-0.49-0.43-0.88-0.34-1.13c2.82-7.45,0.5-13.66-3.96-19.84c-4.9-6.8-8.06-14.32-5.64-23.12c2.8-10.19,12.81-14,20.61-6.88
		c5.18,4.73,9.01,7.78,16.4,3.94c4.38-2.28,9.51,0.4,12.92,4.55c3.56,4.33,3.74,9.1,1.8,14.16c-1.54,4.02-4.75,6.78-7.37,9.99
		C393.66,195.23,393.62,195.26,393.62,195.26z"/>
	<path class="st0" d="M339.85,144.07c5.14-5.28,4.81-10.82,3.27-16.8c-1.38-5.38-2.17-10.93,0.33-16.36
		c2.12-4.59,5.19-8.1,10.52-8.26c5.02-0.15,8.38,2.8,10.11,7.33c1.64,4.3,3.74,6.81,9.08,5.98c4.45-0.7,8.67,2.67,10.22,7.08
		c1.65,4.72-0.01,8.77-3.3,12.19c-1.84,1.91-4.16,3.26-6.61,4.29C368.38,141.63,346.46,144.7,339.85,144.07z"/>
	<path class="st0" d="M308.58,327.61c-0.02-0.69-0.26-1.27-0.87-1.64c-1.39-6.35,1.02-9.08,6.67-7.52c1.51,1.82,3.19,1.77,5.17,0.7
		c2.15-1.16,4.4-1.17,6.05,0.88c1.82,2.26,1.56,4.75-0.15,6.94c-2.58,3.32-5.71,6.1-9.06,8.63c-1.05,0.79-2.23,1.63-2.76-0.47
		C312.86,332,310.53,329.94,308.58,327.61z"/>
	<path class="st0" d="M503.6,236.36c-0.24-0.31-0.48-0.63-0.72-0.94c-2.93-10.14,0.32-14.86,11.85-16.39
		c2.99-0.4,3.98-1.58,4.52-4.25c1.33-6.57,5.19-10.13,10.77-10.27c5.5-0.14,10.21,3.66,11.94,9.81c1.89,6.74,1.02,13.53,0,20.29
		c-0.84,5.58-1.83,11.13-2.98,18.09c-4.54-7.86-11.19-7.94-17.95-8.05c-4.36-0.07-8.41-1.7-12.43-3.28
		C506.94,239.7,505.27,238.03,503.6,236.36z"/>
	<path class="st0" d="M102.74,157.47c-4.85-1.87-8.68-0.25-12.56,1.23c-2.13,0.81-4.26,0.9-6.51,0.14c-2.39-0.8-4.39-2.07-5.03-4.51
		c-0.69-2.62,0.92-4.61,2.89-5.99c2.16-1.51,3.16-3.13,2.7-5.88c-0.48-2.85,0.66-5.37,3.55-6.33c3.06-1.01,5.72-0.04,7.68,2.64
		C99.39,144.16,100.61,150.55,102.74,157.47z"/>
	<path class="st0" d="M412.26,334.15c0-1.67-0.05-2.78,0.01-3.88c0.12-2.03,1.44-3.34,3.1-4.08c1.78-0.79,2.91,0.72,3.65,1.97
		c0.89,1.5,2.15,1.96,3.67,2.3c1.46,0.33,2.49,1.29,2.75,2.78c0.3,1.72-0.69,2.9-2.02,3.79c-2.9,1.94-6.38,2.39-9.55,2.06
		C410.44,338.74,413.41,335.31,412.26,334.15z"/>
	<path class="st0" d="M121.06,332.68c-0.26-0.29-0.52-0.58-0.77-0.87c1.84-1.85,4.85-0.49,6.67-2.42c3.26-0.93,4.51-3.89,6.33-6.27
		c1-1.21,2-2.43,3-3.64c2.55-1.61,4.9-3.51,7.88-4.45c4.06-1.28,7.62-0.8,10.74,2.18c3.08,2.95,2.67,6.44,1.42,9.99
		c-0.5,1.43-1.11,2.83-1.83,4.17c-0.85,1.59-0.85,2.88,0.86,3.83c4.2,5.11,4.79,9.55,1.81,13.56c-2.79,3.75-7.91,4.56-13.67,2.47
		c-5.3-1.93-8.66-6.41-13.08-9.5c-0.9-1.35-2.06-2.41-3.44-3.25C125.41,336.14,123.18,334.47,121.06,332.68z"/>
</g>
<g>
	<path class="st1" d="M724.79,216.21c0.44,0.56,0.63,1.31,0.63,2.13c0,2.25-1.81,4.13-4.07,4.13c-1.44,0-2.69-0.81-3.5-1.94
		l-8.13-11.88h-5.38v9.13c0,2.56-2.06,4.69-4.69,4.69c-2.56,0-4.69-2.13-4.69-4.69v-30.15c0-3.06,1.75-4.82,4.82-4.82h11.38
		c9.01,0,14.76,4.82,14.76,12.76c0,5.57-2.75,9.63-7.44,11.57L724.79,216.21z M704.34,190.88v9.69h6c4.5,0,6.19-1.56,6.19-4.88
		s-1.69-4.82-6.25-4.82H704.34z"/>
	<path class="st1" d="M729.05,207.7c0-8.13,5.82-15.01,14.51-15.01c8.76,0,14.32,5.75,14.45,13.45c0,2.31-1.38,3.63-3.75,3.63h-16.2
		c0.25,3.31,3.5,5.63,8.01,5.63c1.75,0,4-0.25,6.25-0.94c2.06-0.56,4.07,1,4.07,3.13c0,1.31-0.81,2.5-1.94,3
		c-3.88,1.69-7.51,1.81-9.19,1.81C736.05,222.4,729.05,216.64,729.05,207.7z M749.31,204.2c-0.38-2.69-2.56-4.57-5.57-4.57
		c-2.88,0-5.19,1.88-5.69,4.57H749.31z"/>
	<path class="st1" d="M760.7,207.58c0-8.88,6.57-14.95,15.32-14.95c2.06,0,4,0.31,5.88,0.94c1.56,0.44,2.75,1.88,2.75,3.63
		c0,2.38-2.19,4.19-4.44,3.75c-0.75-0.31-1.69-0.44-2.75-0.44c-4.38,0-7.82,2.25-7.82,7.07s3.44,7.07,7.82,7.07
		c1,0,1.88-0.13,2.69-0.44c2.19-0.63,4.44,1.31,4.44,3.75c0,1.69-1.19,3.13-2.69,3.56c-1.88,0.69-3.81,0.94-5.88,0.94
		C767.26,222.46,760.7,216.46,760.7,207.58z"/>
	<path class="st1" d="M787.21,207.51c0-8.13,6.63-14.89,15.51-14.89c8.76,0,15.45,6.82,15.45,14.89c0,8.63-6.94,14.95-15.57,14.95
		C794.03,222.46,787.21,215.96,787.21,207.51z M809.23,207.51c0-4.07-2.69-7.01-6.63-7.01c-3.88,0-6.44,3-6.44,7.01
		c0,4.19,2.63,7.07,6.57,7.07C806.6,214.58,809.23,211.77,809.23,207.51z"/>
	<path class="st1" d="M822.24,217.96v-20.7c0-2.5,1.94-4.57,4.44-4.57c2.19,0,4,1.69,4.44,3.75v1.13c1.88-2.94,4.88-4.88,8.57-4.88
		c7.07,0,10.95,4.75,10.95,11.95v13.32c0,2.44-2,4.5-4.5,4.5c-2.44,0-4.44-2.06-4.44-4.5v-11.63c0-4.25-2-6.19-5.07-6.19
		c-3.19,0-5.5,2.06-5.5,6.32v11.51c0,2.44-1.94,4.5-4.44,4.5S822.24,220.4,822.24,217.96z"/>
	<path class="st1" d="M854.2,207.58c0-8.88,6.57-14.95,15.32-14.95c2.06,0,4,0.31,5.88,0.94c1.56,0.44,2.75,1.88,2.75,3.63
		c0,2.38-2.19,4.19-4.44,3.75c-0.75-0.31-1.69-0.44-2.75-0.44c-4.38,0-7.82,2.25-7.82,7.07s3.44,7.07,7.82,7.07
		c1,0,1.88-0.13,2.69-0.44c2.19-0.63,4.44,1.31,4.44,3.75c0,1.69-1.19,3.13-2.69,3.56c-1.88,0.69-3.82,0.94-5.88,0.94
		C860.77,222.46,854.2,216.46,854.2,207.58z"/>
	<path class="st1" d="M881.35,186.37c0-2.56,2.06-4.44,4.94-4.44c2.94,0,4.94,1.94,4.94,4.44s-2,4.32-4.94,4.32
		C883.41,190.69,881.35,188.87,881.35,186.37z M881.85,217.96v-20.77c0-2.44,2-4.5,4.5-4.5c2.44,0,4.44,2.06,4.44,4.5v20.77
		c0,2.44-2,4.5-4.5,4.5C883.85,222.46,881.85,220.4,881.85,217.96z"/>
	<path class="st1" d="M895.98,217.96v-31.52c0-2.44,1.94-4.5,4.44-4.5s4.44,2.06,4.44,4.5v31.52c0,2.44-1.94,4.5-4.44,4.5
		S895.98,220.4,895.98,217.96z"/>
	<path class="st1" d="M909.56,186.37c0-2.56,2.06-4.44,4.94-4.44c2.94,0,4.94,1.94,4.94,4.44s-2,4.32-4.94,4.32
		C911.62,190.69,909.56,188.87,909.56,186.37z M910.06,217.96v-20.77c0-2.44,2-4.5,4.5-4.5c2.44,0,4.44,2.06,4.44,4.5v20.77
		c0,2.44-2,4.5-4.5,4.5C912.06,222.46,910.06,220.4,910.06,217.96z"/>
	<path class="st1" d="M922.94,213.33c0-5.75,4.5-9.13,10.76-9.13c2.94,0,5.63,0.75,7.25,1.88v-1.63c0-2.44-1.63-3.94-4.57-4.25
		c-2.06-0.44-4.69-0.13-7.25,0.44c-2,0.5-4.19-1.06-4.19-3.25c0-1.5,1.06-2.75,2.44-3.19c2.69-0.94,5.75-1.5,8.88-1.5
		c9.07,0,13.57,3.94,13.57,11.76v13.07c0,2.75-1.75,4.94-4.44,4.94c-2,0-3.82-1.25-4.44-3.19v-0.19c-1.88,1.94-4.63,3.38-8.13,3.38
		C927.26,222.46,922.94,219.02,922.94,213.33z M941.33,212.89c0-2.31-2.63-3.31-4.82-3.31c-2.31,0-4.63,1-4.63,3.25
		c0,2.25,2.31,3.31,4.63,3.31C938.76,216.14,941.33,215.08,941.33,212.89z"/>
	<path class="st1" d="M968.79,222.27c-3.88,0.5-6.75,0.19-8.82-1.19c-2.25-1.63-3.38-4.5-3.38-9.01v-11.01h-0.88
		c-1.94,0-3.5-1.81-3.5-3.75c0-2,1.63-3.75,3.57-3.75h0.81V190c0-2.44,2-4.5,4.5-4.5c2.44,0,4.44,2.06,4.44,4.5v3.56h1.75
		c2.06,0,3.75,1.69,3.75,3.75s-1.69,3.75-3.75,3.75h-1.75v10.07c0,1.56,0.38,2.5,1.06,3c0.5,0.44,1.19,0.5,2,0.44
		c1.94,0.13,3.56,1.81,3.56,3.88C972.16,220.4,970.66,222.02,968.79,222.27z"/>
	<path class="st1" d="M975.11,186.37c0-2.56,2.06-4.44,4.94-4.44c2.94,0,4.94,1.94,4.94,4.44s-2,4.32-4.94,4.32
		C977.17,190.69,975.11,188.87,975.11,186.37z M975.61,217.96v-20.77c0-2.44,2-4.5,4.5-4.5c2.44,0,4.44,2.06,4.44,4.5v20.77
		c0,2.44-2,4.5-4.5,4.5C977.61,222.46,975.61,220.4,975.61,217.96z"/>
	<path class="st1" d="M988.68,207.51c0-8.13,6.63-14.89,15.51-14.89c8.76,0,15.45,6.82,15.45,14.89c0,8.63-6.94,14.95-15.57,14.95
		C995.49,222.46,988.68,215.96,988.68,207.51z M1010.69,207.51c0-4.07-2.69-7.01-6.63-7.01c-3.88,0-6.44,3-6.44,7.01
		c0,4.19,2.63,7.07,6.57,7.07C1008.07,214.58,1010.69,211.77,1010.69,207.51z"/>
	<path class="st1" d="M1023.7,217.96v-20.7c0-2.5,1.94-4.57,4.44-4.57c2.19,0,4,1.69,4.44,3.75v1.13c1.88-2.94,4.88-4.88,8.57-4.88
		c7.07,0,10.95,4.75,10.95,11.95v13.32c0,2.44-2,4.5-4.5,4.5c-2.44,0-4.44-2.06-4.44-4.5v-11.63c0-4.25-2-6.19-5.07-6.19
		c-3.19,0-5.5,2.06-5.5,6.32v11.51c0,2.44-1.94,4.5-4.44,4.5S1023.7,220.4,1023.7,217.96z"/>
	<path class="st1" d="M695.08,291.26c0.44,0.56,0.63,1.31,0.63,2.13c0,2.25-1.81,4.13-4.07,4.13c-1.44,0-2.69-0.81-3.5-1.94
		l-8.13-11.88h-5.38v9.13c0,2.56-2.06,4.69-4.69,4.69c-2.56,0-4.69-2.13-4.69-4.69v-30.15c0-3.07,1.75-4.82,4.82-4.82h11.38
		c9.01,0,14.76,4.82,14.76,12.76c0,5.57-2.75,9.63-7.44,11.57L695.08,291.26z M674.63,265.93v9.69h6c4.5,0,6.19-1.56,6.19-4.88
		c0-3.32-1.69-4.82-6.25-4.82H674.63z"/>
	<path class="st1" d="M699.65,282.57c0-8.13,6.63-14.89,15.51-14.89c8.76,0,15.45,6.82,15.45,14.89c0,8.63-6.94,14.95-15.57,14.95
		C706.47,297.52,699.65,291.01,699.65,282.57z M721.66,282.57c0-4.07-2.69-7-6.63-7c-3.88,0-6.44,3-6.44,7
		c0,4.19,2.63,7.07,6.57,7.07C719.04,289.64,721.66,286.82,721.66,282.57z"/>
	<path class="st1" d="M733.49,288.39c0-5.75,4.5-9.13,10.76-9.13c2.94,0,5.63,0.75,7.25,1.88v-1.63c0-2.44-1.63-3.94-4.57-4.25
		c-2.06-0.44-4.69-0.13-7.26,0.44c-2,0.5-4.19-1.06-4.19-3.25c0-1.5,1.06-2.75,2.44-3.19c2.69-0.94,5.75-1.5,8.88-1.5
		c9.07,0,13.57,3.94,13.57,11.76v13.07c0,2.75-1.75,4.94-4.44,4.94c-2,0-3.82-1.25-4.44-3.19v-0.19c-1.88,1.94-4.63,3.38-8.13,3.38
		C737.8,297.52,733.49,294.08,733.49,288.39z M751.88,287.95c0-2.31-2.63-3.31-4.82-3.31c-2.31,0-4.63,1-4.63,3.25
		c0,2.25,2.31,3.32,4.63,3.32C749.31,291.2,751.88,290.14,751.88,287.95z"/>
	<path class="st1" d="M786.03,294.14v-0.94c-2.13,2.5-5.38,4.32-9.44,4.32c-7.19,0-13.01-6.19-13.01-15.14
		c0-9.19,6.19-14.76,13.01-14.76c4.07,0,7.19,1.81,9.44,4.5v-10.63c0-2.44,1.94-4.5,4.44-4.5s4.44,2.06,4.44,4.5v31.52
		c0,2.44-1.94,4.5-4.44,4.5C788.4,297.52,786.59,296.14,786.03,294.14z M786.03,285.76v-6.82c-1.19-2.63-3.75-4.19-6.44-4.19
		c-4.38,0-7.07,3.25-7.07,7.63c0,4.44,2.63,7.63,7.07,7.63C782.27,290.01,784.78,288.57,786.03,285.76z"/>
	<path class="st1" d="M811.17,277.19c0-11.7,8.44-20.2,20.83-20.2c2.63,0,5.82,0.56,8.69,1.81c1.38,0.56,2.44,1.88,2.44,3.5
		c0,2.13-1.75,3.88-3.88,3.88c-0.44,0-0.81-0.06-1.19-0.25c-2-0.75-4-1.06-5.63-1.06c-6.94,0-11.88,4.82-11.88,12.38
		c0,7.57,4.94,12.38,11.88,12.38c1.63,0,3.63-0.31,5.63-1.06c0.38-0.19,0.75-0.13,1.19-0.13c2.13,0,3.82,1.69,3.82,3.75
		c0,1.56-1,2.94-2.38,3.5c-2.88,1.25-6.07,1.81-8.69,1.81C819.55,297.52,811.17,288.95,811.17,277.19z"/>
	<path class="st1" d="M847.2,293.02v-31.52c0-2.44,1.94-4.5,4.44-4.5s4.44,2.06,4.44,4.5v11.07c1.88-2.88,4.88-4.88,8.63-4.88
		c7,0,10.95,4.75,10.95,12.01v13.32c0,2.44-2,4.5-4.5,4.5c-2.44,0-4.44-2.06-4.44-4.5v-10.38c0-4.32-2.06-6.69-5.13-6.69
		c-3.19,0-5.5,2.56-5.5,6.82v10.26c0,2.44-1.94,4.5-4.44,4.5S847.2,295.45,847.2,293.02z"/>
	<path class="st1" d="M879.35,288.39c0-5.75,4.5-9.13,10.76-9.13c2.94,0,5.63,0.75,7.25,1.88v-1.63c0-2.44-1.63-3.94-4.57-4.25
		c-2.06-0.44-4.69-0.13-7.25,0.44c-2,0.5-4.19-1.06-4.19-3.25c0-1.5,1.06-2.75,2.44-3.19c2.69-0.94,5.75-1.5,8.88-1.5
		c9.07,0,13.57,3.94,13.57,11.76v13.07c0,2.75-1.75,4.94-4.44,4.94c-2,0-3.82-1.25-4.44-3.19v-0.19c-1.88,1.94-4.63,3.38-8.13,3.38
		C883.66,297.52,879.35,294.08,879.35,288.39z M897.74,287.95c0-2.31-2.63-3.31-4.82-3.31c-2.31,0-4.63,1-4.63,3.25
		c0,2.25,2.31,3.32,4.63,3.32C895.17,291.2,897.74,290.14,897.74,287.95z"/>
	<path class="st1" d="M910.87,293.02v-31.52c0-2.44,1.94-4.5,4.44-4.5s4.44,2.06,4.44,4.5v31.52c0,2.44-1.94,4.5-4.44,4.5
		S910.87,295.45,910.87,293.02z"/>
	<path class="st1" d="M924.88,293.02v-31.52c0-2.44,1.94-4.5,4.44-4.5s4.44,2.06,4.44,4.5v31.52c0,2.44-1.94,4.5-4.44,4.5
		S924.88,295.45,924.88,293.02z"/>
	<path class="st1" d="M937.52,282.76c0-8.13,5.82-15.01,14.51-15.01c8.76,0,14.32,5.75,14.45,13.45c0,2.31-1.38,3.63-3.75,3.63
		h-16.2c0.25,3.32,3.5,5.63,8.01,5.63c1.75,0,4-0.25,6.25-0.94c2.06-0.56,4.07,1,4.07,3.13c0,1.31-0.81,2.5-1.94,3
		c-3.88,1.69-7.51,1.81-9.19,1.81C944.52,297.46,937.52,291.7,937.52,282.76z M957.78,279.25c-0.38-2.69-2.56-4.57-5.57-4.57
		c-2.88,0-5.19,1.88-5.69,4.57H957.78z"/>
	<path class="st1" d="M970.35,293.02v-20.7c0-2.5,1.94-4.57,4.44-4.57c2.19,0,4,1.69,4.44,3.75v1.13c1.88-2.94,4.88-4.88,8.57-4.88
		c7.07,0,10.95,4.75,10.95,11.95v13.32c0,2.44-2,4.5-4.5,4.5c-2.44,0-4.44-2.06-4.44-4.5v-11.63c0-4.25-2-6.19-5.07-6.19
		c-3.19,0-5.5,2.06-5.5,6.32v11.51c0,2.44-1.94,4.5-4.44,4.5S970.35,295.45,970.35,293.02z"/>
	<path class="st1" d="M1006.94,304.96c-1.38-0.5-2.38-1.81-2.38-3.31c0-2.56,2.56-4.25,4.82-3.38c2.06,0.88,4.25,1.38,6.44,1.38
		c5.13,0,8.07-2.13,8.07-6.5v-1.44c-2.06,2.13-5,3.75-9.07,3.75c-6.88,0-12.51-5.75-12.51-14.07c0-8.51,6-13.64,12.57-13.64
		c4,0,6.88,1.38,9.01,3.75l0.13-0.5c0.63-1.75,2.44-3,4.38-3c2.44,0,4.44,2.06,4.44,4.5v18.01c0,10.76-4.44,16.39-15.45,16.39
		C1014.07,306.9,1010.32,306.21,1006.94,304.96z M1023.89,284.57v-6.13c-1.13-2.5-3.5-3.88-6.07-3.88c-4,0-6.63,2.82-6.63,6.82
		c0,4.19,2.63,7.19,6.63,7.19C1020.39,288.57,1022.71,287.14,1023.89,284.57z"/>
	<path class="st1" d="M1036.65,282.76c0-8.13,5.82-15.01,14.51-15.01c8.76,0,14.32,5.75,14.45,13.45c0,2.31-1.38,3.63-3.75,3.63
		h-16.2c0.25,3.32,3.5,5.63,8.01,5.63c1.75,0,4-0.25,6.25-0.94c2.06-0.56,4.07,1,4.07,3.13c0,1.31-0.81,2.5-1.94,3
		c-3.88,1.69-7.51,1.81-9.19,1.81C1043.66,297.46,1036.65,291.7,1036.65,282.76z M1056.92,279.25c-0.38-2.69-2.56-4.57-5.57-4.57
		c-2.88,0-5.19,1.88-5.69,4.57H1056.92z"/>
</g>
<line class="st2" x1="1188.95" y1="110.21" x2="1188.95" y2="468.87"/>
<g>
	<path d="M466.86,406.11c0.12-10.96,8.43-19.38,19.26-19.38c3.43,0,6.68,0.84,9.57,2.35c0.72,0.36,1.26,1.14,1.26,1.99
		c0,1.26-1.02,2.29-2.29,2.29c-0.36,0-0.72-0.06-1.02-0.24c-2.11-1.08-4.51-1.63-7.4-1.63c-8.19,0-14.03,6.14-14.09,14.75
		c0.06,8.61,5.9,14.75,14.09,14.75c2.89,0,5.3-0.54,7.4-1.63c0.3-0.18,0.66-0.24,1.02-0.24c1.26,0,2.29,1.02,2.29,2.29
		c0,0.84-0.54,1.63-1.26,1.99c-2.89,1.5-6.14,2.35-9.57,2.35C475.23,425.73,466.86,417.18,466.86,406.11z"/>
	<path d="M501.29,411.4c0-8.01,6.32-14.33,14.39-14.33c8.01,0,14.33,6.38,14.33,14.33c0,8.13-6.32,14.33-14.45,14.33
		C507.61,425.73,501.29,419.47,501.29,411.4z M525.13,411.4c0-5.72-3.97-9.75-9.57-9.75c-5.6,0-9.39,3.97-9.39,9.75
		c0,5.84,3.85,9.75,9.51,9.75C521.33,421.16,525.13,417.3,525.13,411.4z"/>
	<path d="M535.42,423.26v-23.72c0-1.32,1.08-2.47,2.41-2.47c1.38,0,2.47,1.14,2.47,2.47v2.11c1.75-2.41,4.15-4.58,8.43-4.58
		s7.52,2.29,9.09,5.12c2.29-3.43,5.42-5.12,9.45-5.12c6.38,0,10.53,4.33,10.53,11.02v15.17c0,1.32-1.08,2.47-2.47,2.47
		c-1.32,0-2.41-1.14-2.41-2.47V409.6c0-5.06-2.41-7.95-6.68-7.95c-4.21,0-7.1,3.31-7.1,8.13v13.48c0,1.32-1.08,2.47-2.47,2.47
		c-1.32,0-2.41-1.14-2.41-2.47v-13.79c0-4.88-2.59-7.83-6.74-7.83c-4.15,0-7.22,3.55-7.22,8.31v13.3c0,1.32-1.08,2.47-2.41,2.47
		C536.5,425.73,535.42,424.59,535.42,423.26z"/>
	<path d="M584.72,423.26v-23.72c0-1.32,1.08-2.47,2.41-2.47c1.38,0,2.47,1.14,2.47,2.47v2.11c1.75-2.41,4.15-4.58,8.43-4.58
		s7.52,2.29,9.09,5.12c2.29-3.43,5.42-5.12,9.45-5.12c6.38,0,10.53,4.33,10.53,11.02v15.17c0,1.32-1.08,2.47-2.47,2.47
		c-1.32,0-2.41-1.14-2.41-2.47V409.6c0-5.06-2.41-7.95-6.68-7.95c-4.21,0-7.1,3.31-7.1,8.13v13.48c0,1.32-1.08,2.47-2.47,2.47
		c-1.32,0-2.41-1.14-2.41-2.47v-13.79c0-4.88-2.59-7.83-6.74-7.83c-4.15,0-7.22,3.55-7.22,8.31v13.3c0,1.32-1.08,2.47-2.41,2.47
		C585.8,425.73,584.72,424.59,584.72,423.26z"/>
	<path d="M634.2,414.78v-15.23c0-1.32,1.08-2.47,2.47-2.47c1.32,0,2.41,1.14,2.41,2.47v13.72c0,4.94,2.65,7.89,7.16,7.89
		c4.64,0,7.83-3.37,7.83-8.19v-13.42c0-1.32,1.08-2.47,2.47-2.47c1.32,0,2.41,1.14,2.41,2.47v23.72c0,1.32-1.08,2.47-2.41,2.47
		c-1.38,0-2.47-1.14-2.47-2.47v-2.23c-2.17,3.13-5.12,4.7-8.97,4.7C638.59,425.73,634.2,421.28,634.2,414.78z"/>
	<path d="M665.92,423.26v-23.72c0-1.32,1.08-2.47,2.41-2.47c1.38,0,2.47,1.14,2.47,2.47v2.23c2.17-3.13,5.12-4.7,8.97-4.7
		c6.5,0,10.9,4.45,10.9,10.96v15.23c0,1.32-1.08,2.47-2.47,2.47c-1.32,0-2.41-1.14-2.41-2.47v-13.72c0-4.94-2.65-7.89-7.16-7.89
		c-4.63,0-7.83,3.37-7.83,8.19v13.42c0,1.32-1.08,2.47-2.47,2.47C667,425.73,665.92,424.59,665.92,423.26z"/>
	<path d="M697.22,423.26v-23.72c0-1.32,1.08-2.47,2.47-2.47c1.32,0,2.41,1.14,2.41,2.47v23.72c0,1.32-1.08,2.47-2.47,2.47
		C698.3,425.73,697.22,424.59,697.22,423.26z"/>
	<path d="M719.73,425.31c-2.95,0.66-5.3,0.48-6.86-0.6c-1.81-1.38-2.65-3.67-2.65-7.04V402.5h-1.63c-1.26,0-2.29-1.02-2.29-2.29
		c0-1.26,1.02-2.29,2.29-2.29h1.63v-4.51c0-1.32,1.08-2.47,2.47-2.47c1.32,0,2.41,1.14,2.41,2.47v4.51h2.47
		c1.26,0,2.29,1.02,2.29,2.29c0,1.26-1.02,2.29-2.29,2.29h-2.47v14.87c0,1.57,0.3,2.65,0.9,3.13c0.66,0.6,1.69,0.66,2.89,0.42
		c1.32-0.24,2.59,0.84,2.59,2.23C721.48,424.17,720.7,425.07,719.73,425.31z"/>
	<path d="M729.96,432.29c0-0.18,0-0.54,0.12-0.84l3.19-8.61l-8.67-22.45c-0.12-0.24-0.18-0.54-0.18-0.9c0-1.32,1.14-2.41,2.47-2.41
		c1.02,0,1.87,0.66,2.23,1.57l6.8,18.12l6.8-18.12c0.36-0.9,1.2-1.57,2.23-1.57c1.32,0,2.41,1.08,2.41,2.41c0,0.36,0,0.66-0.12,0.9
		l-12.58,32.81c-0.36,0.9-1.26,1.57-2.29,1.57C731.05,434.76,729.96,433.68,729.96,432.29z"/>
	<path d="M763.55,411.4c0-8.01,6.32-14.33,14.39-14.33c8.01,0,14.33,6.38,14.33,14.33c0,8.13-6.32,14.33-14.45,14.33
		C769.87,425.73,763.55,419.47,763.55,411.4z M787.39,411.4c0-5.72-3.97-9.75-9.57-9.75c-5.6,0-9.39,3.97-9.39,9.75
		c0,5.84,3.85,9.75,9.51,9.75C783.6,421.16,787.39,417.3,787.39,411.4z"/>
	<path d="M798.16,423.26V402.5h-1.93c-1.26,0-2.29-1.02-2.29-2.29c0-1.26,1.02-2.29,2.29-2.29h1.93v-2.53c0-3.13,0.72-5.36,2.11-6.8
		c1.26-1.26,3.01-1.87,5.24-1.87c1.75,0,2.83,0.54,2.83,2.35c0,1.38-1.2,2.29-2.71,2.29c-0.84,0-1.45,0.18-1.87,0.66
		c-0.48,0.54-0.72,1.57-0.72,3.13v2.77h3.01c1.26,0,2.29,1.02,2.29,2.29c0,1.26-1.02,2.29-2.29,2.29h-3.01v20.77
		c0,1.32-1.08,2.47-2.41,2.47C799.25,425.73,798.16,424.59,798.16,423.26z"/>
	<path d="M826.87,424.89c-1.56,0-2.47-0.9-2.47-2.47v-32.39c0-1.57,0.9-2.47,2.47-2.47h12.52c7.52,0,12.34,4.09,12.34,10.53
		c0,3.49-2.89,6.68-4.88,7.71c2.89,1.08,6.08,4.58,6.08,8.49c0,6.5-4.82,10.59-12.4,10.59H826.87z M829.7,403.82h9.69
		c4.57,0,7.04-2.05,7.04-5.72c0-3.61-2.59-5.78-7.04-5.78h-9.69V403.82z M829.7,420.13h10.96c4.45,0,6.98-2.17,6.98-5.84
		c0-3.61-2.53-5.66-6.98-5.66H829.7V420.13z"/>
	<path d="M858.24,423.26v-23.72c0-1.32,1.08-2.47,2.47-2.47c1.32,0,2.41,1.14,2.41,2.47v23.72c0,1.32-1.08,2.47-2.47,2.47
		C859.32,425.73,858.24,424.59,858.24,423.26z"/>
	<path d="M871.72,432.41c-0.72-0.36-1.26-1.08-1.26-1.93c0-1.57,1.57-2.71,3.13-1.99c2.53,1.2,4.94,1.69,7.4,1.69
		c5.48,0,8.37-2.41,8.37-8.31v-1.26c-2.35,2.35-5.24,3.55-8.43,3.55c-7.22,0-12.82-6.02-12.82-13.66c0-8.43,6.5-13.42,12.82-13.42
		c3.19,0,6.02,1.2,8.43,3.73v-0.66c0-1.32,1.08-2.47,2.47-2.47c1.32,0,2.41,1.14,2.41,2.47v21.61c0,8.43-4.75,13-13.24,13
		C877.74,434.76,874.55,433.8,871.72,432.41z M889.36,414.35v-7.52c-1.5-3.07-4.57-5.18-7.71-5.18c-5.06,0-8.67,3.55-8.67,8.85
		c0,5.48,3.49,9.09,8.67,9.09C884.84,419.59,887.85,417.43,889.36,414.35z"/>
	<path d="M914.16,423.08v-33.71c0-1.44,1.2-2.65,2.65-2.65c1.45,0,2.65,1.2,2.65,2.65v13.66h19.26v-13.66c0-1.44,1.2-2.65,2.65-2.65
		c1.44,0,2.65,1.2,2.65,2.65v33.71c0,1.44-1.2,2.65-2.65,2.65c-1.45,0-2.65-1.2-2.65-2.65v-15.29h-19.26v15.29
		c0,1.44-1.2,2.65-2.65,2.65C915.36,425.73,914.16,424.53,914.16,423.08z"/>
	<path d="M949.91,411.65c0-7.22,4.88-14.57,13.36-14.57c7.83,0,12.58,6.08,12.88,12.28c0,1.87-0.42,3.01-2.41,3.01h-18.96
		c0.3,5.54,4.03,8.79,9.93,8.79c2.41,0,4.51-0.42,6.56-1.26c1.44-0.54,2.95,0.42,2.95,1.93c0,0.78-0.42,1.5-1.08,1.87
		c-2.47,1.38-5.3,2.05-8.43,2.05C956.35,425.73,949.91,419.65,949.91,411.65z M971.28,408.46c-0.3-3.85-3.73-6.8-8.07-6.8
		c-4.27,0-7.71,2.89-8.19,6.8H971.28z"/>
	<path d="M980.01,416.64c0-5.12,4.75-8.85,11.26-8.85c3.43,0,6.32,1.02,8.13,2.89v-3.13c0-3.73-2.65-5.9-7.46-5.9
		c-2.11,0-4.03,0.48-5.9,1.2c-1.26,0.48-3.01-0.42-3.01-2.05c0-0.9,0.54-1.63,1.38-1.99c2.29-0.96,5.24-1.75,8.43-1.75
		c6.92,0,11.44,3.91,11.44,10.11v16.07c0,1.38-1.08,2.47-2.41,2.47c-1.32,0-2.47-0.96-2.47-2.71v-0.3c-1.38,1.5-4.58,3.07-8.13,3.07
		C984.64,425.79,980.01,422,980.01,416.64z M999.51,416.64c0-3.25-3.97-4.75-7.58-4.75c-3.61,0-7.04,1.5-7.04,4.75
		c0,3.31,3.43,4.76,7.04,4.76C995.6,421.4,999.51,419.95,999.51,416.64z"/>
	<path d="M1011.07,423.26v-23.72c0-1.32,1.08-2.47,2.41-2.47c1.38,0,2.47,1.14,2.47,2.47v1.26c1.26-1.57,3.25-2.65,5.54-3.01
		c1.32-0.18,2.53,0.84,2.53,2.17c0,1.2-1.08,1.99-2.29,2.17c-2.59,0.42-5.78,1.56-5.78,4.51v16.61c0,1.32-1.08,2.47-2.41,2.47
		C1012.15,425.73,1011.07,424.59,1011.07,423.26z"/>
	<path d="M1040.08,425.31c-2.95,0.66-5.3,0.48-6.86-0.6c-1.81-1.38-2.65-3.67-2.65-7.04V402.5h-1.63c-1.26,0-2.29-1.02-2.29-2.29
		c0-1.26,1.02-2.29,2.29-2.29h1.63v-4.51c0-1.32,1.08-2.47,2.47-2.47c1.32,0,2.41,1.14,2.41,2.47v4.51h2.47
		c1.26,0,2.29,1.02,2.29,2.29c0,1.26-1.02,2.29-2.29,2.29h-2.47v14.87c0,1.57,0.3,2.65,0.9,3.13c0.66,0.6,1.69,0.66,2.89,0.42
		c1.32-0.24,2.59,0.84,2.59,2.23C1041.83,424.17,1041.04,425.07,1040.08,425.31z"/>
	<path d="M1045.62,423.08c-0.6-0.42-1.02-1.08-1.02-1.87c0-1.87,2.17-2.65,3.25-1.93c3.19,1.75,4.76,1.87,6.8,1.87
		c3.43,0,5.48-1.38,5.48-3.61c0-1.45-1.08-2.59-3.31-3.37l-5-1.69c-4.75-1.63-6.86-3.97-6.86-7.64c0-4.58,4.03-7.77,9.81-7.77
		c2.89,0,6.08,1.08,8.43,2.53c0.66,0.42,1.02,1.08,1.02,1.87c0,1.63-1.69,2.77-3.25,1.93c-3.07-1.63-4.39-1.75-6.2-1.75
		c-3.07,0-4.94,1.26-4.94,3.19c0,1.32,0.84,2.05,4.03,3.19l5,1.81c3.97,1.44,6.14,4.09,6.14,7.71c0,4.75-4.33,8.19-10.35,8.19
		C1051.4,425.73,1048.03,424.65,1045.62,423.08z"/>
</g>
<path class="st0" d="M702.02,392.41c0,0,0.02-0.02,0.02-0.02c-0.22-0.36-0.61-0.6-0.73-1.03c-0.02-0.04-0.04-0.08-0.07-0.12
	c-0.25-0.47-0.31-0.96-0.17-1.47c0,0,0-0.01,0-0.01c0.01-0.03,0.01-0.05,0.02-0.08c0,0,0-0.01,0-0.01c0.01-0.03,0.01-0.05,0.02-0.08
	c0,0,0-0.01,0-0.01c0.01-0.03,0.01-0.05,0.02-0.08c0,0,0-0.01,0-0.01c0.05-0.37,0.18-0.71,0.34-1.04c0,0,0,0,0,0
	c0.01-0.03,0.02-0.06,0.02-0.09c0,0,0,0,0,0c0.01-0.03,0.02-0.06,0.03-0.09c0,0,0-0.01,0-0.01c0.02-0.05,0.03-0.1,0.05-0.14
	c0.01-0.02,0.02-0.05,0.03-0.07c0.01-0.03,0.02-0.07,0.03-0.1l0,0c0.07-0.34,0.14-0.68,0.22-1.02c0,0,0,0,0,0
	c0-0.03,0.01-0.06,0.01-0.09l0,0c0-0.03,0.01-0.07,0.01-0.1c0,0,0,0.01,0,0.01c0-0.03,0.01-0.07,0.01-0.1c0,0,0,0.01,0,0.01
	c0-0.13,0-0.27,0-0.4c0.02-0.94-0.2-1.8-0.79-2.56c-0.86-1.11-2.26-1.26-3.32-0.36c-0.57,0.49-0.9,1.13-1.18,1.8
	c-0.13,0.31-0.28,0.4-0.57,0.26c0,0,0,0,0,0c-0.03-0.01-0.07-0.01-0.1-0.02l0.01,0c-0.14,0.03-0.27-0.02-0.4-0.07
	c-0.02,0.01-0.04,0-0.06-0.02c-0.05,0.01-0.1,0.02-0.14-0.02l-0.02,0c-0.53-0.06-1.04,0.05-1.54,0.23
	c-0.04,0.02-0.08,0.05-0.12,0.07c-0.59,0.39-0.98,0.93-1.2,1.59l0,0.01c0.01,0.13-0.01,0.25-0.06,0.37c0,0,0,0,0,0
	c0.02,0.94,0.41,1.71,1.12,2.33c0.41,0.35,0.89,0.58,1.35,0.85c0.06-0.02,0.1,0.02,0.14,0.06c0.19,0.04,0.36,0.12,0.53,0.21
	c0.05-0.01,0.09,0.01,0.12,0.04c0.08-0.01,0.14,0.01,0.2,0.06c0,0,0,0,0,0c0.41,0.11,0.83,0.21,1.24,0.32
	c0.91,0.17,1.82,0.33,2.72,0.51c0.67,0.13,1.35,0.25,2.01,0.46c0,0,0,0,0,0c0.03,0.01,0.06,0.02,0.09,0.02c0,0,0,0,0,0
	C701.95,392.4,701.99,392.4,702.02,392.41z"/>
<path class="st0" d="M858.34,394.27c0,0-0.02-0.02-0.02-0.02c0.22-0.36,0.61-0.59,0.72-1.03c0.02-0.04,0.04-0.08,0.07-0.12
	c0.25-0.47,0.3-0.96,0.17-1.47c0,0,0-0.01,0-0.01c-0.01-0.03-0.01-0.05-0.02-0.08c0,0,0-0.01,0-0.01c-0.01-0.03-0.01-0.05-0.02-0.08
	c0,0,0-0.01,0-0.01c-0.01-0.03-0.01-0.05-0.02-0.08c0,0,0-0.01,0-0.01c-0.05-0.36-0.18-0.7-0.34-1.03c0,0,0,0,0,0
	c-0.01-0.03-0.02-0.06-0.02-0.09l0,0c-0.01-0.03-0.02-0.06-0.03-0.09c0,0,0-0.01,0-0.01c-0.02-0.05-0.03-0.1-0.05-0.14
	c-0.01-0.02-0.02-0.05-0.03-0.07c-0.01-0.03-0.02-0.06-0.03-0.1c0,0,0,0,0,0c-0.07-0.34-0.14-0.68-0.22-1.01c0,0,0,0,0,0
	c0-0.03-0.01-0.06-0.01-0.09c0,0,0,0,0,0c0-0.03-0.01-0.07-0.01-0.1c0,0,0,0.01,0,0.01c0-0.03-0.01-0.07-0.01-0.1c0,0,0,0.01,0,0.01
	c0-0.13,0-0.26,0-0.4c-0.02-0.94,0.2-1.8,0.79-2.55c0.86-1.11,2.25-1.26,3.3-0.36c0.57,0.49,0.9,1.13,1.17,1.79
	c0.13,0.31,0.28,0.39,0.57,0.26c0,0,0,0,0,0c0.03-0.01,0.07-0.01,0.1-0.02l-0.01,0c0.14,0.03,0.27-0.02,0.4-0.07
	c0.02,0.01,0.04,0,0.06-0.02c0.05,0.01,0.1,0.02,0.14-0.02l0.02,0c0.53-0.06,1.04,0.05,1.53,0.23c0.04,0.02,0.08,0.05,0.12,0.07
	c0.59,0.39,0.97,0.92,1.2,1.58c0,0,0,0.01,0,0.01c-0.01,0.13,0.01,0.25,0.06,0.37c0,0,0,0,0,0c-0.02,0.94-0.4,1.7-1.11,2.32
	c-0.41,0.35-0.89,0.58-1.34,0.85c-0.06-0.02-0.1,0.02-0.14,0.06c-0.19,0.04-0.36,0.12-0.53,0.21c-0.05-0.01-0.09,0.01-0.12,0.04
	c-0.07-0.01-0.14,0.01-0.2,0.06c0,0,0,0,0,0c-0.41,0.11-0.82,0.21-1.23,0.32c-0.9,0.17-1.81,0.33-2.71,0.51
	c-0.67,0.13-1.35,0.25-2,0.46c0,0,0,0,0,0c-0.03,0.01-0.06,0.02-0.09,0.02c0,0,0,0,0,0C858.4,394.26,858.37,394.26,858.34,394.27z"
	/>
<g>
	<g>
		<path class="st3" d="M1561.02,403.28c-74.88,0-149.72,0-224.56,0c-0.15,0-0.29-0.04-0.44-0.06c0-74.83,0-149.67,0-224.5
			c0-0.15,0.04-0.29,0.06-0.44c74.84,0,149.69,0,224.53,0c0.15,0,0.29,0.04,0.41,0.06C1561.02,253.32,1561.02,328.3,1561.02,403.28z
			 M1524.05,264.35c0-15.61-0.18-29.58,0.1-43.55c0.09-4.48-1.35-5.61-5.67-5.6c-46.81,0.14-93.63,0.13-140.45,0.01
			c-3.96-0.01-5.09,1.11-5.08,5.08c0.13,46.81,0.13,93.62-0.01,140.43c-0.01,4.36,1.2,5.7,5.62,5.67
			c30.65-0.19,61.31-0.12,91.96-0.15c1.4,0,2.8-0.26,4.89-0.46c-5.03-8.22-3.83-15.09,3.29-20.75c-9.29-5.21-12.76-15.12-1-26.12
			c-0.98-4.43-2.64-8.58-2.7-12.75c-0.16-12.56,9.05-21.32,22.39-21.71c7.49-0.22,15-0.19,22.49,0.01c3.4,0.09,4.97-1.39,4-4.36
			c-0.93-2.84-2.38-5.83-4.43-7.95c-31.99-33.24-85.64-32.73-117.69,1.31c-4.2,4.47-8.26,3.94-13.67,3.33
			c13.08-17.86,29.71-29.53,50.5-34.58C1470.27,234.52,1498.44,242.17,1524.05,264.35z M1523.56,347.58
			c0.26-2.56,0.51-3.95,0.52-5.34c0.01-14.14,0-28.28-0.05-42.42c-0.03-7.45-1.16-8.19-8.06-6.19c0.89,5.21,3.06,10.5,2.39,15.39
			c-2.02,14.69-15.61,22-30.41,17.1c-2.51-0.83-5.08-1.86-6.55,0.97c-1.04,2-2.03,4.97-1.25,6.72c0.76,1.72,3.7,3.22,5.82,3.43
			c4.94,0.5,9.97,0.32,14.96,0.13C1509.74,337.02,1517.74,338.52,1523.56,347.58z M1496.78,319.42c7.9,0.01,12.69-5.02,12.67-13.32
			c-0.01-7.91-4.92-13.2-12.35-13.3c-7.81-0.11-13.24,5.19-13.29,12.96C1483.75,314.23,1488.66,319.41,1496.78,319.42z
			 M1498.62,346.13c-2.66,0-5.72-0.84-7.88,0.2c-3.16,1.53-6.41,3.94-8.23,6.85c-1.96,3.13,0.24,6.29,3.04,8.57
			c6.45,5.23,20.54,4.45,25.57-2.06c1.71-2.21,2.66-6.41,1.73-8.86c-0.82-2.17-4.57-3.61-7.31-4.56
			C1503.47,345.55,1500.94,346.12,1498.62,346.13z"/>
		<path class="st3" d="M1445.29,348.75c0-2.18,0-4.14,0-6.08c10.16-1.36,10.94-2.26,10.94-12.58c-0.01-16.64-0.01-33.27-0.01-49.91
			c0-1.45,0-2.91,0-4.58c3.24,0,6,0,9.44,0c0,1.92,0,3.7,0,5.48c-0.02,16.8-0.01,33.6-0.05,50.41
			C1465.57,344.96,1459.34,350.41,1445.29,348.75z"/>
	</g>
</g>
</svg>
