<?xml version="1.0" encoding="utf-8"?>
<!-- Generator: Adobe Illustrator 24.1.2, SVG Export Plug-In . SVG Version: 6.00 Build 0)  -->
<svg version="1.1" id="Layer_1" xmlns="http://www.w3.org/2000/svg" xmlns:xlink="http://www.w3.org/1999/xlink" x="0px" y="0px"
	 viewBox="0 0 689 701" style="enable-background:new 0 0 689 701;" xml:space="preserve">
<style type="text/css">
	.st0{fill:#06AED5;}
	.st1{fill:#4D4D4F;}
	.st2{font-family:'Buckin-BoldDemo';}
	.st3{font-size:62.5479px;}
</style>
<g>
	<path class="st0" d="M326.34,317.73c0,0-0.38-0.02-0.38-0.02c-0.17-5.26,2.33-10.43,0.54-15.75c-0.04-0.57-0.09-1.13-0.13-1.7
		c-0.57-6.63-3.39-12.12-8.28-16.59c0,0-0.09-0.09-0.09-0.09c-0.24-0.24-0.49-0.48-0.73-0.72c0,0-0.13-0.12-0.13-0.12
		c-0.24-0.24-0.47-0.47-0.71-0.71c0,0-0.12-0.13-0.12-0.13c-0.24-0.23-0.48-0.46-0.73-0.7c0,0-0.13-0.1-0.13-0.1
		c-3.05-3.46-6.73-6.15-10.67-8.49c0,0,0.02,0.02,0.02,0.02c-0.3-0.27-0.6-0.53-0.89-0.8c0,0-0.01-0.01-0.01-0.01
		c-0.29-0.24-0.57-0.48-0.86-0.72c0,0-0.09-0.06-0.09-0.06c-0.49-0.4-0.97-0.79-1.46-1.19c-0.26-0.2-0.52-0.4-0.79-0.6
		c-0.32-0.28-0.63-0.56-0.95-0.83c0,0,0.01,0.01,0.01,0.01c-3.08-3.05-6.16-6.1-9.25-9.15c0,0-0.02-0.02-0.02-0.02
		c-0.27-0.29-0.53-0.58-0.8-0.87c0,0,0.02,0.02,0.02,0.02c-0.27-0.32-0.54-0.63-0.81-0.95c0,0,0.06,0.06,0.06,0.06
		c-0.28-0.32-0.56-0.65-0.84-0.97c0,0,0.08,0.03,0.08,0.03c-0.91-1.39-1.79-2.79-2.73-4.16c-6.66-9.71-10.25-20.22-9.3-32.21
		c1.4-17.52,14.92-28.68,32.19-26.46c9.3,1.19,17.15,5.64,24.64,10.72c3.46,2.34,5.65,2.21,7.8-1.19c0,0-0.05,0.01-0.05,0.01
		c0.31-0.29,0.62-0.58,0.93-0.86l-0.04,0.07c1.69-0.7,2.7-2.1,3.7-3.52c0.29-0.07,0.45-0.25,0.47-0.54c0.61-0.2,1.12-0.51,1.27-1.2
		l0.22-0.2c5.16-4.29,11.21-6.64,17.66-8.09c0.57-0.03,1.14-0.06,1.71-0.09c8.81,0.01,16.57,2.97,23.46,8.37
		c0,0,0.07,0.06,0.07,0.06c0.82,1.37,1.8,2.61,3.14,3.51c0,0-0.03-0.03-0.03-0.03c6.22,10.03,7.51,20.67,4.31,32.01
		c-1.83,6.51-5.29,12.21-8.26,18.16c-0.76,0.25-0.98,0.88-1.09,1.58c-1.73,1.71-2.97,3.77-4.13,5.88c-0.6,0.2-0.87,0.65-0.92,1.26
		c-0.83,0.45-1.46,1.06-1.64,2.04c0,0,0.03-0.02,0.03-0.02c-3.59,3.95-7.18,7.9-10.77,11.85c-8.33,7.98-16.74,15.89-24.96,23.97
		c-6.13,6.02-12.43,11.89-17.82,18.63c0,0,0.04-0.03,0.04-0.03c-0.27,0.3-0.54,0.6-0.81,0.9c0,0,0,0,0,0
		C327.01,317.25,326.68,317.49,326.34,317.73z"/>
	<path class="st0" d="M202.68,277.73c-0.56,0.06-1.12,0.12-1.67,0.19c-1.92,0.25-3.65,0.92-5.1,2.23c0,0,0.02-0.02,0.02-0.02
		c-2.69,0.88-4.86,2.67-7.18,4.18c-11.04,7.19-22.67,12.53-36.27,11.91c-0.56-0.05-1.12-0.1-1.68-0.15
		c-0.92-0.27-1.84-0.52-2.76-0.81c-8.84-2.73-16.67-6.74-19.2-16.65c-2.4-9.43,1.36-16.86,8.16-23.11c2.67-2.45,5.35-4.89,8.19-7.13
		c2.45-1.92,2.75-3.8,1.03-6.41c-5.63-8.58-6.36-17.6-1.99-26.95c0,0-0.04,0.03-0.04,0.03c1.64-1.99,3.28-3.99,4.91-5.98
		c0,0,0,0,0,0c0.3-0.27,0.6-0.53,0.91-0.8c0,0-0.02,0.03-0.02,0.03c10.93-7.27,21.61-6.1,31.82,1.34c8.39,6.11,14.41,14.37,19,23.54
		c7.73,15.44,15.09,31.07,22.6,46.62c0.25,0.51,0.31,1.07-0.33,1.64c-3.07-1.33-6.02-3.25-9.54-3.59c-0.56-0.04-1.12-0.08-1.68-0.12
		C208.8,276.58,205.74,276.64,202.68,277.73z"/>
	<path class="st0" d="M497.26,128.8c-1.96-0.43-3.92-0.37-5.86,0.09c-4.33,0.25-7.93,2.33-11.41,4.66
		c-5.09,3.41-10.28,6.67-15.99,8.94c-9.67,3.84-19.45,4.82-29.13,0.19c-11.16-5.34-14.69-17.02-8.55-27.71
		c2.55-4.43,6.2-7.83,10.21-10.89c5.16-3.94,5.16-3.94,1.33-9.71c0,0,0.01,0.01,0.01,0.01c-0.1-0.4-0.16-0.82-0.32-1.2
		c-4.06-9.3-2.44-18.77,4.36-25.36c5.9-5.72,16.02-7.04,24.58-3.13c7.2,3.29,12.5,8.8,16.75,15.27
		c9.14,13.89,15.22,29.36,22.53,44.2c1.19,2.42,2.79,4.71,3.24,7.95C504.86,130.8,501.4,128.45,497.26,128.8z"/>
	<path class="st0" d="M226.09,121.19c0.05,0.56,0.09,1.13,0.14,1.69c-0.01,0.82-0.02,1.65-0.03,2.47c-0.05,0.56-0.11,1.11-0.16,1.67
		c-1.04,3.5-2.68,6.74-4.34,9.98c-0.23,0.27-0.45,0.54-0.68,0.8c-1.7,1.68-3.4,3.36-5.1,5.04c0,0,0.03-0.04,0.03-0.04
		c-9.57,5.59-20.06,8.48-30.96,9.07c-14.61,0.8-29.25,0.95-43.85,1.96c-0.64,0.04-1.43,0.19-1.75-0.91
		c1.13-1.09,2.32-2.24,3.52-3.39c5.68-5.42,7.85-12.13,6.63-19.75c-1.48-9.23-2.75-18.45-2.25-27.83c0.06-0.56,0.11-1.12,0.17-1.69
		c1.72-5.92,4.18-11.5,7.69-16.6c0,0-0.02,0.03-0.03,0.02c7.39-7.06,15.68-10.19,25.67-5.88c0,0-0.03-0.04-0.03-0.04
		c0.86,1.2,1.99,2.04,3.37,2.55c0,0-0.04-0.07-0.04-0.07c0.31,0.3,0.61,0.59,0.92,0.89c0,0-0.07-0.04-0.06-0.04
		c0.79,1.67,2.02,2.99,3.4,4.19c0,0-0.04-0.05-0.03-0.05c0,0.73,0.36,1.24,0.97,1.6c0,0,0.01,0.02,0.01,0.02
		c1.8,4.49,3.82,8.95,4.67,13.72c0.52,2.88,1.9,3.23,4.31,2.75c8.34-1.65,15.64,0.48,21.89,6.23c0,0-0.02-0.02-0.02-0.02
		C222.83,113.07,224.99,116.86,226.09,121.19z"/>
	<path class="st0" d="M431.17,266.06c0.55-0.08,1.1-0.17,1.66-0.25c5.23-0.37,10.27,0.36,15.02,2.69c0,0-0.01-0.01-0.01-0.01
		c0.87,1.17,2.05,1.93,3.38,2.49l0,0c0.28,0.28,0.56,0.55,0.84,0.83c0,0,0.01,0.01,0.01,0.01c0.27,0.29,0.54,0.58,0.81,0.87
		c0,0-0.01-0.02-0.01-0.02c0.27,0.32,0.53,0.63,0.8,0.95c0,0-0.06-0.04-0.06-0.04c3.89,6.54,4.52,13.52,2.93,20.84
		c-1.73,7.97-6.4,14.32-11.07,20.73c-5.89,8.08-13.42,14.74-19.39,22.75c0,0,0.01-0.01,0.01-0.01c-0.28,0.29-0.57,0.57-0.85,0.86
		c0,0,0.01-0.02,0.01-0.02c-0.28,0.29-0.55,0.58-0.83,0.86c0,0,0.01-0.01,0.01-0.01c-0.28,0.28-0.55,0.57-0.83,0.85c0,0,0,0,0,0
		c-3.91,3.99-7.82,7.98-12.12,12.36c-0.96-2.69-0.57-4.6-0.55-6.48c0.07-6.45-1.95-12.16-6.97-16.28
		c-5.24-4.31-10.85-8.17-16.3-12.23c-2.25-2.5-4.49-4.99-6.74-7.49c-0.25-0.31-0.5-0.62-0.74-0.93c-0.18-1.09-0.73-1.92-1.66-2.51
		c-1.43-3.88-3.12-7.67-3.97-11.76c-2.46-11.82,4.55-22.7,15.84-24.68c4-0.7,7.65,0.77,11.45,1.41c0,0-0.01-0.01-0.01-0.01
		c3.55,1.78,7.23,3.35,10.62,5.4c2.44,1.48,3.95,1.11,5.5-1.1C421.27,271.39,425.68,268,431.17,266.06z"/>
	<path class="st0" d="M243.67,157.18c1.95,0,3.91-0.01,5.86-0.01c13.75,4.55,19.25,12.37,17.73,25.55
		c-0.73,6.34-3.46,12.01-6.75,17.38c-6.62,10.78-16.04,19.18-24.35,28.52c-4.68,5.25-9.52,10.36-14.39,15.64
		c-0.37-0.63-0.59-0.84-0.6-1.05c-0.02-0.83-0.03-1.67,0.05-2.5c0.87-9.39-3.02-16.53-10.61-21.68
		c-7.17-4.87-13.9-10.19-19.52-16.82c0,0,0.04,0.01,0.04,0.01c-5.75-9-8.82-18.47-5.16-29.13c0,0-0.01,0.02-0.01,0.02
		c0.62-0.39,0.94-0.93,0.89-1.68c0,0-0.02,0.03-0.02,0.03c3.43-5.05,8.04-8.45,14.17-9.22c6.65-0.84,12.51,1.81,18.2,4.8
		c7.12,3.75,7.1,3.78,11.89-3.2c0,0,0.03-0.03,0.03-0.03c0.28-0.26,0.56-0.53,0.84-0.79c0,0,0.01-0.01,0.01-0.01
		c0.28-0.27,0.56-0.55,0.84-0.82c0,0,0,0,0,0c0.34-0.26,0.69-0.51,1.03-0.77c0.25-0.22,0.5-0.44,0.74-0.66
		C237.45,159.17,240.53,158.11,243.67,157.18z"/>
	<path class="st0" d="M497.25,145.49c0.56-0.07,1.12-0.13,1.68-0.2c4.86-0.36,9.33,0.71,13.32,3.59c0,0-0.03-0.04-0.03-0.04
		c0.3,0.28,0.6,0.56,0.89,0.84c0,0-0.02-0.01-0.02-0.01c5.32,6.4,5.8,13.99,5.08,21.75c-0.32,3.38,0.66,4.93,4.13,5.67
		c10.11,2.16,15.99,9.36,16.04,19.03c0.04,7.92-6.58,15.58-15.6,17.86c-8.48,2.14-16.95,1.27-25.21-0.98
		c-9.66-2.62-19.19-5.76-28.77-8.68c-0.55-0.12-1.09-0.24-1.64-0.35c-3.16-1.23-6.33-2.46-9.48-3.69c0.41-1.38,1.58-1.3,2.42-1.64
		c7.46-3,12-8.42,13.26-16.36c1.33-8.41,3.35-16.58,7.27-24.2c0,0-0.04,0.03-0.04,0.03c0.24-0.32,0.47-0.64,0.71-0.95
		c0,0,0.04-0.05,0.04-0.05c1.02-0.49,1.42-1.43,1.76-2.41c0,0-0.03,0.02-0.03,0.02c0.27-0.3,0.54-0.6,0.81-0.89c0,0,0,0,0,0
		C487.74,150.11,492.26,147.42,497.25,145.49z"/>
	<path class="st0" d="M309.73,391.35c-0.54,0.13-1.07,0.25-1.61,0.38c-0.81,0.14-1.61,0.3-2.42,0.43
		c-12.88,2.04-25.67-3.39-24.55-18.2c0.07-0.57,0.13-1.13,0.2-1.7c0.55-1.4,1.1-2.79,1.66-4.19c0,0,0,0,0,0
		c0.17-0.26,0.35-0.53,0.52-0.79c0.12-0.27,0.23-0.55,0.35-0.82c0.94-0.59,1.39-1.52,1.69-2.53c0,0-0.02,0.02-0.02,0.02
		c6.77-6.65,6.77-6.65,2.13-14.58c-4.2-7.19-3.15-15.05,2.98-22.19c0,0-0.06,0.04-0.06,0.04c0.3-0.3,0.61-0.6,0.91-0.9
		c0,0-0.04,0.07-0.04,0.07c6.33-4.04,12.99-4.26,19.89-1.69c0,0-0.02-0.04-0.02-0.04c3.37,2.22,6.74,4.44,10.11,6.66
		c0,0-0.02-0.02-0.02-0.02c1.31,2.07,3.12,3.66,4.99,5.18c0.22,0.25,0.44,0.49,0.65,0.74c6.5,8.91,12.99,17.82,19.49,26.73
		c0.23,0.29,0.45,0.57,0.68,0.86c0.93,2.86,3.76,4.71,4.49,8.37c-9.36-3.17-17.29-1.69-23.62,5.74c0,0,0.03-0.02,0.03-0.02
		c-0.3,0.29-0.59,0.57-0.89,0.86c0,0,0.05-0.04,0.05-0.04c-0.33,0.28-0.67,0.56-1,0.85c-0.25,0.21-0.5,0.41-0.75,0.62
		c-4.14,2.89-8.29,5.78-12.43,8.66c0,0,0,0,0,0C311.82,389.93,310.69,390.46,309.73,391.35z"/>
	<path class="st0" d="M459.51,220.97c-0.09,0.26-0.02,0.47,0.19,0.64c0.49,3.55,1.61,6.91,3.16,10.14c0,0-0.04-0.02-0.04-0.02
		c1.97,6.93,3.94,13.86,5.92,20.8c0,0,0,0,0,0c-0.52-0.17-1.13-0.22-1.56-0.52c-7.05-4.82-14.23-4.75-21.65-0.86
		c-5.59,2.93-11.57,4.78-17.88,5.24c-8.14,0.58-15.12-1.88-20.12-8.64c-3.95-5.35-2.63-10.72,0.32-15.99c0,0-0.04,0.03-0.04,0.03
		c2.48-2.27,4.97-4.53,7.45-6.8c0,0,0,0,0,0c0.83-0.15,1.49-0.57,1.96-1.28c0,0,0.13-0.06,0.12-0.06c5.3-1.37,3.54-4.78,2.35-8.06
		c-2.28-6.33-0.51-11.78,4.01-16.37c4.63-4.7,10.27-5.66,16.49-3.67c4.7,1.51,7.82,5.04,11.01,8.49c0,0,0,0.01,0,0.01
		C454.78,209.29,457.13,215.14,459.51,220.97z"/>
	<path class="st0" d="M494.64,264.26c0.67-0.36,0.84-0.98,0.83-1.68c2.69-3.2,5.42-6.39,8.93-8.7c2.08-1.37,2.34-2.82,1.1-4.86
		c-0.72-1.18-1.27-2.48-1.78-3.77c-3.65-9.38,1.37-19.68,10.73-21.67c2.54-0.54,5.26-0.24,7.9-0.33c0.1,0.22,0.25,0.27,0.46,0.15
		c6.75,2.8,11.99,7.44,16.03,13.44c2.16,3.21,4.05,6.61,6.06,9.92c0,0-0.02-0.02-0.02-0.02c3.93,8.42,7.87,16.84,11.79,25.26
		c0.4,0.85,1.22,1.82,0.58,2.69c-0.73,1-1.84,0.23-2.66-0.13c-7-2.99-13.17-1.15-19.26,2.78c-5.59,3.61-11.37,6.92-18.05,8.34
		C501.92,288.97,490.88,278.56,494.64,264.26z"/>
	<path class="st0" d="M375.21,433.31c-0.05,0.57-0.09,1.14-0.14,1.71c-0.89,0.95-0.85,2.15-0.88,3.33c0,0,0.01-0.01,0.01-0.01
		c-2.62,5.17-4.55,10.71-8.19,15.34c-5.16,6.56-10.22,13.19-15.46,19.67c-2.34,2.89-4.13,6.27-7.26,8.49c0,0,0,0.01,0,0.01
		c0.2-7.28-1.21-13.81-8.35-17.61c0,0,0,0.01,0,0.01c-1.63-1.96-3.97-2.9-6.06-4.19c-9.76-5.98-17-13.64-17.53-25.86
		c0.03-0.56,0.06-1.13,0.1-1.69c1.37-2.98,2.04-6.26,4.71-8.63c6.04-5.35,12.38-4.14,19.09-1.56c7.56,2.91,7.63,2.74,12.33-3.97
		c0.25-0.24,0.5-0.49,0.76-0.73c7.66-5.12,15.14-5,22.41,0.81c0,0-0.04-0.04-0.04-0.04C373.68,422.92,375.52,427.79,375.21,433.31z"
		/>
	<path class="st0" d="M260.42,86.73c0.21,0.19,0.45,0.26,0.72,0.19c4.98,3.23,4.97,3.22,8.35-1.07c1.09-1.38,2.23-2.71,3.35-4.06
		c0,0,0.09-0.09,0.09-0.09c0.29-0.23,0.58-0.46,0.87-0.69c0,0,0.01-0.01,0.01-0.01c0.31-0.26,0.62-0.52,0.93-0.78
		c0,0-0.03,0.05-0.03,0.05c1.51-0.25,2.91-0.77,4.17-1.66c0.83-0.1,1.67-0.21,2.5-0.31c14.32-0.32,19.47,11.27,17.24,22.04
		c-0.96,4.65-2.74,9.04-5.49,12.92c-4.8,6.78-9.71,13.47-14.58,20.2l0.1,0.27c0,0-0.08-0.27-0.08-0.27
		c-1.14,0.61-1.82,1.59-2.24,2.78c0,0,0,0,0,0c-0.25,0.29-0.5,0.57-0.76,0.86c0,0-0.04,0.05-0.04,0.05c-3.02,2.21-4.1,6.4-8.07,8.22
		c-0.36-7.2-1.91-13.38-8.6-16.8c0,0,0.02,0.04,0.02,0.04c-0.61-0.94-1.41-1.59-2.57-1.67c0,0,0.04,0.05,0.03,0.05
		c-0.32-0.23-0.64-0.46-0.96-0.7c0,0-0.07-0.04-0.07-0.04c-1.96-1.77-4.12-3.25-6.54-4.32c0,0,0.03,0.04,0.03,0.04
		c-0.32-0.24-0.63-0.48-0.95-0.72c0,0-0.04-0.03-0.04-0.03c-5.06-4.23-9.46-8.85-11.19-15.55c-2.91-11.31,2.15-20.05,12.44-21.03
		C253.01,84.27,256.66,85.84,260.42,86.73z"/>
	<path class="st0" d="M237.4,308.8c0.23,0.04,0.36-0.05,0.4-0.28c0.62-0.31,1.24-0.61,1.84-0.94c8.96-4.95,18.98-0.07,20.36,10.03
		c0.69,5.06-0.86,9.66-3.81,13.74c-2.43,3.36-5.07,6.58-7.61,9.87c0,0,0.03-0.02,0.03-0.02c-2.25,2.23-4.49,4.46-6.74,6.7
		c0,0,0.02-0.02,0.02-0.02c-2,1.4-3.7,3.11-5.21,5.02c-0.28,0.02-0.46,0.17-0.52,0.45c-3.04,1.65-4.7,5.19-8.42,6.43
		c-0.22-6.18-0.62-11.97-6.6-15.24c0,0,0.03,0.05,0.03,0.05c-0.3-0.29-0.6-0.58-0.9-0.87c0,0,0.04,0.03,0.04,0.03
		c-3.9-4.21-7.79-8.42-11.69-12.63c0,0,0.04,0.03,0.04,0.03c-0.78-2.11-1.46-4.27-2.82-6.11c0,0,0.01-0.33,0-0.33
		c0.17-4.29-0.06-8.65,1.89-12.69c0,0-0.02,0.02-0.02,0.02c0.23-0.29,0.46-0.58,0.69-0.87c0.32-0.35,0.63-0.69,0.95-1.04
		c3.01-2.37,6.36-3.53,10.25-3.24c2.97,0.22,5.33,2.06,8.13,2.66c0,0-0.03-0.03-0.03-0.03c0.3,0.21,0.59,0.41,0.89,0.62
		c0.14,0.23,0.35,0.32,0.61,0.28C233.34,313.54,233.34,313.54,237.4,308.8z"/>
	<path class="st0" d="M361.58,147.05c-1.58,1.21-2.98,2.59-4.06,4.28l-0.02,0.02c-0.27,0.27-0.54,0.54-0.8,0.82
		c0,0-0.03,0.03-0.03,0.03c-0.27,0.27-0.54,0.54-0.81,0.8c0,0-0.03,0.03-0.03,0.03c-0.27,0.27-0.53,0.54-0.8,0.81l-0.03,0.03
		c-1.73,1.05-3.16,2.4-4.23,4.12l0.01-0.01c-1.11,0.57-1.97,1.39-2.52,2.52l0,0c-1.44,0.79-2.63,1.84-3.4,3.31l0.02-0.02
		c-2.83,2.34-5.67,4.68-9.04,7.46c0-2.12,0.01-3.59,0-5.05c-0.04-4.28-1.67-7.94-4.93-10.62c-4.19-3.43-8.14-7.09-11.93-10.94
		l-0.01-0.01c-2.61-4.77-4.91-9.54-4.42-15.3c0.75-8.76,7.62-13.72,16.04-11.08c2.5,0.78,5.09,1.71,7.17,3.23
		c2.92,2.12,5.1,2.14,7.22-0.83c0.48-0.67,1.1-1.23,1.66-1.84c0.73-0.07,1.26-0.45,1.6-1.09c6.32-2.24,12.4-2.44,17.11,3.19
		c4.83,5.77,3.83,12.15,0.91,18.37c-1.28,2.73-3.11,5.2-4.69,7.79L361.58,147.05z"/>
	<path class="st0" d="M470.34,299.46c0.09-0.55,0.18-1.09,0.26-1.64c0.42-0.85,0.87-1.69,1.26-2.55c4.12-9.18,12.47-11.1,20.23-4.59
		c2.01,1.69,3.96,3.49,5.69,5.46c1.25,1.41,2.41,1.74,3.9,0.71c4.28-2.95,9.01-3.18,13.92-2.38c0,0-0.02-0.01-0.02-0.01
		c8.32,5.63,10.56,11.56,7.07,19.26c-2.38,5.25-6.51,9.01-11.29,11.99c-9.33,5.83-19.35,10.38-29.19,15.25
		c-0.43,0.21-1.03,0.56-1.63-0.42c1.51-3.85,2.45-7.99,0.74-12.27c-1.56-3.9-4.06-7.21-6.55-10.53c0,0,0.05,0.04,0.04,0.04
		C472.57,311.85,469.41,306.16,470.34,299.46z"/>
	<path class="st0" d="M130.74,164.59c0.3,0.3,0.59,0.6,0.89,0.9c0.59,1.8,1.52,2.62,3.33,1.26c1.66-1.24,3.35-2.44,5.03-3.66
		c0,0-0.03,0.03-0.03,0.03c5.28-1.88,10.22-1.12,14.89,1.87c0.23,0.22,0.46,0.44,0.69,0.66c1.19,1.92,2.39,3.84,3.58,5.76
		c0.07,0.55,0.14,1.1,0.21,1.65c0.69,6.56-2.29,11.78-6.1,16.7c0,0,0.01-0.01,0.01-0.01c-1.61,1.18-3.12,2.48-4.22,4.18
		c0,0,0.02-0.02,0.02-0.02c-9.49,6.4-18.98,12.8-28.87,19.47c-0.15-3.32,1-5.87,0.35-8.48c-0.02-0.56-0.04-1.12-0.07-1.68
		c-0.63-3.84-2.71-6.77-5.71-9.13c0,0-0.04-0.05-0.04-0.05c-1.02-1.97-2.3-3.74-4.03-5.15c0,0,0.03,0.03,0.03,0.03
		c-1.47-3.26-3.89-6.06-4.61-9.68c-1.26-6.35-1.27-12.42,3.61-17.51c4.24-4.43,9.2-3.56,14.27-1.99c0,0-0.02-0.01-0.02-0.01
		C126.22,161.34,128.48,162.97,130.74,164.59z"/>
	<path class="st0" d="M276.17,177.27c-0.01-6.73,4.18-10.74,9.4-13.77c2.95-1.71,3.7-3.35,2.54-6.67
		c-2.19-6.31-0.13-11.68,5.21-15.24c4.34-2.89,10.31-2.32,15.13,1.52c3.92,3.11,6.53,7.23,8.4,11.78
		c4.02,9.76,6.55,19.98,9.92,31.41c-7.59-5.71-14.18-3.79-20.93-0.82c-4.82,2.12-9.89,3.79-15.32,3.61
		c-0.55-0.06-1.1-0.12-1.64-0.18c-5.64-1.5-10.47-3.99-12.49-10.01C276.33,178.36,276.25,177.81,276.17,177.27z"/>
	<path class="st0" d="M556.15,145.9c-0.35-0.08-0.7-0.16-1.05-0.25c-3.4,0.17-6.33,1.77-9.35,3.09c-0.56,0.1-1.11,0.19-1.67,0.29
		c-0.34,0.13-0.69,0.26-1.03,0.39c0,0,0-0.07,0-0.07c-3.56,0.12-7.11,0.25-10.67,0.37l-0.33-0.18c0,0-0.37,0.04-0.37,0.04
		c-2.79-1.43-5.59-2.85-8.38-4.28c0,0,0.04,0.04,0.04,0.04c-3.9-5.03-4.28-10.26-0.87-15.7c0,0-0.03,0.03-0.04,0.03
		c1.89-1.45,3.78-2.9,5.67-4.35c0,0,0.07-0.04,0.07-0.04c0.32-0.23,0.64-0.47,0.96-0.7c0,0-0.06,0.05-0.06,0.05
		c0.7-0.03,1.24-0.35,1.58-0.96c0,0,0.03-0.01,0.03-0.01c2.3-0.42,2.74-1.75,2.3-3.94c-2.47-12.29,3.75-18.77,16.02-16.79
		c0,0-0.02-0.04-0.02-0.04c4.87,2.72,8.4,6.69,10.53,11.81c4.55,10.92,6.5,22.52,8.76,34.04c-0.49-0.06-0.99-0.12-1.48-0.18
		C563.83,145.39,560.28,144.5,556.15,145.9z"/>
	<path class="st0" d="M361.53,369.75c0.02-0.56,0.04-1.12,0.06-1.68c0.67-3.85-1.42-6.72-3.57-9.46c-3.22-4.1-5.76-8.56-7.53-13.44
		c-3.05-8.41,0.62-17.11,8.03-19.27c5.7-1.66,9.77,1.49,13.29,5.11c2.83,2.9,4.98,3.77,8.71,1.22c3.91-2.68,8.49-2.46,12.63,0.24
		c4.09,2.67,5.93,6.47,5.53,11.39c-0.37,4.58-2.61,8.13-5.76,11.27c-7.13,7.1-16.23,11.22-24.72,16.23c-2.26,1.34-4.41,3.1-7.46,3.8
		C360.92,372.97,362.08,371.46,361.53,369.75z"/>
	<path class="st0" d="M366.75,404c-3.16-7-2.07-10.67,5.04-15.3c2.42-1.57,3.42-2.89,2.49-5.98c-1.59-5.24,0.28-9.48,4.43-11.81
		c4.13-2.32,8.47-1.56,12.54,2.19c0.4,0.37,0.86,0.68,1.3,1.03c0.22,0.24,0.45,0.49,0.67,0.73c0.88,1.21,1.75,2.42,2.63,3.63
		c-0.09,0.21-0.03,0.36,0.18,0.45c3.49,8.53,6.25,17.27,8.6,27.09c-6-3.63-10.92-2.47-16.16-0.06c-7.43,3.42-14.98,4.03-21.72-1.99
		L366.75,404z"/>
	<path class="st0" d="M283.87,316.3c-0.85-0.03-1.69-0.06-2.54-0.09c-1.79-1.02-3.75-1.84-5.35-3.11c-3.99-3.17-4.48-8-1.4-11.71
		c5.55-6.7,5.55-6.7,6.18-15.13c0,0-0.06-0.03-0.06-0.03c3.21-5.16,6.69-7,11.16-5.83c3.56,0.94,6.32,3.22,7.96,6.32
		c4.37,8.21,6.52,17.23,9.52,26.78c-4.54-2.08-8.36-3.03-12.33-1.16C292.82,314.3,288.31,315.21,283.87,316.3z"/>
	<path class="st0" d="M439.5,357.17l-0.25-0.17c0,0-0.29,0.07-0.29,0.07c-1.1-0.87-2.37-0.78-3.65-0.64l-0.29-0.19
		c0,0-0.35,0.03-0.35,0.03c-0.54-0.47-1.09-0.94-1.63-1.4c0,0-0.04,0-0.04,0c5.02-2.32,5.88-6.89,6.34-11.68
		c0.45-4.59,1.43-9,4.44-12.7c1.71-1.08,3.41-2.15,5.12-3.23c5.38-0.01,8.77,1.93,9.36,6.81c0.53,4.43,2.11,6.5,6.43,7.99
		c5.99,2.07,6.69,9.66,1.89,13.91c-2.19,1.94-4.77,2.68-7.58,3.03c-4.33,0.53-8.55-0.48-12.82-0.77c-0.83-0.08-1.66-0.16-2.49-0.23
		C442.42,357.12,440.95,357.16,439.5,357.17z"/>
	<path class="st0" d="M226.82,85.52c-0.11,0.22-0.06,0.4,0.15,0.53c-0.08,0.76,0.08,1.43,0.7,1.93c-0.1,0.24-0.05,0.43,0.16,0.57
		c-0.22,0.92,0.24,2.64-1.7,1.67c-3.93-1.97-7.51-0.6-11.15,0.89c-2.04,0.84-4.13,1.62-6.27,2.11c-4.55,1.04-9.8-1.27-11.82-4.98
		c-2.44-4.49,0.32-7.26,3.25-10c0.39-0.36,0.65-0.88,0.96-1.32c0,0-0.02,0.03-0.02,0.03c2.31-0.4,2.9-1.93,2.4-3.95
		c-1.03-4.2,0.28-7.57,3.44-10.35c0,0-0.04,0.03-0.04,0.03c1.66-0.35,3.32-0.7,4.98-1.05c0.55,0.09,1.09,0.18,1.64,0.27
		c1.97,1.62,3.95,3.24,5.92,4.86c0,0,0.02,0.02,0.02,0.02c0.25,0.33,0.5,0.67,0.75,1c0.13,0.24,0.26,0.48,0.38,0.73
		c0.17,0.25,0.34,0.5,0.52,0.76c0,0,0.01,0.03,0.01,0.03c0.22,0.44,0.45,0.87,0.67,1.31l-0.1,0.21c0,0,0.16,0.17,0.16,0.17
		C223.11,75.96,224.92,80.76,226.82,85.52z"/>
	<path class="st0" d="M375.77,157.23c4.49,7.77,7.15,16.21,9.39,25.56c-5.44-2.64-10.12-0.93-14.86,1.12
		c-3.62,1.57-7.39,2.17-11.32,0.47c-6.53-2.83-7.75-8.93-2.22-13.41c2.92-2.37,4.66-4.2,3.65-8.54c-1.21-5.16,5.03-9.78,10.11-8.07
		c1.56,0.52,2.99,1.42,4.48,2.14C375.25,156.74,375.51,156.98,375.77,157.23z"/>
	<path class="st0" d="M528.84,83.63c2.7,6.06,1.89,10.51-3.69,14.5c-5.72,4.09-11.94,7.48-18.95,11.8
		c1.39-7.88-3.97-12.25-6.18-17.93c-0.82-2.11-1.49-4.15-1.29-6.44c0.29-3.25,1.46-5.96,4.57-7.4c2.99-1.39,5.67-0.54,8.15,1.36
		c0.76,0.59,1.58,1.1,2.38,1.65c0,0,0.02-0.02,0.02-0.02c1,1.86,2.59,2.02,4.18,1.12c3.57-2.03,6.83-1.28,10.06,0.72
		C528.34,83.2,528.59,83.41,528.84,83.63z"/>
	<path class="st0" d="M432.07,381.46c-0.21,0.15-0.27,0.35-0.2,0.6c-2.01,3.28-5.1,5.62-7.49,8.58c-0.27,0.27-0.55,0.53-0.82,0.8
		c-1.57,0.88-2.88,2.04-3.94,3.5c0,0-0.13,0.1-0.13,0.1c-1.75,0.98-3.15,2.34-4.41,3.88c0,0,0.02-0.05,0.02-0.05
		c-1.02,0.12-1.58-0.32-1.51-1.36c0.22-3.53-1.73-5.95-4.16-8.1c-3.11-2.75-5.64-5.93-7.43-9.69c-0.1-0.55-0.2-1.09-0.29-1.64
		c0.78-8.91,4.75-11.41,12.62-7.51c2.85,1.42,4.84,0.91,7.16-0.73c2.49-1.77,5.23-1.61,7.84-0.17c2.7,1.49,3.87,3.94,3.67,6.94
		C432.9,378.24,432.4,379.84,432.07,381.46z"/>
	<path class="st0" d="M557.45,155.54c0.61,1.23,1.52,2.39,1.78,3.69c0.81,3.93,2.01,6.77,6.6,8.27c4.81,1.56,5.11,8.17,1.11,11.64
		c-1.33,1.16-2.98,1.95-4.49,2.9c-0.82,0.11-1.64,0.23-2.46,0.34c-0.55,0.01-1.1,0.01-1.64,0.02c-0.56-0.02-1.13-0.05-1.69-0.07
		c-0.28-0.01-0.56-0.02-0.83-0.03c-0.54-0.04-1.09-0.08-1.63-0.12c-2.73-0.84-5.53-1.27-8.38-1.4c-0.84-0.09-1.67-0.17-2.51-0.26
		c-1.93-0.56-3.86-1.12-5.8-1.69c0,0,0.04,0.02,0.04,0.02c0.28-0.49,0.56-0.98,0.84-1.47c0,0-0.03,0.03-0.03,0.03
		c3.55-1.79,4.25-4.93,4.05-8.51c0.05-0.54,0.1-1.09,0.15-1.63c0.43-1.7,0.81-3.42,1.31-5.1c2.02-6.68,6.09-9.02,12.68-7.34
		c0,0-0.04-0.07-0.04-0.07c0.32,0.27,0.64,0.53,0.96,0.8L557.45,155.54z"/>
	<path class="st0" d="M475.62,243.32c-0.1-0.55-0.19-1.09-0.29-1.64c-0.18-0.33-0.37-0.66-0.55-0.99c0,0,0.06,0.02,0.06,0.02
		c-1.83-4.36-5.15-8.15-5.1-13.23l0.15-0.22c0,0-0.13-0.23-0.13-0.23c2.33-5.98,6.1-8.97,9.4-6.48c4.5,3.41,8.89,4.71,14.25,3.48
		c0.63-0.15,1.36,0.17,2.05,0.27c0,0-0.04-0.08-0.04-0.08c0.32,0.27,0.65,0.53,0.97,0.8c0,0-0.03-0.02-0.03-0.02
		c3.98,4.15,2.81,8.33,0.1,12.53c-0.28,0.31-0.57,0.62-0.85,0.92c-1.07,0.55-2.1,1.15-2.71,2.25c0,0,0.02-0.04,0.02-0.04
		c-5.31,2.83-10.63,5.65-15.94,8.48c0,0-0.35-0.02-0.35-0.02s-0.29,0.2-0.29,0.2C474.72,247.49,477.4,245.14,475.62,243.32z"/>
	<path class="st0" d="M256.21,349.58c0.17,0.2,0.39,0.26,0.64,0.16c1.57,1.35,3.26,2.58,4.68,4.07c1.25,1.31,2.48,1.63,4.04,0.82
		c2.99-1.54,5.9-1.04,8.77,0.35l0.31-0.1c0,0-0.31,0.08-0.31,0.08c2.22,3,2.95,6.14,1.26,9.72c-0.99,2.1-2.96,3.28-4.2,5.1
		c0,0-0.07,0.05-0.07,0.05c-0.29,0.24-0.58,0.48-0.87,0.73c0,0-0.01,0.01-0.01,0.01c-0.36,0.25-0.72,0.49-1.08,0.74l-0.34,0
		c0,0-0.26,0.21-0.26,0.21c-0.33,0.2-0.66,0.41-0.98,0.61c0,0,0.04-0.07,0.04-0.07c-3,0.97-5.65,2.62-8.25,4.36
		c-0.7,0-1.31,0.17-1.67,0.84c-1.38,0.08-2.41,1.43-4.1,1.04c0.1-3.43-0.09-6.8-2.17-9.85c-1.32-1.92-2.23-4.16-3.11-6.33
		C245.82,355.46,249.12,350.14,256.21,349.58z"/>
	<path class="st0" d="M108.22,226.61c0.24-0.59,0.48-1.18,0.72-1.78c3.07,2.16,6.27,3.55,10.04,1.83c0.55-0.08,1.11-0.16,1.66-0.23
		c0.92,0.12,1.81,0.14,2.56-0.54c0.82-0.01,1.63-0.01,2.45-0.02c4.64,1.22,8.9,2.88,10.11,8.28c-0.06,0.54-0.12,1.08-0.18,1.63
		c-1.34,2.36-3.1,4.33-5.73,5.16c-2.47,0.78-3.52,2.12-3.37,4.85c0.2,3.66-1.93,6-5.34,7.06c-3.26,1.01-5.64-0.64-7.67-2.94
		c-1.88-2.13-2.48-4.9-3.51-7.45c-0.11-0.53-0.21-1.07-0.32-1.6c0.09-1.72,0.29-3.46-0.58-5.07c-0.09-1.11-0.17-2.22-0.26-3.32
		C108.91,230.48,109.11,228.49,108.22,226.61z"/>
	<path class="st0" d="M306.64,419.07c-0.09,0.56-0.19,1.12-0.28,1.68c-1.38,1.09-2.76,2.19-4.14,3.28c-1.08-0.03-2.16-0.07-3.24-0.1
		c-3.07-1.67-5.61-3.85-7.4-6.95c-1.08-1.88-1.6-4.13-3.45-5.54c0,0,0.04,0.03,0.04,0.03c-0.21-1.31-0.54-2.56-1.71-3.37
		c0,0,0.04,0.03,0.04,0.03c0.19-1.36-1.44-2.35-0.75-4.03c3.63,0.98,6.63-0.55,9.65-2.33c2.84-1.67,5.83-3.15,9.33-2.7
		c0,0-0.02-0.01-0.02-0.01c0.4,0.66,1.01,0.75,1.7,0.68c0.15,0.21,0.35,0.28,0.59,0.21c0.37,0.24,0.74,0.48,1.11,0.71
		c0,0,0.02,0.02,0.02,0.02c0.27,0.26,0.54,0.53,0.82,0.79c0,0,0.04,0.03,0.04,0.03c1.11,2.21,1.1,4.46,0.27,6.74
		c-0.27,0.09-0.4,0.28-0.4,0.57c-0.24,0.36-0.48,0.73-0.72,1.09c0,0-0.02,0.03-0.02,0.03C303.41,412.3,307.12,416.03,306.64,419.07z
		"/>
	<path class="st0" d="M341.34,412.33c-0.26-0.03-0.46,0.06-0.61,0.27c-0.49-0.08-0.78,0.13-0.88,0.61c0,0,0.03-0.03,0.03-0.03
		c-3.12,0.78-6.13,0.64-9.17-0.6c-2.12-0.86-4.43-1.28-6.66-1.89c0,0,0.02,0.02,0.02,0.02c-2.36-1.2-4.72-2.4-7.43-3.78
		c3.63-1.77,5.23-4.54,6.07-7.9c1.03-4.12,3.72-6.98,7.22-9.17c0,0-0.03,0.02-0.03,0.02c5.28-0.15,7.65,1.21,7.47,5.45
		c-0.18,4.19,1.69,6.38,5.01,8.03c0.13,0.25,0.27,0.51,0.4,0.76c0.16,0.26,0.32,0.53,0.48,0.79c0,0,0,0,0,0
		c0.27,2.29,0.08,4.51-0.93,6.61c0,0,0.06-0.04,0.06-0.04C342.03,411.76,341.68,412.05,341.34,412.33z"/>
	<path class="st0" d="M251.59,79.1c-2.18-1.22-4.24-0.31-6.29,0.38c-3.28,1.1-6.57,1.77-10.01,0.81c0,0-0.21-0.23-0.21-0.23
		s-0.31,0.01-0.31,0.01c-3.63-3.91-1.61-6.93,1.52-9.78c0,0-0.01,0.03-0.01,0.03c1.81-0.43,1.41-1.87,1.26-3.04
		c-0.37-2.81,0.35-5.07,3.18-6.06c2.99-1.05,5.27,0.53,6.81,2.81c1.46,2.15,2.37,4.67,3.52,7.03c0.14,0.55,0.28,1.1,0.42,1.65
		c0.16,0.34,0.33,0.68,0.49,1.02c-0.08,0.27-0.01,0.49,0.22,0.65c-0.06,0.9-0.11,1.81,0.71,2.45c0,0,0.01,0.02,0.01,0.02
		c-0.03,0.82-0.06,1.65-0.09,2.47C252.4,79.24,252,79.17,251.59,79.1z"/>
	<path class="st0" d="M228.62,134.59l0.2-0.15c0,0-0.04-0.25-0.04-0.25c1.96-2.33,4.42-3.04,6.94-1.32
		c2.04,1.39,3.67,1.26,5.61,0.06c1.72-1.07,3.42-0.69,4.99,0.56c1.62,1.29,1.91,3.06,1.54,4.87c-0.27,1.31-1.03,2.52-1.57,3.77
		c-0.21,0.09-0.3,0.24-0.24,0.47c-3.27,2.96-6.41,6.08-10.17,8.27c-0.9-1.84-1.57-3.68-2.62-5.26c-1.06-1.59-2.48-2.93-3.75-4.38
		c0,0,0.01,0,0.01,0C229.14,139.02,227.51,136.99,228.62,134.59z"/>
	<path class="st0" d="M445.22,169.73c1.32-5.31,3.05-6.26,7.93-4.08c1.54,0.69,2.83,0.97,4.3,0.03c2.37-1.52,4.51-1.01,6.4,0.92
		c1.94,1.97,1.29,3.92,0.19,6.09c-0.84,1.65-2.03,2.97-3.08,4.43c-0.23,0.2-0.45,0.39-0.68,0.59c-2.23,1.45-4.22,3.18-5.91,5.23
		c0,0,0.02-0.04,0.02-0.04c-0.51,0.33-1.02,0.66-1.53,0.99l-0.31-0.08c0,0-0.31,0.05-0.31,0.05c-0.04-2.43-0.68-4.55-2.45-6.38
		c-1.61-1.67-2.91-3.64-4.35-5.47C445.37,171.25,445.3,170.49,445.22,169.73z"/>
	<path class="st0" d="M477.18,274.43c-2.67,2.16-5.33,4.31-8.16,6.6c-1.49-1.58-0.68-4.09-2.57-5.15c0,0-0.02,0.02-0.02,0.02
		c-1.14-1.41-2.29-2.82-3.43-4.23c-0.13-0.24-0.27-0.48-0.4-0.72c-0.17-0.26-0.34-0.51-0.51-0.77c0,0-0.01-0.02-0.01-0.02
		c0.04-0.74-0.11-1.41-0.73-1.9c0.13-0.23,0.09-0.43-0.11-0.61c1.44-6.03,3.01-6.85,8.64-4.25c1.28,0.59,2.25,0.65,3.47-0.05
		c2-1.14,4.15-1.83,6.16-0.03c2.17,1.93,2.1,4.34,1.21,6.86c-0.2,0.22-0.28,0.47-0.23,0.77c-1.08,1.15-2.16,2.29-3.24,3.44
		C477.25,274.37,477.18,274.43,477.18,274.43z"/>
	<path class="st0" d="M405.11,73.5c0.19-0.17,0.25-0.37,0.18-0.62c1.58-1.37,3.17-2.82,5.44-2.61c2.6,0.24,3.32-1.39,3.77-3.41
		c0,0-0.05,0.03-0.05,0.03c0.29-0.3,0.57-0.61,0.86-0.91c0,0-0.05,0.04-0.05,0.04c0.69-0.05,1.3-0.25,1.66-0.9
		c0,0-0.01,0.01-0.01,0.01c5.53,0.26,6.31,1.22,6.84,8.36c-0.09,0.54-0.18,1.08-0.26,1.62c-1.16,3.64-2.32,7.29-3.52,11.04
		c-1.51-1.04-2.07-2.76-3.87-2.68c0,0,0.01,0.01,0.01,0.01c-1.21-1.59-3.2-1.37-4.8-2.04C407.74,79.97,404.48,78.26,405.11,73.5z"/>
	<path class="st0" d="M267.02,224.41c3.35,2.64,3.59,5.5,1.04,8.95c-2.84,3.86-6.48,6.75-10.65,9.84c-0.64-4.01-3.38-6.4-5.4-9.27
		c-1.82-2.58-3.31-5.38-0.8-8.32c2.36-2.75,5-1.56,7.45-0.01c2.29,1.45,3.52-0.54,5.11-1.41
		C264.86,224.27,265.94,224.34,267.02,224.41z"/>
	<path class="st0" d="M553.93,243.36c0.12-0.43,0.25-0.85,0.37-1.28c2.38-2.21,4.89-2.35,7.57-0.55c1.06,0.72,2.11,1.28,3.41,0.33
		c2.88-2.11,5.48-1.08,7.95,0.86c0,0-0.05-0.03-0.05-0.03c0.23,1.91,0.71,3.79-0.5,5.65c-3.01,4.65-6.87,8.3-11.95,10.58
		c0.11-0.2,0.05-0.34-0.16-0.42c-0.34-3.81-2.96-6.12-5.59-8.41c0,0-0.01-0.02-0.01-0.02c-0.23-0.41-0.47-0.81-0.7-1.22
		c-0.11-0.43-0.21-0.86-0.32-1.28C553.94,246.17,553.93,244.76,553.93,243.36z"/>
	<path class="st0" d="M533.98,301.12c0.08-2.03-1.37-3.23-2.51-4.61c-1.42-1.73-2.77-3.53-3.21-5.77c-0.33-1.69-0.22-3.4,1.27-4.58
		c1.42-1.12,3.11-1.44,4.68-0.45c2.09,1.31,3.97,1.48,6.12,0.04c1.65-1.11,3.23-0.16,4.54,0.97c1.75,1.51,1.63,3.44,0.9,5.37
		c-1.25,3.26-4.24,5.09-6.41,7.59c0,0-0.04,0.13-0.04,0.13c-1.56,0.59-2.81,1.6-3.88,2.86l-0.29-0.06c0,0-0.24,0.18-0.24,0.18
		c-0.17-0.19-0.37-0.23-0.6-0.11C534.2,302.15,534.09,301.64,533.98,301.12z"/>
	<path class="st0" d="M177.82,172.5c1.24,2.49,0.59,4.52-1.51,6.2c-0.22-0.05-0.37,0.04-0.43,0.26c-0.35,0.2-0.71,0.4-1.06,0.6
		c0,0-0.03-0.09-0.03-0.09c-3.21,0.06-6.34,1.56-9.62,0.59c0,0-0.02-0.3-0.02-0.3c0.02-2.5,0.04-5,0.06-7.5
		c0.09-0.52,0.19-1.04,0.28-1.56c2.51-4.46,3.43-4.6,7.41-1.12c0,0-0.01,0.33-0.01,0.33c0.39,2.42,1.97,2.56,3.9,2.06
		C177.13,172.15,177.47,172.33,177.82,172.5z"/>
	<path class="st0" d="M310.53,110.07c-1.38-0.38-2.96,0.66-4.22-0.59c0.03-3.07,0.06-6.14,0.09-9.2c0.14-0.51,0.28-1.02,0.42-1.53
		c1.21-1.45,2.77-2.04,4.63-1.87c0.11,0.2,0.27,0.26,0.48,0.17c0.37,0.29,0.75,0.58,1.12,0.88c0,0-0.09-0.04-0.09-0.04
		c0.55,1.73,1.05,3.54,3.51,3.12c0.52,0.15,1.05,0.3,1.57,0.46c1.86,1.93,1.84,4.01,0.47,6.19c-0.22-0.07-0.34,0.01-0.39,0.23
		c-0.39,0.22-0.77,0.44-1.16,0.66l-0.3-0.03c0,0-0.22,0.2-0.22,0.2c-0.72-0.07-1.38,0.04-1.81,0.71l-0.36-0.03
		c0,0-0.32,0.18-0.32,0.18C312.78,109.42,311.6,109.37,310.53,110.07z"/>
	<path class="st0" d="M263.21,326.31c1.29-1.26,2.47-2.76,4.62-2.32c0.3,0.19,0.6,0.38,0.9,0.58c0.29,0.28,0.58,0.57,0.87,0.85
		c0,0-0.02-0.02-0.02-0.02c0.27,0.31,0.54,0.62,0.81,0.93c0,0-0.05-0.02-0.05-0.02c0.01,1.21,0.82,1.62,1.82,1.92
		c2.05,0.61,4.27,1.37,4.02,3.99c-0.24,2.61-2.54,3.38-4.73,4.02c-0.65,0.19-1.29,0.42-1.93,0.63c-0.53,0.1-1.06,0.2-1.59,0.3
		c-1.65-0.07-3.29-0.14-4.94-0.2c0,0,0.07,0.11,0.07,0.11c-0.1-3.05-0.2-6.09-0.3-9.14C262.91,327.39,263.06,326.85,263.21,326.31z"
		/>
	<path class="st0" d="M258.7,287.68c-1.63,0.43-3.14,1.09-4.29,2.39c-5.85,2.74-11.7,5.49-18.42,8.64c3.7-8.17,2.2-14.98-3.18-21.03
		c-2.33-5.03-5.54-9.68-6.4-15.34c-0.7-4.62,0.21-8.91,2.74-12.74c4.48-6.79,10.96-7.89,17.59-3.21c0.23,0.16,0.47,0.31,0.66,0.51
		c4.61,4.99,8.9,8.61,16.68,4.38c4.61-2.5,10.16,0.29,13.47,4.95c3.4,4.78,3.16,10,0.62,15.03c-3.21,6.36-8.96,10.13-14.84,13.69
		C261.8,285.88,260.25,286.77,258.7,287.68z"/>
	<path class="st0" d="M434.22,177.08c-5.62,3.32-11.11,6.85-17.03,9.66c-5.78,2.74-11.46,5.69-17.36,8.63
		c-0.15-0.49-0.43-0.88-0.34-1.13c2.82-7.45,0.5-13.66-3.96-19.84c-4.9-6.8-8.06-14.32-5.64-23.12c2.8-10.19,12.81-14,20.61-6.88
		c5.18,4.73,9.01,7.78,16.4,3.94c4.38-2.28,9.51,0.4,12.92,4.55c3.56,4.33,3.74,9.1,1.8,14.16c-1.54,4.02-4.75,6.78-7.37,9.99
		C434.27,177.04,434.22,177.08,434.22,177.08z"/>
	<path class="st0" d="M380.46,125.88c5.14-5.28,4.81-10.82,3.27-16.8c-1.38-5.38-2.17-10.93,0.33-16.36
		c2.12-4.59,5.19-8.1,10.52-8.26c5.02-0.15,8.38,2.8,10.11,7.33c1.64,4.3,3.74,6.81,9.08,5.98c4.45-0.7,8.67,2.67,10.22,7.08
		c1.65,4.72-0.01,8.77-3.3,12.19c-1.84,1.91-4.16,3.26-6.61,4.29C408.99,123.45,387.06,126.51,380.46,125.88z"/>
	<path class="st0" d="M349.19,309.43c-0.02-0.69-0.26-1.27-0.87-1.64c-1.39-6.35,1.02-9.08,6.67-7.52c1.51,1.82,3.19,1.77,5.17,0.7
		c2.15-1.16,4.4-1.17,6.05,0.88c1.82,2.26,1.56,4.75-0.15,6.94c-2.58,3.32-5.71,6.1-9.06,8.63c-1.05,0.79-2.23,1.63-2.76-0.47
		C353.46,313.81,351.13,311.76,349.19,309.43z"/>
	<path class="st0" d="M544.21,218.18c-0.24-0.31-0.48-0.63-0.72-0.94c-2.93-10.14,0.32-14.86,11.85-16.39
		c2.99-0.4,3.98-1.58,4.52-4.25c1.33-6.57,5.19-10.13,10.77-10.27c5.5-0.14,10.21,3.66,11.94,9.81c1.89,6.74,1.02,13.53,0,20.29
		c-0.84,5.58-1.83,11.13-2.98,18.09c-4.54-7.86-11.19-7.94-17.95-8.05c-4.36-0.07-8.41-1.7-12.43-3.28
		C547.55,221.52,545.88,219.85,544.21,218.18z"/>
	<path class="st0" d="M143.34,139.28c-4.85-1.87-8.68-0.25-12.56,1.23c-2.13,0.81-4.26,0.9-6.51,0.14c-2.39-0.8-4.39-2.07-5.03-4.51
		c-0.69-2.62,0.92-4.61,2.89-5.99c2.16-1.51,3.16-3.13,2.7-5.88c-0.48-2.85,0.66-5.37,3.55-6.33c3.06-1.01,5.72-0.04,7.68,2.64
		C139.99,125.98,141.22,132.36,143.34,139.28z"/>
	<path class="st0" d="M452.86,315.97c0-1.67-0.05-2.78,0.01-3.88c0.12-2.03,1.44-3.34,3.1-4.08c1.78-0.79,2.91,0.72,3.65,1.97
		c0.89,1.5,2.15,1.96,3.67,2.3c1.46,0.33,2.49,1.29,2.75,2.78c0.3,1.72-0.69,2.9-2.02,3.79c-2.9,1.94-6.38,2.39-9.55,2.06
		C451.04,320.55,454.01,317.13,452.86,315.97z"/>
	<path class="st0" d="M161.67,314.5c-0.26-0.29-0.52-0.58-0.77-0.87c1.84-1.85,4.85-0.49,6.67-2.42c3.26-0.93,4.51-3.89,6.33-6.27
		c1-1.21,2-2.43,3-3.64c2.55-1.61,4.9-3.51,7.88-4.45c4.06-1.28,7.62-0.8,10.74,2.18c3.08,2.95,2.67,6.44,1.42,9.99
		c-0.5,1.43-1.11,2.83-1.83,4.17c-0.85,1.59-0.85,2.88,0.86,3.83c4.2,5.11,4.79,9.55,1.81,13.56c-2.79,3.75-7.91,4.56-13.67,2.47
		c-5.3-1.93-8.66-6.41-13.08-9.5c-0.9-1.35-2.06-2.41-3.44-3.25C166.01,317.96,163.78,316.29,161.67,314.5z"/>
</g>
<text transform="matrix(1 0 0 1 171.8821 552.6741)"><tspan x="0" y="0" class="st1 st2 st3">Reconciliation </tspan><tspan x="-29.84" y="75.06" class="st1 st2 st3">Road Challenge</tspan></text>
</svg>
