<?xml version="1.0" encoding="utf-8"?>
<!-- Generator: Adobe Illustrator 24.1.2, SVG Export Plug-In . SVG Version: 6.00 Build 0)  -->
<svg version="1.1" id="Layer_1" xmlns="http://www.w3.org/2000/svg" xmlns:xlink="http://www.w3.org/1999/xlink" x="0px" y="0px"
	 viewBox="0 0 1628.6 579.1" style="enable-background:new 0 0 1628.6 579.1;" xml:space="preserve">
<style type="text/css">
	.st0{fill:#06AED5;}
	.st1{fill:#13273B;}
	.st2{fill:none;stroke:#58595B;stroke-width:5;stroke-linecap:round;stroke-miterlimit:10;}
	.st3{fill:#115F83;}
</style>
<g>
	<path class="st0" d="M260.7,335.9h-0.4c-0.2-5.3,2.3-10.4,0.5-15.8c0-0.6-0.1-1.1-0.1-1.7c-0.6-6.6-3.4-12.1-8.3-16.6l-0.1-0.1
		c-0.2-0.2-0.5-0.5-0.7-0.7l-0.1-0.1c-0.2-0.2-0.5-0.5-0.7-0.7l-0.1-0.1c-0.2-0.2-0.5-0.5-0.7-0.7l-0.1-0.1c-3-3.5-6.7-6.1-10.7-8.5
		l0,0c-0.3-0.3-0.6-0.5-0.9-0.8l0,0c-0.3-0.2-0.6-0.5-0.9-0.7l-0.1-0.1c-0.5-0.4-1-0.8-1.5-1.2c-0.3-0.2-0.5-0.4-0.8-0.6
		c-0.3-0.3-0.6-0.6-1-0.8l0,0c-3.1-3-6.2-6.1-9.3-9.1l0,0c-0.3-0.3-0.5-0.6-0.8-0.9l0,0c-0.3-0.3-0.5-0.6-0.8-1l0.1,0.1
		c-0.3-0.3-0.6-0.6-0.8-1h0.1c-0.9-1.4-1.8-2.8-2.7-4.2c-6.7-9.7-10.3-20.2-9.3-32.2c1.4-17.5,14.9-28.7,32.2-26.5
		c9.3,1.2,17.1,5.6,24.6,10.7c3.5,2.3,5.6,2.2,7.8-1.2l0,0c0.3-0.3,0.6-0.6,0.9-0.9v0.1c1.7-0.7,2.7-2.1,3.7-3.5
		c0.3-0.1,0.5-0.3,0.5-0.5c0.6-0.2,1.1-0.5,1.3-1.2l0.2-0.2c5.2-4.3,11.2-6.6,17.7-8.1c0.6,0,1.1-0.1,1.7-0.1c8.8,0,16.6,3,23.5,8.4
		l0.1,0.1c0.8,1.4,1.8,2.6,3.1,3.5l0,0c6.2,10,7.5,20.7,4.3,32c-1.8,6.5-5.3,12.2-8.3,18.2c-0.8,0.3-1,0.9-1.1,1.6
		c-1.7,1.7-3,3.8-4.1,5.9c-0.6,0.2-0.9,0.6-0.9,1.3c-0.8,0.5-1.5,1.1-1.6,2l0,0c-3.6,4-7.2,7.9-10.8,11.9c-8.3,8-16.7,15.9-25,24
		c-6.1,6-12.4,11.9-17.8,18.6l0,0c-0.3,0.3-0.5,0.6-0.8,0.9l0,0C261.4,335.4,261.1,335.7,260.7,335.9z"/>
	<path class="st0" d="M137.1,295.9c-0.6,0.1-1.1,0.1-1.7,0.2c-1.9,0.3-3.6,0.9-5.1,2.2l0,0c-2.7,0.9-4.9,2.7-7.2,4.2
		c-11,7.2-22.7,12.5-36.3,11.9c-0.6,0-1.1-0.1-1.7-0.1c-0.9-0.3-1.8-0.5-2.8-0.8c-8.8-2.7-16.7-6.7-19.2-16.6
		c-2.4-9.4,1.4-16.9,8.2-23.1c2.7-2.5,5.3-4.9,8.2-7.1c2.4-1.9,2.8-3.8,1-6.4c-5.6-8.6-6.4-17.6-2-26.9l0,0c1.6-2,3.3-4,4.9-6l0,0
		c0.3-0.3,0.6-0.5,0.9-0.8l0,0c10.9-7.3,21.6-6.1,31.8,1.3c8.4,6.1,14.4,14.4,19,23.5c7.7,15.4,15.1,31.1,22.6,46.6
		c0.3,0.5,0.3,1.1-0.3,1.6c-3.1-1.3-6-3.3-9.5-3.6c-0.6,0-1.1-0.1-1.7-0.1C143.2,294.8,140.1,294.8,137.1,295.9z"/>
	<path class="st0" d="M431.6,147c-2-0.4-3.9-0.4-5.9,0.1c-4.3,0.3-7.9,2.3-11.4,4.7c-5.1,3.4-10.3,6.7-16,8.9
		c-9.7,3.8-19.5,4.8-29.1,0.2c-11.2-5.3-14.7-17-8.5-27.7c2.5-4.4,6.2-7.8,10.2-10.9c5.2-3.9,5.2-3.9,1.3-9.7l0,0
		c-0.1-0.4-0.2-0.8-0.3-1.2c-4.1-9.3-2.4-18.8,4.4-25.4c5.9-5.7,16-7,24.6-3.1c7.2,3.3,12.5,8.8,16.8,15.3
		c9.1,13.9,15.2,29.4,22.5,44.2c1.2,2.4,2.8,4.7,3.2,7.9C439.3,149,435.8,146.6,431.6,147z"/>
	<path class="st0" d="M160.5,139.4c0.1,0.6,0.1,1.1,0.1,1.7c0,0.8,0,1.6,0,2.5c-0.1,0.6-0.1,1.1-0.2,1.7c-1,3.5-2.7,6.7-4.3,10
		c-0.2,0.3-0.4,0.5-0.7,0.8c-1.7,1.7-3.4,3.4-5.1,5l0,0c-9.6,5.6-20.1,8.5-31,9.1c-14.6,0.8-29.3,0.9-43.8,2c-0.6,0-1.4,0.2-1.8-0.9
		c1.1-1.1,2.3-2.2,3.5-3.4c5.7-5.4,7.8-12.1,6.6-19.8c-1.5-9.2-2.8-18.4-2.3-27.8c0.1-0.6,0.1-1.1,0.2-1.7
		c1.7-5.9,4.2-11.5,7.7-16.6l0,0c7.4-7.1,15.7-10.2,25.7-5.9l0,0c0.9,1.2,2,2,3.4,2.6v-0.1c0.3,0.3,0.6,0.6,0.9,0.9h-0.1
		c0.8,1.7,2,3,3.4,4.2v-0.1c0,0.7,0.4,1.2,1,1.6l0,0c1.8,4.5,3.8,8.9,4.7,13.7c0.5,2.9,1.9,3.2,4.3,2.8c8.3-1.7,15.6,0.5,21.9,6.2
		l0,0C157.2,131.3,159.4,135.1,160.5,139.4z"/>
	<path class="st0" d="M365.6,284.2c0.5-0.1,1.1-0.2,1.7-0.3c5.2-0.4,10.3,0.4,15,2.7l0,0c0.9,1.2,2,1.9,3.4,2.5l0,0
		c0.3,0.3,0.6,0.5,0.8,0.8l0,0c0.3,0.3,0.5,0.6,0.8,0.9l0,0c0.3,0.3,0.5,0.6,0.8,1H388c3.9,6.5,4.5,13.5,2.9,20.8
		c-1.7,8-6.4,14.3-11.1,20.7c-5.9,8.1-13.4,14.7-19.4,22.8l0,0c-0.3,0.3-0.6,0.6-0.9,0.9l0,0c-0.3,0.3-0.5,0.6-0.8,0.9l0,0
		c-0.3,0.3-0.5,0.6-0.8,0.9l0,0c-3.9,4-7.8,8-12.1,12.4c-1-2.7-0.6-4.6-0.5-6.5c0.1-6.5-2-12.2-7-16.3c-5.2-4.3-10.9-8.2-16.3-12.2
		c-2.3-2.5-4.5-5-6.7-7.5c-0.3-0.3-0.5-0.6-0.7-0.9c-0.2-1.1-0.7-1.9-1.7-2.5c-1.4-3.9-3.1-7.7-4-11.8c-2.5-11.8,4.5-22.7,15.8-24.7
		c4-0.7,7.6,0.8,11.5,1.4l0,0c3.5,1.8,7.2,3.4,10.6,5.4c2.4,1.5,4,1.1,5.5-1.1C355.7,289.6,360.1,286.2,365.6,284.2z"/>
	<path class="st0" d="M178.1,175.4c1.9,0,3.9,0,5.9,0c13.8,4.6,19.3,12.4,17.7,25.6c-0.7,6.3-3.5,12-6.8,17.4
		c-6.6,10.8-16,19.2-24.4,28.5c-4.7,5.3-9.5,10.4-14.4,15.6c-0.4-0.6-0.6-0.8-0.6-1c0-0.8,0-1.7,0.1-2.5c0.9-9.4-3-16.5-10.6-21.7
		c-7.2-4.9-13.9-10.2-19.5-16.8l0,0c-5.8-9-8.8-18.5-5.2-29.1l0,0c0.6-0.4,0.9-0.9,0.9-1.7l0,0c3.4-5.1,8-8.4,14.2-9.2
		c6.6-0.8,12.5,1.8,18.2,4.8c7.1,3.8,7.1,3.8,11.9-3.2l0,0c0.3-0.3,0.6-0.5,0.8-0.8l0,0c0.3-0.3,0.6-0.6,0.8-0.8l0,0
		c0.3-0.3,0.7-0.5,1-0.8c0.3-0.2,0.5-0.4,0.7-0.7C171.8,177.4,174.9,176.3,178.1,175.4z"/>
	<path class="st0" d="M431.6,163.7c0.6-0.1,1.1-0.1,1.7-0.2c4.9-0.4,9.3,0.7,13.3,3.6l0,0c0.3,0.3,0.6,0.6,0.9,0.8l0,0
		c5.3,6.4,5.8,14,5.1,21.8c-0.3,3.4,0.7,4.9,4.1,5.7c10.1,2.2,16,9.4,16,19c0,7.9-6.6,15.6-15.6,17.9c-8.5,2.1-17,1.3-25.2-1
		c-9.7-2.6-19.2-5.8-28.8-8.7c-0.5-0.1-1.1-0.2-1.6-0.4c-3.2-1.2-6.3-2.5-9.5-3.7c0.4-1.4,1.6-1.3,2.4-1.6c7.5-3,12-8.4,13.3-16.4
		c1.3-8.4,3.4-16.6,7.3-24.2l0,0c0.2-0.3,0.5-0.6,0.7-0.9v-0.1c1-0.5,1.4-1.4,1.8-2.4l0,0c0.3-0.3,0.5-0.6,0.8-0.9l0,0
		C422.1,168.3,426.7,165.6,431.6,163.7z"/>
	<path class="st0" d="M244.1,409.5c-0.5,0.1-1.1,0.3-1.6,0.4c-0.8,0.1-1.6,0.3-2.4,0.4c-12.9,2-25.7-3.4-24.6-18.2
		c0.1-0.6,0.1-1.1,0.2-1.7c0.6-1.4,1.1-2.8,1.7-4.2l0,0c0.2-0.3,0.4-0.5,0.5-0.8s0.2-0.5,0.4-0.8c0.9-0.6,1.4-1.5,1.7-2.5l0,0
		c6.8-6.6,6.8-6.6,2.1-14.6c-4.2-7.2-3.1-15,3-22.2H225c0.3-0.3,0.6-0.6,0.9-0.9v0.1c6.3-4,13-4.3,19.9-1.7l0,0
		c3.4,2.2,6.7,4.4,10.1,6.7l0,0c1.3,2.1,3.1,3.7,5,5.2c0.2,0.3,0.4,0.5,0.6,0.7c6.5,8.9,13,17.8,19.5,26.7c0.2,0.3,0.5,0.6,0.7,0.9
		c0.9,2.9,3.8,4.7,4.5,8.4c-9.4-3.2-17.3-1.7-23.6,5.7l0,0c-0.3,0.3-0.6,0.6-0.9,0.9l0,0c-0.3,0.3-0.7,0.6-1,0.9
		c-0.3,0.2-0.5,0.4-0.8,0.6c-4.1,2.9-8.3,5.8-12.4,8.7l0,0C246.2,408.1,245.1,408.6,244.1,409.5z"/>
	<path class="st0" d="M393.9,239.1c-0.1,0.3,0,0.5,0.2,0.6c0.5,3.6,1.6,6.9,3.2,10.1l0,0c2,6.9,3.9,13.9,5.9,20.8l0,0
		c-0.5-0.2-1.1-0.2-1.6-0.5c-7-4.8-14.2-4.8-21.6-0.9c-5.6,2.9-11.6,4.8-17.9,5.2c-8.1,0.6-15.1-1.9-20.1-8.6
		c-4-5.4-2.6-10.7,0.3-16l0,0c2.5-2.3,5-4.5,7.5-6.8l0,0c0.8-0.1,1.5-0.6,2-1.3l0.1-0.1c5.3-1.4,3.5-4.8,2.4-8.1
		c-2.3-6.3-0.5-11.8,4-16.4c4.6-4.7,10.3-5.7,16.5-3.7c4.7,1.5,7.8,5,11,8.5l0,0C389.2,227.5,391.5,233.3,393.9,239.1z"/>
	<path class="st0" d="M429,282.5c0.7-0.4,0.8-1,0.8-1.7c2.7-3.2,5.4-6.4,8.9-8.7c2.1-1.4,2.3-2.8,1.1-4.9c-0.7-1.2-1.3-2.5-1.8-3.8
		c-3.6-9.4,1.4-19.7,10.7-21.7c2.5-0.5,5.3-0.2,7.9-0.3c0.1,0.2,0.3,0.3,0.5,0.1c6.8,2.8,12,7.4,16,13.4c2.2,3.2,4,6.6,6.1,9.9l0,0
		c3.9,8.4,7.9,16.8,11.8,25.3c0.4,0.9,1.2,1.8,0.6,2.7c-0.7,1-1.8,0.2-2.7-0.1c-7-3-13.2-1.1-19.3,2.8c-5.6,3.6-11.4,6.9-18,8.3
		C436.3,307.2,425.3,296.8,429,282.5z"/>
	<path class="st0" d="M309.6,451.5c0,0.6-0.1,1.1-0.1,1.7c-0.9,1-0.9,2.1-0.9,3.3l0,0c-2.6,5.2-4.5,10.7-8.2,15.3
		c-5.2,6.6-10.2,13.2-15.5,19.7c-2.3,2.9-4.1,6.3-7.3,8.5l0,0c0.2-7.3-1.2-13.8-8.4-17.6l0,0c-1.6-2-4-2.9-6.1-4.2
		c-9.8-6-17-13.6-17.5-25.9c0-0.6,0.1-1.1,0.1-1.7c1.4-3,2-6.3,4.7-8.6c6-5.4,12.4-4.1,19.1-1.6c7.6,2.9,7.6,2.7,12.3-4
		c0.3-0.2,0.5-0.5,0.8-0.7c7.7-5.1,15.1-5,22.4,0.8l0,0C308.1,441.1,309.9,446,309.6,451.5z"/>
	<path class="st0" d="M194.8,104.9c0.2,0.2,0.4,0.3,0.7,0.2c5,3.2,5,3.2,8.4-1.1c1.1-1.4,2.2-2.7,3.4-4.1l0.1-0.1
		c0.3-0.2,0.6-0.5,0.9-0.7l0,0c0.3-0.3,0.6-0.5,0.9-0.8v0.1c1.5-0.3,2.9-0.8,4.2-1.7c0.8-0.1,1.7-0.2,2.5-0.3
		c14.3-0.3,19.5,11.3,17.2,22c-1,4.7-2.7,9-5.5,12.9c-4.8,6.8-9.7,13.5-14.6,20.2l0.1,0.3l-0.1-0.3c-1.1,0.6-1.8,1.6-2.2,2.8l0,0
		c-0.3,0.3-0.5,0.6-0.8,0.9v0.1c-3,2.2-4.1,6.4-8.1,8.2c-0.4-7.2-1.9-13.4-8.6-16.8l0,0c-0.6-0.9-1.4-1.6-2.6-1.7v0.1
		c-0.3-0.2-0.6-0.5-1-0.7h-0.1c-2-1.8-4.1-3.3-6.5-4.3l0,0c-0.3-0.2-0.6-0.5-0.9-0.7l0,0c-5.1-4.2-9.5-8.9-11.2-15.6
		c-2.9-11.3,2.1-20.1,12.4-21C187.4,102.5,191.1,104,194.8,104.9z"/>
	<path class="st0" d="M171.8,327c0.2,0,0.4,0,0.4-0.3c0.6-0.3,1.2-0.6,1.8-0.9c9-5,19-0.1,20.4,10c0.7,5.1-0.9,9.7-3.8,13.7
		c-2.4,3.4-5.1,6.6-7.6,9.9l0,0c-2.3,2.2-4.5,4.5-6.7,6.7l0,0c-2,1.4-3.7,3.1-5.2,5c-0.3,0-0.5,0.2-0.5,0.5c-3,1.6-4.7,5.2-8.4,6.4
		c-0.2-6.2-0.6-12-6.6-15.2l0,0c-0.3-0.3-0.6-0.6-0.9-0.9l0,0c-3.9-4.2-7.8-8.4-11.7-12.6l0,0c-0.8-2.1-1.5-4.3-2.8-6.1v-0.3
		c0.2-4.3-0.1-8.6,1.9-12.7l0,0c0.2-0.3,0.5-0.6,0.7-0.9c0.3-0.4,0.6-0.7,0.9-1c3-2.4,6.4-3.5,10.3-3.2c3,0.2,5.3,2.1,8.1,2.7l0,0
		c0.3,0.2,0.6,0.4,0.9,0.6c0.1,0.2,0.4,0.3,0.6,0.3C167.7,331.7,167.7,331.7,171.8,327z"/>
	<path class="st0" d="M296,165.2c-1.6,1.2-3,2.6-4.1,4.3l0,0c-0.3,0.3-0.5,0.5-0.8,0.8l0,0c-0.3,0.3-0.5,0.5-0.8,0.8l0,0
		c-0.3,0.3-0.5,0.5-0.8,0.8l0,0c-1.7,1.1-3.2,2.4-4.2,4.1l0,0c-1.1,0.6-2,1.4-2.5,2.5l0,0c-1.4,0.8-2.6,1.8-3.4,3.3l0,0
		c-2.8,2.3-5.7,4.7-9,7.5c0-2.1,0-3.6,0-5.1c0-4.3-1.7-7.9-4.9-10.6c-4.2-3.4-8.1-7.1-11.9-10.9l0,0c-2.6-4.8-4.9-9.5-4.4-15.3
		c0.8-8.8,7.6-13.7,16-11.1c2.5,0.8,5.1,1.7,7.2,3.2c2.9,2.1,5.1,2.1,7.2-0.8c0.5-0.7,1.1-1.2,1.7-1.8c0.7-0.1,1.3-0.4,1.6-1.1
		c6.3-2.2,12.4-2.4,17.1,3.2c4.8,5.8,3.8,12.1,0.9,18.4C299.4,160.2,297.6,162.7,296,165.2L296,165.2z"/>
	<path class="st0" d="M404.7,317.6c0.1-0.5,0.2-1.1,0.3-1.6c0.4-0.9,0.9-1.7,1.3-2.5c4.1-9.2,12.5-11.1,20.2-4.6
		c2,1.7,4,3.5,5.7,5.5c1.3,1.4,2.4,1.7,3.9,0.7c4.3-3,9-3.2,13.9-2.4l0,0c8.3,5.6,10.6,11.6,7.1,19.3c-2.4,5.3-6.5,9-11.3,12
		c-9.3,5.8-19.4,10.4-29.2,15.3c-0.4,0.2-1,0.6-1.6-0.4c1.5-3.9,2.5-8,0.7-12.3c-1.6-3.9-4.1-7.2-6.5-10.5l0,0
		C407,330,403.8,324.3,404.7,317.6z"/>
	<path class="st0" d="M65.1,182.8c0.3,0.3,0.6,0.6,0.9,0.9c0.6,1.8,1.5,2.6,3.3,1.3c1.7-1.2,3.3-2.4,5-3.7l0,0
		c5.3-1.9,10.2-1.1,14.9,1.9c0.2,0.2,0.5,0.4,0.7,0.7c1.2,1.9,2.4,3.8,3.6,5.8c0.1,0.6,0.1,1.1,0.2,1.6c0.7,6.6-2.3,11.8-6.1,16.7
		l0,0c-1.6,1.2-3.1,2.5-4.2,4.2l0,0c-9.5,6.4-19,12.8-28.9,19.5c-0.2-3.3,1-5.9,0.3-8.5c0-0.6,0-1.1-0.1-1.7
		c-0.6-3.8-2.7-6.8-5.7-9.1v-0.1c-1-2-2.3-3.7-4-5.1l0,0c-1.5-3.3-3.9-6.1-4.6-9.7c-1.3-6.4-1.3-12.4,3.6-17.5
		c4.2-4.4,9.2-3.6,14.3-2l0,0C60.6,179.5,62.9,181.1,65.1,182.8z"/>
	<path class="st0" d="M210.6,195.4c0-6.7,4.2-10.7,9.4-13.8c2.9-1.7,3.7-3.4,2.5-6.7c-2.2-6.3-0.1-11.7,5.2-15.2
		c4.3-2.9,10.3-2.3,15.1,1.5c3.9,3.1,6.5,7.2,8.4,11.8c4,9.8,6.5,20,9.9,31.4c-7.6-5.7-14.2-3.8-20.9-0.8c-4.8,2.1-9.9,3.8-15.3,3.6
		c-0.6-0.1-1.1-0.1-1.6-0.2c-5.6-1.5-10.5-4-12.5-10C210.7,196.5,210.6,196,210.6,195.4z"/>
	<path class="st0" d="M490.5,164.1c-0.3-0.1-0.7-0.2-1-0.3c-3.4,0.2-6.3,1.8-9.4,3.1c-0.6,0.1-1.1,0.2-1.7,0.3
		c-0.3,0.1-0.7,0.3-1,0.4v-0.1c-3.6,0.1-7.1,0.3-10.7,0.4l-0.3-0.2H466c-2.8-1.4-5.6-2.9-8.4-4.3l0,0c-3.9-5-4.3-10.3-0.9-15.7l0,0
		c1.9-1.4,3.8-2.9,5.7-4.4h0.1c0.3-0.2,0.6-0.5,1-0.7l-0.1,0.1c0.7,0,1.2-0.4,1.6-1l0,0c2.3-0.4,2.7-1.8,2.3-3.9
		c-2.5-12.3,3.8-18.8,16-16.8l0,0c4.9,2.7,8.4,6.7,10.5,11.8c4.5,10.9,6.5,22.5,8.8,34c-0.5-0.1-1-0.1-1.5-0.2
		C498.2,163.6,494.7,162.7,490.5,164.1z"/>
	<path class="st0" d="M295.9,387.9c0-0.6,0-1.1,0.1-1.7c0.7-3.9-1.4-6.7-3.6-9.5c-3.2-4.1-5.8-8.6-7.5-13.4c-3-8.4,0.6-17.1,8-19.3
		c5.7-1.7,9.8,1.5,13.3,5.1c2.8,2.9,5,3.8,8.7,1.2c3.9-2.7,8.5-2.5,12.6,0.2s5.9,6.5,5.5,11.4c-0.4,4.6-2.6,8.1-5.8,11.3
		c-7.1,7.1-16.2,11.2-24.7,16.2c-2.3,1.3-4.4,3.1-7.5,3.8C295.3,391.1,296.5,389.6,295.9,387.9z"/>
	<path class="st0" d="M301.1,422.2c-3.2-7-2.1-10.7,5-15.3c2.4-1.6,3.4-2.9,2.5-6c-1.6-5.2,0.3-9.5,4.4-11.8s8.5-1.6,12.5,2.2
		c0.4,0.4,0.9,0.7,1.3,1c0.2,0.2,0.5,0.5,0.7,0.7c0.9,1.2,1.8,2.4,2.6,3.6c-0.1,0.2,0,0.4,0.2,0.5c3.5,8.5,6.3,17.3,8.6,27.1
		c-6-3.6-10.9-2.5-16.2-0.1C315.4,427.6,307.9,428.2,301.1,422.2L301.1,422.2z"/>
	<path class="st0" d="M218.3,334.5c-0.9,0-1.7-0.1-2.5-0.1c-1.8-1-3.8-1.8-5.4-3.1c-4-3.2-4.5-8-1.4-11.7c5.6-6.7,5.6-6.7,6.2-15.1
		h-0.1c3.2-5.2,6.7-7,11.2-5.8c3.6,0.9,6.3,3.2,8,6.3c4.4,8.2,6.5,17.2,9.5,26.8c-4.5-2.1-8.4-3-12.3-1.2
		C227.2,332.5,222.7,333.4,218.3,334.5z"/>
	<path class="st0" d="M373.9,375.4l-0.3-0.2l-0.3,0.1c-1.1-0.9-2.4-0.8-3.6-0.6l-0.3-0.2H369c-0.5-0.5-1.1-0.9-1.6-1.4l0,0
		c5-2.3,5.9-6.9,6.3-11.7c0.5-4.6,1.4-9,4.4-12.7c1.7-1.1,3.4-2.1,5.1-3.2c5.4,0,8.8,1.9,9.4,6.8c0.5,4.4,2.1,6.5,6.4,8
		c6,2.1,6.7,9.7,1.9,13.9c-2.2,1.9-4.8,2.7-7.6,3c-4.3,0.5-8.5-0.5-12.8-0.8c-0.8-0.1-1.7-0.2-2.5-0.2
		C376.8,375.3,375.4,375.4,373.9,375.4z"/>
	<path class="st0" d="M161.2,103.7c-0.1,0.2-0.1,0.4,0.1,0.5c-0.1,0.8,0.1,1.4,0.7,1.9c-0.1,0.2-0.1,0.4,0.2,0.6
		c-0.2,0.9,0.2,2.6-1.7,1.7c-3.9-2-7.5-0.6-11.1,0.9c-2,0.8-4.1,1.6-6.3,2.1c-4.6,1-9.8-1.3-11.8-5c-2.4-4.5,0.3-7.3,3.3-10
		c0.4-0.4,0.6-0.9,1-1.3l0,0c2.3-0.4,2.9-1.9,2.4-3.9c-1-4.2,0.3-7.6,3.4-10.3l0,0c1.7-0.3,3.3-0.7,5-1.1c0.6,0.1,1.1,0.2,1.6,0.3
		c2,1.6,3.9,3.2,5.9,4.9l0,0c0.3,0.3,0.5,0.7,0.8,1c0.1,0.2,0.3,0.5,0.4,0.7c0.2,0.3,0.3,0.5,0.5,0.8l0,0c0.2,0.4,0.4,0.9,0.7,1.3
		l-0.1,0.2l0.2,0.2C157.5,94.2,159.3,98.9,161.2,103.7z"/>
	<path class="st0" d="M310.2,175.4c4.5,7.8,7.1,16.2,9.4,25.6c-5.4-2.6-10.1-0.9-14.9,1.1c-3.6,1.6-7.4,2.2-11.3,0.5
		c-6.5-2.8-7.8-8.9-2.2-13.4c2.9-2.4,4.7-4.2,3.6-8.5c-1.2-5.2,5-9.8,10.1-8.1c1.6,0.5,3,1.4,4.5,2.1
		C309.6,174.9,309.9,175.2,310.2,175.4z"/>
	<path class="st0" d="M463.2,101.8c2.7,6.1,1.9,10.5-3.7,14.5c-5.7,4.1-11.9,7.5-19,11.8c1.4-7.9-4-12.3-6.2-17.9
		c-0.8-2.1-1.5-4.2-1.3-6.4c0.3-3.3,1.5-6,4.6-7.4c3-1.4,5.7-0.5,8.1,1.4c0.8,0.6,1.6,1.1,2.4,1.7l0,0c1,1.9,2.6,2,4.2,1.1
		c3.6-2,6.8-1.3,10.1,0.7C462.7,101.4,463,101.6,463.2,101.8z"/>
	<path class="st0" d="M366.5,399.6c-0.2,0.1-0.3,0.4-0.2,0.6c-2,3.3-5.1,5.6-7.5,8.6c-0.3,0.3-0.5,0.5-0.8,0.8
		c-1.6,0.9-2.9,2-3.9,3.5l-0.1,0.1c-1.8,1-3.1,2.3-4.4,3.9l0,0c-1,0.1-1.6-0.3-1.5-1.4c0.2-3.5-1.7-6-4.2-8.1
		c-3.1-2.8-5.6-5.9-7.4-9.7c-0.1-0.5-0.2-1.1-0.3-1.6c0.8-8.9,4.8-11.4,12.6-7.5c2.9,1.4,4.8,0.9,7.2-0.7c2.5-1.8,5.2-1.6,7.8-0.2
		c2.7,1.5,3.9,3.9,3.7,6.9C367.3,396.4,366.8,398,366.5,399.6z"/>
	<path class="st0" d="M491.8,173.7c0.6,1.2,1.5,2.4,1.8,3.7c0.8,3.9,2,6.8,6.6,8.3c4.8,1.6,5.1,8.2,1.1,11.6c-1.3,1.2-3,1.9-4.5,2.9
		c-0.8,0.1-1.6,0.2-2.5,0.3c-0.5,0-1.1,0-1.6,0c-0.6,0-1.1-0.1-1.7-0.1c-0.3,0-0.6,0-0.8,0c-0.5,0-1.1-0.1-1.6-0.1
		c-2.7-0.8-5.5-1.3-8.4-1.4c-0.8-0.1-1.7-0.2-2.5-0.3c-1.9-0.6-3.9-1.1-5.8-1.7l0,0c0.3-0.5,0.6-1,0.8-1.5l0,0
		c3.5-1.8,4.3-4.9,4-8.5c0-0.5,0.1-1.1,0.1-1.6c0.4-1.7,0.8-3.4,1.3-5.1c2-6.7,6.1-9,12.7-7.3v-0.1
		C491.2,173.2,491.5,173.5,491.8,173.7L491.8,173.7z"/>
	<path class="st0" d="M410,261.5c-0.1-0.5-0.2-1.1-0.3-1.6c-0.2-0.3-0.4-0.7-0.5-1h0.1c-1.8-4.4-5.1-8.1-5.1-13.2l0.1-0.2l-0.1-0.2
		c2.3-6,6.1-9,9.4-6.5c4.5,3.4,8.9,4.7,14.3,3.5c0.6-0.1,1.4,0.2,2,0.3v-0.1c0.3,0.3,0.6,0.5,1,0.8l0,0c4,4.1,2.8,8.3,0.1,12.5
		c-0.3,0.3-0.6,0.6-0.9,0.9c-1.1,0.5-2.1,1.1-2.7,2.3l0,0c-5.3,2.8-10.6,5.6-15.9,8.5h-0.4l-0.3,0.2
		C409.1,265.7,411.8,263.3,410,261.5z"/>
	<path class="st0" d="M190.6,367.8c0.2,0.2,0.4,0.3,0.6,0.2c1.6,1.4,3.3,2.6,4.7,4.1c1.3,1.3,2.5,1.6,4,0.8c3-1.5,5.9-1,8.8,0.4
		l0.3-0.1l-0.3,0.1c2.2,3,2.9,6.1,1.3,9.7c-1,2.1-3,3.3-4.2,5.1h-0.1c-0.3,0.2-0.6,0.5-0.9,0.7l0,0c-0.4,0.3-0.7,0.5-1.1,0.7h-0.3
		l-0.3,0.2c-0.3,0.2-0.7,0.4-1,0.6v-0.1c-3,1-5.6,2.6-8.3,4.4c-0.7,0-1.3,0.2-1.7,0.8c-1.4,0.1-2.4,1.4-4.1,1
		c0.1-3.4-0.1-6.8-2.2-9.9c-1.3-1.9-2.2-4.2-3.1-6.3C180.2,373.6,183.5,368.3,190.6,367.8z"/>
	<path class="st0" d="M42.6,244.8c0.2-0.6,0.5-1.2,0.7-1.8c3.1,2.2,6.3,3.6,10,1.8c0.6-0.1,1.1-0.2,1.7-0.2c0.9,0.1,1.8,0.1,2.6-0.5
		c0.8,0,1.6,0,2.4,0c4.6,1.2,8.9,2.9,10.1,8.3c-0.1,0.5-0.1,1.1-0.2,1.6c-1.3,2.4-3.1,4.3-5.7,5.2c-2.5,0.8-3.5,2.1-3.4,4.9
		c0.2,3.7-1.9,6-5.3,7.1c-3.3,1-5.6-0.6-7.7-2.9c-1.9-2.1-2.5-4.9-3.5-7.5c-0.1-0.5-0.2-1.1-0.3-1.6c0.1-1.7,0.3-3.5-0.6-5.1
		c-0.1-1.1-0.2-2.2-0.3-3.3C43.3,248.7,43.5,246.7,42.6,244.8z"/>
	<path class="st0" d="M241,437.3c-0.1,0.6-0.2,1.1-0.3,1.7c-1.4,1.1-2.8,2.2-4.1,3.3c-1.1,0-2.2-0.1-3.2-0.1c-3.1-1.7-5.6-3.9-7.4-7
		c-1.1-1.9-1.6-4.1-3.4-5.5l0,0c-0.2-1.3-0.5-2.6-1.7-3.4l0,0c0.2-1.4-1.4-2.4-0.8-4c3.6,1,6.6-0.5,9.6-2.3c2.8-1.7,5.8-3.1,9.3-2.7
		l0,0c0.4,0.7,1,0.8,1.7,0.7c0.1,0.2,0.4,0.3,0.6,0.2c0.4,0.2,0.7,0.5,1.1,0.7l0,0c0.3,0.3,0.5,0.5,0.8,0.8l0,0
		c1.1,2.2,1.1,4.5,0.3,6.7c-0.3,0.1-0.4,0.3-0.4,0.6c-0.2,0.4-0.5,0.7-0.7,1.1l0,0C237.8,430.5,241.5,434.2,241,437.3z"/>
	<path class="st0" d="M275.7,430.5c-0.3,0-0.5,0.1-0.6,0.3c-0.5-0.1-0.8,0.1-0.9,0.6l0,0c-3.1,0.8-6.1,0.6-9.2-0.6
		c-2.1-0.9-4.4-1.3-6.7-1.9l0,0c-2.4-1.2-4.7-2.4-7.4-3.8c3.6-1.8,5.2-4.5,6.1-7.9c1-4.1,3.7-7,7.2-9.2l0,0c5.3-0.1,7.6,1.2,7.5,5.5
		c-0.2,4.2,1.7,6.4,5,8c0.1,0.3,0.3,0.5,0.4,0.8c0.2,0.3,0.3,0.5,0.5,0.8l0,0c0.3,2.3,0.1,4.5-0.9,6.6h0.1
		C276.4,429.9,276.1,430.2,275.7,430.5z"/>
	<path class="st0" d="M186,97.3c-2.2-1.2-4.2-0.3-6.3,0.4c-3.3,1.1-6.6,1.8-10,0.8l-0.2-0.2h-0.3c-3.6-3.9-1.6-6.9,1.5-9.8l0,0
		c1.8-0.4,1.4-1.9,1.3-3c-0.4-2.8,0.4-5.1,3.2-6.1c3-1.1,5.3,0.5,6.8,2.8c1.5,2.2,2.4,4.7,3.5,7c0.1,0.6,0.3,1.1,0.4,1.7
		c0.2,0.3,0.3,0.7,0.5,1c-0.1,0.3,0,0.5,0.2,0.7c-0.1,0.9-0.1,1.8,0.7,2.4l0,0c0,0.8-0.1,1.7-0.1,2.5
		C186.8,97.4,186.4,97.3,186,97.3z"/>
	<path class="st0" d="M163,152.8l0.2-0.1v-0.3c2-2.3,4.4-3,6.9-1.3c2,1.4,3.7,1.3,5.6,0.1c1.7-1.1,3.4-0.7,5,0.6s1.9,3.1,1.5,4.9
		c-0.3,1.3-1,2.5-1.6,3.8c-0.2,0.1-0.3,0.2-0.2,0.5c-3.3,3-6.4,6.1-10.2,8.3c-0.9-1.8-1.6-3.7-2.6-5.3c-1.1-1.6-2.5-2.9-3.8-4.4l0,0
		C163.5,157.2,161.9,155.2,163,152.8z"/>
	<path class="st0" d="M379.6,187.9c1.3-5.3,3-6.3,7.9-4.1c1.5,0.7,2.8,1,4.3,0c2.4-1.5,4.5-1,6.4,0.9c1.9,2,1.3,3.9,0.2,6.1
		c-0.8,1.6-2,3-3.1,4.4c-0.2,0.2-0.5,0.4-0.7,0.6c-2.2,1.4-4.2,3.2-5.9,5.2l0,0c-0.5,0.3-1,0.7-1.5,1l-0.3-0.1l-0.3,0.1
		c0-2.4-0.7-4.6-2.5-6.4c-1.6-1.7-2.9-3.6-4.4-5.5C379.8,189.4,379.7,188.7,379.6,187.9z"/>
	<path class="st0" d="M411.6,292.6c-2.7,2.2-5.3,4.3-8.2,6.6c-1.5-1.6-0.7-4.1-2.6-5.1l0,0c-1.1-1.4-2.3-2.8-3.4-4.2
		c-0.1-0.2-0.3-0.5-0.4-0.7c-0.2-0.3-0.3-0.5-0.5-0.8l0,0c0-0.7-0.1-1.4-0.7-1.9c0.1-0.2,0.1-0.4-0.1-0.6c1.4-6,3-6.9,8.6-4.3
		c1.3,0.6,2.3,0.6,3.5,0c2-1.1,4.1-1.8,6.2,0c2.2,1.9,2.1,4.3,1.2,6.9c-0.2,0.2-0.3,0.5-0.2,0.8
		C413.8,290.3,412.7,291.4,411.6,292.6L411.6,292.6z"/>
	<path class="st0" d="M339.5,91.7c0.2-0.2,0.3-0.4,0.2-0.6c1.6-1.4,3.2-2.8,5.4-2.6c2.6,0.2,3.3-1.4,3.8-3.4l0,0
		c0.3-0.3,0.6-0.6,0.9-0.9l0,0c0.7-0.1,1.3-0.3,1.7-0.9l0,0c5.5,0.3,6.3,1.2,6.8,8.4c-0.1,0.5-0.2,1.1-0.3,1.6
		c-1.2,3.6-2.3,7.3-3.5,11c-1.5-1-2.1-2.8-3.9-2.7l0,0c-1.2-1.6-3.2-1.4-4.8-2C342.1,98.2,338.9,96.4,339.5,91.7z"/>
	<path class="st0" d="M201.4,242.6c3.4,2.6,3.6,5.5,1,8.9c-2.8,3.9-6.5,6.7-10.6,9.8c-0.6-4-3.4-6.4-5.4-9.3
		c-1.8-2.6-3.3-5.4-0.8-8.3c2.4-2.8,5-1.6,7.4,0c2.3,1.4,3.5-0.5,5.1-1.4C199.3,242.4,200.3,242.5,201.4,242.6z"/>
	<path class="st0" d="M488.3,261.5c0.1-0.4,0.3-0.9,0.4-1.3c2.4-2.2,4.9-2.4,7.6-0.5c1.1,0.7,2.1,1.3,3.4,0.3c2.9-2.1,5.5-1.1,8,0.9
		l0,0c0.2,1.9,0.7,3.8-0.5,5.6c-3,4.6-6.9,8.3-12,10.6c0.1-0.2,0-0.3-0.2-0.4c-0.3-3.8-3-6.1-5.6-8.4l0,0c-0.2-0.4-0.5-0.8-0.7-1.2
		c-0.1-0.4-0.2-0.9-0.3-1.3C488.3,264.4,488.3,263,488.3,261.5z"/>
	<path class="st0" d="M468.4,319.3c0.1-2-1.4-3.2-2.5-4.6c-1.4-1.7-2.8-3.5-3.2-5.8c-0.3-1.7-0.2-3.4,1.3-4.6
		c1.4-1.1,3.1-1.4,4.7-0.5c2.1,1.3,4,1.5,6.1,0c1.6-1.1,3.2-0.2,4.5,1c1.8,1.5,1.6,3.4,0.9,5.4c-1.3,3.3-4.2,5.1-6.4,7.6v0.1
		c-1.6,0.6-2.8,1.6-3.9,2.9l-0.3-0.1l-0.2,0.2c-0.2-0.2-0.4-0.2-0.6-0.1C468.6,320.3,468.5,319.8,468.4,319.3z"/>
	<path class="st0" d="M112.2,190.7c1.2,2.5,0.6,4.5-1.5,6.2c-0.2-0.1-0.4,0-0.4,0.3c-0.4,0.2-0.7,0.4-1.1,0.6v-0.1
		c-3.2,0.1-6.3,1.6-9.6,0.6V198c0-2.5,0-5,0.1-7.5c0.1-0.5,0.2-1,0.3-1.6c2.5-4.5,3.4-4.6,7.4-1.1v0.3c0.4,2.4,2,2.6,3.9,2.1
		C111.5,190.3,111.9,190.5,112.2,190.7z"/>
	<path class="st0" d="M244.9,128.3c-1.4-0.4-3,0.7-4.2-0.6c0-3.1,0.1-6.1,0.1-9.2c0.1-0.5,0.3-1,0.4-1.5c1.2-1.4,2.8-2,4.6-1.9
		c0.1,0.2,0.3,0.3,0.5,0.2c0.4,0.3,0.8,0.6,1.1,0.9h-0.1c0.5,1.7,1,3.5,3.5,3.1c0.5,0.2,1,0.3,1.6,0.5c1.9,1.9,1.8,4,0.5,6.2
		c-0.2-0.1-0.3,0-0.4,0.2c-0.4,0.2-0.8,0.4-1.2,0.7H251l-0.2,0.2c-0.7-0.1-1.4,0-1.8,0.7h-0.4l-0.3,0.2
		C247.2,127.6,246,127.6,244.9,128.3z"/>
	<path class="st0" d="M197.6,344.5c1.3-1.3,2.5-2.8,4.6-2.3c0.3,0.2,0.6,0.4,0.9,0.6c0.3,0.3,0.6,0.6,0.9,0.9l0,0
		c0.3,0.3,0.5,0.6,0.8,0.9h-0.1c0,1.2,0.8,1.6,1.8,1.9c2.1,0.6,4.3,1.4,4,4c-0.2,2.6-2.5,3.4-4.7,4c-0.6,0.2-1.3,0.4-1.9,0.6
		c-0.5,0.1-1.1,0.2-1.6,0.3c-1.6-0.1-3.3-0.1-4.9-0.2l0.1,0.1c-0.1-3-0.2-6.1-0.3-9.1C197.3,345.6,197.5,345,197.6,344.5z"/>
	<path class="st0" d="M193.1,305.9c-1.6,0.4-3.1,1.1-4.3,2.4c-5.9,2.7-11.7,5.5-18.4,8.6c3.7-8.2,2.2-15-3.2-21
		c-2.3-5-5.5-9.7-6.4-15.3c-0.7-4.6,0.2-8.9,2.7-12.7c4.5-6.8,11-7.9,17.6-3.2c0.2,0.2,0.5,0.3,0.7,0.5c4.6,5,8.9,8.6,16.7,4.4
		c4.6-2.5,10.2,0.3,13.5,5c3.4,4.8,3.2,10,0.6,15c-3.2,6.4-9,10.1-14.8,13.7C196.2,304.1,194.6,305,193.1,305.9z"/>
	<path class="st0" d="M368.6,195.3c-5.6,3.3-11.1,6.9-17,9.7c-5.8,2.7-11.5,5.7-17.4,8.6c-0.1-0.5-0.4-0.9-0.3-1.1
		c2.8-7.4,0.5-13.7-4-19.8c-4.9-6.8-8.1-14.3-5.6-23.1c2.8-10.2,12.8-14,20.6-6.9c5.2,4.7,9,7.8,16.4,3.9c4.4-2.3,9.5,0.4,12.9,4.6
		c3.6,4.3,3.7,9.1,1.8,14.2C374.5,189.3,371.3,192,368.6,195.3C368.7,195.2,368.6,195.3,368.6,195.3z"/>
	<path class="st0" d="M314.9,144.1c5.1-5.3,4.8-10.8,3.3-16.8c-1.4-5.4-2.2-10.9,0.3-16.4c2.1-4.6,5.2-8.1,10.5-8.3
		c5-0.2,8.4,2.8,10.1,7.3c1.6,4.3,3.7,6.8,9.1,6c4.5-0.7,8.7,2.7,10.2,7.1c1.6,4.7,0,8.8-3.3,12.2c-1.8,1.9-4.2,3.3-6.6,4.3
		C343.4,141.6,321.5,144.7,314.9,144.1z"/>
	<path class="st0" d="M283.6,327.6c0-0.7-0.3-1.3-0.9-1.6c-1.4-6.4,1-9.1,6.7-7.5c1.5,1.8,3.2,1.8,5.2,0.7c2.1-1.2,4.4-1.2,6,0.9
		c1.8,2.3,1.6,4.8-0.1,6.9c-2.6,3.3-5.7,6.1-9.1,8.6c-1,0.8-2.2,1.6-2.8-0.5C287.9,332,285.5,329.9,283.6,327.6z"/>
	<path class="st0" d="M478.6,236.4c-0.2-0.3-0.5-0.6-0.7-0.9c-2.9-10.1,0.3-14.9,11.8-16.4c3-0.4,4-1.6,4.5-4.3
		c1.3-6.6,5.2-10.1,10.8-10.3c5.5-0.1,10.2,3.7,11.9,9.8c1.9,6.7,1,13.5,0,20.3c-0.8,5.6-1.8,11.1-3,18.1c-4.5-7.9-11.2-7.9-18-8.1
		c-4.4-0.1-8.4-1.7-12.4-3.3C481.9,239.7,480.3,238,478.6,236.4z"/>
	<path class="st0" d="M77.7,157.5c-4.8-1.9-8.7-0.3-12.6,1.2c-2.1,0.8-4.3,0.9-6.5,0.1c-2.4-0.8-4.4-2.1-5-4.5
		c-0.7-2.6,0.9-4.6,2.9-6c2.2-1.5,3.2-3.1,2.7-5.9c-0.5-2.9,0.7-5.4,3.6-6.3c3.1-1,5.7,0,7.7,2.6C74.4,144.2,75.6,150.6,77.7,157.5z
		"/>
	<path class="st0" d="M387.3,334.1c0-1.7,0-2.8,0-3.9c0.1-2,1.4-3.3,3.1-4.1c1.8-0.8,2.9,0.7,3.6,2c0.9,1.5,2.1,2,3.7,2.3
		c1.5,0.3,2.5,1.3,2.8,2.8c0.3,1.7-0.7,2.9-2,3.8c-2.9,1.9-6.4,2.4-9.5,2.1C385.4,338.7,388.4,335.3,387.3,334.1z"/>
	<path class="st0" d="M96.1,332.7c-0.3-0.3-0.5-0.6-0.8-0.9c1.8-1.9,4.8-0.5,6.7-2.4c3.3-0.9,4.5-3.9,6.3-6.3c1-1.2,2-2.4,3-3.6
		c2.6-1.6,4.9-3.5,7.9-4.5c4.1-1.3,7.6-0.8,10.7,2.2c3.1,3,2.7,6.4,1.4,10c-0.5,1.4-1.1,2.8-1.8,4.2c-0.9,1.6-0.9,2.9,0.9,3.8
		c4.2,5.1,4.8,9.5,1.8,13.6c-2.8,3.8-7.9,4.6-13.7,2.5c-5.3-1.9-8.7-6.4-13.1-9.5c-0.9-1.4-2.1-2.4-3.4-3.3
		C100.4,336.1,98.2,334.5,96.1,332.7z"/>
</g>
<g>
	<path class="st1" d="M694.4,204.9c0.6,0.8,0.9,1.8,0.9,3c0,3.1-2.5,5.8-5.7,5.8c-2,0-3.8-1.1-4.9-2.7l-11.4-16.6h-7.5v12.8
		c0,3.6-2.9,6.6-6.6,6.6c-3.6,0-6.6-3-6.6-6.6V165c0-4.3,2.5-6.7,6.7-6.7h15.9c12.6,0,20.7,6.7,20.7,17.9c0,7.8-3.8,13.5-10.4,16.2
		L694.4,204.9z M665.7,169.4V183h8.4c6.3,0,8.7-2.2,8.7-6.8s-2.4-6.7-8.8-6.7L665.7,169.4L665.7,169.4z"/>
	<path class="st1" d="M700.4,193c0-11.4,8.1-21,20.3-21c12.3,0,20.1,8.1,20.2,18.8c0,3.2-1.9,5.1-5.3,5.1h-22.7
		c0.3,4.6,4.9,7.9,11.2,7.9c2.5,0,5.6-0.4,8.8-1.3c2.9-0.8,5.7,1.4,5.7,4.4c0,1.8-1.1,3.5-2.7,4.2c-5.4,2.4-10.5,2.5-12.9,2.5
		C710.2,213.6,700.4,205.5,700.4,193z M728.7,188.1c-0.5-3.8-3.6-6.4-7.8-6.4c-4,0-7.3,2.6-8,6.4H728.7z"/>
	<path class="st1" d="M744.7,192.8c0-12.4,9.2-20.9,21.5-20.9c2.9,0,5.6,0.4,8.2,1.3c2.2,0.6,3.8,2.6,3.8,5.1c0,3.3-3.1,5.9-6.2,5.3
		c-1-0.4-2.4-0.6-3.8-0.6c-6.1,0-11,3.1-11,9.9c0,6.7,4.8,9.9,11,9.9c1.4,0,2.6-0.2,3.8-0.6c3.1-0.9,6.2,1.8,6.2,5.3
		c0,2.4-1.7,4.4-3.8,5c-2.6,1-5.3,1.3-8.2,1.3C753.9,213.7,744.7,205.3,744.7,192.8z"/>
	<path class="st1" d="M781.8,192.7c0-11.4,9.3-20.9,21.7-20.9c12.3,0,21.6,9.6,21.6,20.9c0,12.1-9.7,20.9-21.8,20.9
		C791.4,213.7,781.8,204.6,781.8,192.7z M812.6,192.7c0-5.7-3.8-9.8-9.3-9.8c-5.4,0-9,4.2-9,9.8c0,5.9,3.7,9.9,9.2,9.9
		C808.9,202.6,812.6,198.7,812.6,192.7z"/>
	<path class="st1" d="M830.9,207.4v-29c0-3.5,2.7-6.4,6.2-6.4c3.1,0,5.6,2.4,6.2,5.3v1.6c2.6-4.1,6.8-6.8,12-6.8
		c9.9,0,15.3,6.7,15.3,16.7v18.7c0,3.4-2.8,6.3-6.3,6.3c-3.4,0-6.2-2.9-6.2-6.3v-16.3c0-6-2.8-8.7-7.1-8.7c-4.5,0-7.7,2.9-7.7,8.9
		v16.1c0,3.4-2.7,6.3-6.2,6.3C833.6,213.7,830.9,210.8,830.9,207.4z"/>
	<path class="st1" d="M875.6,192.8c0-12.4,9.2-20.9,21.5-20.9c2.9,0,5.6,0.4,8.2,1.3c2.2,0.6,3.8,2.6,3.8,5.1c0,3.3-3.1,5.9-6.2,5.3
		c-1-0.4-2.4-0.6-3.8-0.6c-6.1,0-11,3.1-11,9.9c0,6.7,4.8,9.9,11,9.9c1.4,0,2.6-0.2,3.8-0.6c3.1-0.9,6.2,1.8,6.2,5.3
		c0,2.4-1.7,4.4-3.8,5c-2.6,1-5.3,1.3-8.2,1.3C884.8,213.7,875.6,205.3,875.6,192.8z"/>
	<path class="st1" d="M913.6,163.1c0-3.6,2.9-6.2,6.9-6.2c4.1,0,6.9,2.7,6.9,6.2s-2.8,6-6.9,6C916.5,169.2,913.6,166.6,913.6,163.1z
		 M914.3,207.4v-29.1c0-3.4,2.8-6.3,6.3-6.3c3.4,0,6.2,2.9,6.2,6.3v29.1c0,3.4-2.8,6.3-6.3,6.3C917.1,213.7,914.3,210.8,914.3,207.4
		z"/>
	<path class="st1" d="M934.1,207.4v-44.1c0-3.4,2.7-6.3,6.2-6.3s6.2,2.9,6.2,6.3v44.1c0,3.4-2.7,6.3-6.2,6.3
		S934.1,210.8,934.1,207.4z"/>
	<path class="st1" d="M953.1,163.1c0-3.6,2.9-6.2,6.9-6.2c4.1,0,6.9,2.7,6.9,6.2s-2.8,6-6.9,6C956,169.2,953.1,166.6,953.1,163.1z
		 M953.8,207.4v-29.1c0-3.4,2.8-6.3,6.3-6.3c3.4,0,6.2,2.9,6.2,6.3v29.1c0,3.4-2.8,6.3-6.3,6.3C956.6,213.7,953.8,210.8,953.8,207.4
		z"/>
	<path class="st1" d="M971.9,200.9c0-8.1,6.3-12.8,15.1-12.8c4.1,0,7.9,1.1,10.2,2.6v-2.3c0-3.4-2.3-5.5-6.4-6
		c-2.9-0.6-6.6-0.2-10.2,0.6c-2.8,0.7-5.9-1.5-5.9-4.6c0-2.1,1.5-3.9,3.4-4.5c3.8-1.3,8.1-2.1,12.4-2.1c12.7,0,19,5.5,19,16.5v18.3
		c0,3.9-2.5,6.9-6.2,6.9c-2.8,0-5.3-1.8-6.2-4.5v-0.3c-2.6,2.7-6.5,4.7-11.4,4.7C977.9,213.7,971.9,208.9,971.9,200.9z M997.6,200.3
		c0-3.2-3.7-4.6-6.7-4.6c-3.2,0-6.5,1.4-6.5,4.6c0,3.1,3.2,4.6,6.5,4.6C994,204.8,997.6,203.3,997.6,200.3z"/>
	<path class="st1" d="M1036.1,213.4c-5.4,0.7-9.5,0.3-12.3-1.7c-3.2-2.3-4.7-6.3-4.7-12.6v-15.4h-1.2c-2.7,0-4.9-2.5-4.9-5.3
		s2.3-5.3,5-5.3h1.1v-5c0-3.4,2.8-6.3,6.3-6.3c3.4,0,6.2,2.9,6.2,6.3v5h2.5c2.9,0,5.3,2.4,5.3,5.3s-2.4,5.3-5.3,5.3h-2.5v14.1
		c0,2.2,0.5,3.5,1.5,4.2c0.7,0.6,1.7,0.7,2.8,0.6c2.7,0.2,5,2.5,5,5.4C1040.8,210.8,1038.7,213.1,1036.1,213.4z"/>
	<path class="st1" d="M1044.9,163.1c0-3.6,2.9-6.2,6.9-6.2c4.1,0,6.9,2.7,6.9,6.2s-2.8,6-6.9,6
		C1047.8,169.2,1044.9,166.6,1044.9,163.1z M1045.6,207.4v-29.1c0-3.4,2.8-6.3,6.3-6.3c3.4,0,6.2,2.9,6.2,6.3v29.1
		c0,3.4-2.8,6.3-6.3,6.3C1048.4,213.7,1045.6,210.8,1045.6,207.4z"/>
	<path class="st1" d="M1063.9,192.7c0-11.4,9.3-20.9,21.7-20.9c12.3,0,21.6,9.6,21.6,20.9c0,12.1-9.7,20.9-21.8,20.9
		C1073.5,213.7,1063.9,204.6,1063.9,192.7z M1094.7,192.7c0-5.7-3.8-9.8-9.3-9.8c-5.4,0-9,4.2-9,9.8c0,5.9,3.7,9.9,9.2,9.9
		C1091.1,202.6,1094.7,198.7,1094.7,192.7z"/>
	<path class="st1" d="M1113,207.4v-29c0-3.5,2.7-6.4,6.2-6.4c3.1,0,5.6,2.4,6.2,5.3v1.6c2.6-4.1,6.8-6.8,12-6.8
		c9.9,0,15.3,6.7,15.3,16.7v18.7c0,3.4-2.8,6.3-6.3,6.3c-3.4,0-6.2-2.9-6.2-6.3v-16.3c0-6-2.8-8.7-7.1-8.7c-4.5,0-7.7,2.9-7.7,8.9
		v16.1c0,3.4-2.7,6.3-6.2,6.3C1115.7,213.7,1113,210.8,1113,207.4z"/>
	<path class="st1" d="M652.8,310c0.6,0.8,0.9,1.8,0.9,3c0,3.1-2.5,5.8-5.7,5.8c-2,0-3.8-1.1-4.9-2.7l-11.4-16.6h-7.5v12.8
		c0,3.6-2.9,6.6-6.6,6.6c-3.6,0-6.6-3-6.6-6.6V270c0-4.3,2.5-6.7,6.7-6.7h15.9c12.6,0,20.7,6.7,20.7,17.9c0,7.8-3.8,13.5-10.4,16.2
		L652.8,310z M624.2,274.5v13.6h8.4c6.3,0,8.7-2.2,8.7-6.8c0-4.6-2.4-6.7-8.8-6.7L624.2,274.5L624.2,274.5z"/>
	<path class="st1" d="M659.2,297.8c0-11.4,9.3-20.9,21.7-20.9c12.3,0,21.6,9.5,21.6,20.9c0,12.1-9.7,20.9-21.8,20.9
		C668.7,318.8,659.2,309.7,659.2,297.8z M690,297.8c0-5.7-3.8-9.8-9.3-9.8c-5.4,0-9,4.2-9,9.8c0,5.9,3.7,9.9,9.2,9.9
		C686.3,307.7,690,303.8,690,297.8z"/>
	<path class="st1" d="M706.6,306c0-8.1,6.3-12.8,15.1-12.8c4.1,0,7.9,1,10.2,2.6v-2.3c0-3.4-2.3-5.5-6.4-6
		c-2.9-0.6-6.6-0.2-10.2,0.6c-2.8,0.7-5.9-1.5-5.9-4.5c0-2.1,1.5-3.9,3.4-4.5c3.8-1.3,8.1-2.1,12.4-2.1c12.7,0,19,5.5,19,16.5v18.3
		c0,3.9-2.5,6.9-6.2,6.9c-2.8,0-5.3-1.8-6.2-4.5V314c-2.6,2.7-6.5,4.7-11.4,4.7C712.6,318.8,706.6,314,706.6,306z M732.3,305.4
		c0-3.2-3.7-4.6-6.7-4.6c-3.2,0-6.5,1.4-6.5,4.5s3.2,4.6,6.5,4.6C728.7,309.9,732.3,308.4,732.3,305.4z"/>
	<path class="st1" d="M780.1,314v-1.3c-3,3.5-7.5,6-13.2,6c-10.1,0-18.2-8.7-18.2-21.2c0-12.9,8.7-20.7,18.2-20.7
		c5.7,0,10.1,2.5,13.2,6.3v-14.9c0-3.4,2.7-6.3,6.2-6.3s6.2,2.9,6.2,6.3v44.1c0,3.4-2.7,6.3-6.2,6.3
		C783.5,318.8,780.9,316.9,780.1,314z M780.1,302.3v-9.5c-1.7-3.7-5.3-5.9-9-5.9c-6.1,0-9.9,4.5-9.9,10.7s3.7,10.7,9.9,10.7
		C774.9,308.3,778.4,306.3,780.1,302.3z"/>
	<path class="st1" d="M815.4,290.3c0-16.4,11.8-28.3,29.2-28.3c3.7,0,8.1,0.8,12.2,2.5c1.9,0.8,3.4,2.6,3.4,4.9c0,3-2.5,5.4-5.4,5.4
		c-0.6,0-1.1-0.1-1.7-0.4c-2.8-1-5.6-1.5-7.9-1.5c-9.7,0-16.6,6.7-16.6,17.3s6.9,17.3,16.6,17.3c2.3,0,5.1-0.4,7.9-1.5
		c0.5-0.3,1-0.2,1.7-0.2c3,0,5.3,2.4,5.3,5.3c0,2.2-1.4,4.1-3.3,4.9c-4,1.8-8.5,2.5-12.2,2.5C827.1,318.8,815.4,306.8,815.4,290.3z"
		/>
	<path class="st1" d="M865.8,312.5v-44.1c0-3.4,2.7-6.3,6.2-6.3s6.2,2.9,6.2,6.3v15.5c2.6-4,6.8-6.8,12.1-6.8
		c9.8,0,15.3,6.7,15.3,16.8v18.7c0,3.4-2.8,6.3-6.3,6.3c-3.4,0-6.2-2.9-6.2-6.3v-14.5c0-6-2.9-9.4-7.2-9.4c-4.5,0-7.7,3.6-7.7,9.5
		v14.4c0,3.4-2.7,6.3-6.2,6.3C868.5,318.8,865.8,315.9,865.8,312.5z"/>
	<path class="st1" d="M910.8,306c0-8.1,6.3-12.8,15.1-12.8c4.1,0,7.9,1,10.2,2.6v-2.3c0-3.4-2.3-5.5-6.4-6
		c-2.9-0.6-6.6-0.2-10.2,0.6c-2.8,0.7-5.9-1.5-5.9-4.5c0-2.1,1.5-3.9,3.4-4.5c3.8-1.3,8.1-2.1,12.4-2.1c12.7,0,19,5.5,19,16.5v18.3
		c0,3.9-2.5,6.9-6.2,6.9c-2.8,0-5.3-1.8-6.2-4.5V314c-2.6,2.7-6.5,4.7-11.4,4.7C916.9,318.8,910.8,314,910.8,306z M936.6,305.4
		c0-3.2-3.7-4.6-6.7-4.6c-3.2,0-6.5,1.4-6.5,4.5s3.2,4.6,6.5,4.6C933,309.9,936.6,308.4,936.6,305.4z"/>
	<path class="st1" d="M955,312.5v-44.1c0-3.4,2.7-6.3,6.2-6.3s6.2,2.9,6.2,6.3v44.1c0,3.4-2.7,6.3-6.2,6.3S955,315.9,955,312.5z"/>
	<path class="st1" d="M974.6,312.5v-44.1c0-3.4,2.7-6.3,6.2-6.3s6.2,2.9,6.2,6.3v44.1c0,3.4-2.7,6.3-6.2,6.3
		S974.6,315.9,974.6,312.5z"/>
	<path class="st1" d="M992.3,298.1c0-11.4,8.1-21,20.3-21c12.3,0,20.1,8.1,20.2,18.8c0,3.2-1.9,5.1-5.3,5.1h-22.6
		c0.3,4.6,4.9,7.9,11.2,7.9c2.5,0,5.6-0.4,8.8-1.3c2.9-0.8,5.7,1.4,5.7,4.4c0,1.8-1.1,3.5-2.7,4.2c-5.4,2.4-10.5,2.5-12.9,2.5
		C1002.1,318.7,992.3,310.6,992.3,298.1z M1020.7,293.2c-0.5-3.8-3.6-6.4-7.8-6.4c-4,0-7.3,2.6-8,6.4H1020.7z"/>
	<path class="st1" d="M1038.3,312.5v-29c0-3.5,2.7-6.4,6.2-6.4c3.1,0,5.6,2.4,6.2,5.3v1.6c2.6-4.1,6.8-6.8,12-6.8
		c9.9,0,15.3,6.7,15.3,16.7v18.7c0,3.4-2.8,6.3-6.3,6.3c-3.4,0-6.2-2.9-6.2-6.3v-16.3c0-6-2.8-8.7-7.1-8.7c-4.5,0-7.7,2.9-7.7,8.9
		v16.1c0,3.4-2.7,6.3-6.2,6.3C1041,318.8,1038.3,315.9,1038.3,312.5z"/>
	<path class="st1" d="M1089.5,329.2c-1.9-0.7-3.3-2.5-3.3-4.6c0-3.6,3.6-6,6.7-4.7c2.9,1.2,6,1.9,9,1.9c7.2,0,11.3-3,11.3-9.1v-2
		c-2.9,3-7,5.3-12.7,5.3c-9.6,0-17.5-8.1-17.5-19.7c0-11.9,8.4-19.1,17.6-19.1c5.6,0,9.6,1.9,12.6,5.3l0.2-0.7
		c0.9-2.5,3.4-4.2,6.1-4.2c3.4,0,6.2,2.9,6.2,6.3V309c0,15.1-6.2,23-21.6,23C1099.5,331.9,1094.2,331,1089.5,329.2z M1113.2,300.6
		V292c-1.6-3.5-4.9-5.4-8.5-5.4c-5.6,0-9.3,3.9-9.3,9.5c0,5.9,3.7,10.1,9.3,10.1C1108.3,306.3,1111.6,304.2,1113.2,300.6z"/>
	<path class="st1" d="M1131.1,298.1c0-11.4,8.1-21,20.3-21c12.3,0,20.1,8.1,20.2,18.8c0,3.2-1.9,5.1-5.3,5.1h-22.7
		c0.3,4.6,4.9,7.9,11.2,7.9c2.4,0,5.6-0.4,8.8-1.3c2.9-0.8,5.7,1.4,5.7,4.4c0,1.8-1.1,3.5-2.7,4.2c-5.4,2.4-10.5,2.5-12.9,2.5
		C1140.9,318.7,1131.1,310.6,1131.1,298.1z M1159.5,293.2c-0.5-3.8-3.6-6.4-7.8-6.4c-4,0-7.3,2.6-8,6.4H1159.5z"/>
</g>
<line class="st2" x1="1240.9" y1="110.2" x2="1240.9" y2="468.9"/>
<g>
	<g>
		<path d="M438.4,386.5c0.1-13.4,10.4-23.8,23.6-23.8c4.2,0,8.2,1.1,11.8,2.9c0.9,0.4,1.5,1.4,1.5,2.5c0,1.5-1.3,2.8-2.8,2.8
			c-0.4,0-0.9-0.1-1.3-0.3c-2.6-1.3-5.5-2.1-9.1-2.1c-10,0-17.2,7.6-17.3,18c0.1,10.6,7.2,18,17.3,18c3.6,0,6.5-0.6,9.1-1.9
			c0.3-0.2,0.9-0.3,1.3-0.3c1.5,0,2.8,1.3,2.8,2.8c0,1.1-0.6,1.9-1.5,2.5c-3.6,1.8-7.6,2.9-11.8,2.9
			C448.7,410.6,438.4,400.2,438.4,386.5z"/>
		<path d="M480.5,393c0-9.8,7.8-17.6,17.6-17.6c9.8,0,17.6,7.8,17.6,17.6c0,9.9-7.8,17.6-17.7,17.6C488.3,410.6,480.5,403,480.5,393
			z M509.8,393c0-7-4.9-12-11.8-12s-11.6,4.9-11.6,12c0,7.1,4.8,12,11.7,12C505.2,405,509.8,400.3,509.8,393z"/>
		<path d="M522.4,407.6v-29c0-1.6,1.3-3,2.9-3c1.7,0,3,1.4,3,3v2.6c2.2-2.9,5.1-5.6,10.4-5.6c5.3,0,9.2,2.8,11.1,6.3
			c2.8-4.2,6.7-6.3,11.6-6.3c7.8,0,13,5.3,13,13.5v18.6c0,1.6-1.3,3-3,3c-1.6,0-2.9-1.4-2.9-3v-16.7c0-6.2-2.9-9.7-8.2-9.7
			c-5.2,0-8.7,4.1-8.7,9.9v16.5c0,1.6-1.3,3-3,3c-1.6,0-2.9-1.4-2.9-3v-16.8c0-5.9-3.1-9.6-8.3-9.6c-5.2,0-8.9,4.3-8.9,10.2v16.3
			c0,1.6-1.3,3-2.9,3C523.7,410.6,522.4,409.2,522.4,407.6z"/>
		<path d="M582.8,407.6v-29c0-1.6,1.3-3,2.9-3c1.7,0,3,1.4,3,3v2.6c2.2-2.9,5.1-5.6,10.4-5.6c5.3,0,9.2,2.8,11.1,6.3
			c2.8-4.2,6.7-6.3,11.6-6.3c7.8,0,13,5.3,13,13.5v18.6c0,1.6-1.3,3-3,3c-1.6,0-2.9-1.4-2.9-3v-16.7c0-6.2-2.9-9.7-8.2-9.7
			c-5.2,0-8.7,4.1-8.7,9.9v16.5c0,1.6-1.3,3-3,3c-1.6,0-2.9-1.4-2.9-3v-16.8c0-5.9-3.1-9.6-8.3-9.6s-8.9,4.3-8.9,10.2v16.3
			c0,1.6-1.3,3-2.9,3C584.2,410.6,582.8,409.2,582.8,407.6z"/>
		<path d="M643.5,397.2v-18.7c0-1.6,1.3-3,3-3c1.6,0,2.9,1.4,2.9,3v16.8c0,6,3.2,9.7,8.7,9.7c5.7,0,9.6-4.1,9.6-10v-16.4
			c0-1.6,1.3-3,3-3c1.6,0,2.9,1.4,2.9,3v29c0,1.6-1.3,3-2.9,3c-1.7,0-3-1.4-3-3V405c-2.7,3.8-6.3,5.7-11,5.7
			C648.9,410.6,643.5,405.1,643.5,397.2z"/>
		<path d="M682.4,407.6v-29c0-1.6,1.3-3,2.9-3c1.7,0,3,1.4,3,3v2.7c2.7-3.8,6.3-5.7,11-5.7c8,0,13.4,5.5,13.4,13.4v18.7
			c0,1.6-1.3,3-3,3c-1.6,0-2.9-1.4-2.9-3v-16.8c0-6-3.2-9.7-8.7-9.7c-5.7,0-9.6,4.1-9.6,10v16.4c0,1.6-1.3,3-3,3
			C683.7,410.6,682.4,409.2,682.4,407.6z"/>
		<path d="M720.7,407.6v-29c0-1.6,1.3-3,3-3c1.6,0,2.9,1.4,2.9,3v29c0,1.6-1.3,3-3,3C722,410.6,720.7,409.2,720.7,407.6z"/>
		<path d="M748.4,410.1c-3.6,0.9-6.5,0.5-8.4-0.8c-2.2-1.7-3.2-4.5-3.2-8.6v-18.6h-1.9c-1.5,0-2.8-1.3-2.8-2.8s1.3-2.8,2.8-2.8h1.9
			V371c0-1.6,1.3-3,3-3c1.6,0,2.9,1.4,2.9,3v5.5h3c1.5,0,2.8,1.3,2.8,2.8s-1.3,2.8-2.8,2.8h-3v18.3c0,1.9,0.3,3.2,1.1,3.8
			c0.9,0.8,2.1,0.9,3.6,0.5c1.6-0.3,3.1,1.1,3.1,2.7C750.4,408.7,749.5,409.9,748.4,410.1z"/>
		<path d="M760.9,418.7c0-0.2,0-0.6,0.1-1.1l3.9-10.6l-10.6-27.5c-0.1-0.3-0.2-0.6-0.2-1.1c0-1.6,1.4-2.9,3-2.9
			c1.3,0,2.3,0.9,2.7,1.9l8.3,22.2l8.3-22.2c0.4-1.1,1.5-1.9,2.7-1.9c1.6,0,2.9,1.3,2.9,2.9c0,0.4,0,0.9-0.1,1.1l-15.4,40.2
			c-0.4,1.1-1.5,1.9-2.8,1.9C762.2,421.7,760.9,420.3,760.9,418.7z"/>
		<path d="M802,393c0-9.8,7.8-17.6,17.6-17.6s17.6,7.8,17.6,17.6c0,9.9-7.8,17.6-17.7,17.6C809.8,410.6,802,403,802,393z M831.3,393
			c0-7-4.9-12-11.8-12s-11.6,4.9-11.6,12c0,7.1,4.8,12,11.7,12C826.7,405,831.3,400.3,831.3,393z"/>
		<path d="M844.5,407.6v-25.5h-2.4c-1.5,0-2.8-1.3-2.8-2.8s1.3-2.8,2.8-2.8h2.4v-3.1c0-3.8,0.9-6.6,2.6-8.3c1.5-1.5,3.7-2.3,6.4-2.3
			c2.2,0,3.5,0.6,3.5,2.9c0,1.7-1.5,2.8-3.3,2.8c-1.1,0-1.7,0.2-2.3,0.9c-0.5,0.6-0.9,1.9-0.9,3.8v3.3h3.7c1.5,0,2.8,1.3,2.8,2.8
			s-1.3,2.8-2.8,2.8h-3.7v25.5c0,1.6-1.3,3-2.9,3C845.8,410.6,844.5,409.2,844.5,407.6z"/>
		<path d="M879.7,409.5c-1.9,0-3-1.1-3-3v-39.7c0-1.9,1.1-3,3-3H895c9.2,0,15.1,5,15.1,13c0,4.3-3.6,8.2-5.9,9.5
			c3.6,1.3,7.5,5.6,7.5,10.4c0,8-5.9,13-15.2,13L879.7,409.5L879.7,409.5z M883.1,383.7H895c5.6,0,8.6-2.5,8.6-7
			c0-4.4-3.1-7.1-8.6-7.1h-11.9V383.7z M883.1,403.7h13.4c5.5,0,8.5-2.7,8.5-7.1s-3.1-6.9-8.5-6.9h-13.4V403.7z"/>
		<path d="M918.1,407.6v-29c0-1.6,1.3-3,3-3c1.6,0,2.9,1.4,2.9,3v29c0,1.6-1.3,3-3,3C919.4,410.6,918.1,409.2,918.1,407.6z"/>
		<path d="M934.6,418.8c-0.9-0.4-1.5-1.3-1.5-2.4c0-1.9,1.9-3.3,3.8-2.5c3.1,1.5,6,2.1,9.1,2.1c6.7,0,10.3-2.9,10.3-10.2v-1.5
			c-2.9,2.9-6.4,4.3-10.4,4.3c-8.9,0-15.7-7.3-15.7-16.7c0-10.4,8-16.4,15.7-16.4c3.9,0,7.3,1.5,10.4,4.5v-0.9c0-1.6,1.3-3,3-3
			c1.6,0,2.9,1.4,2.9,3v26.5c0,10.4-5.8,16-16.2,16C942,421.7,938.1,420.5,934.6,418.8z M956.2,396.7v-9.2c-1.8-3.8-5.6-6.4-9.5-6.4
			c-6.2,0-10.6,4.3-10.6,10.8c0,6.7,4.3,11.1,10.6,11.1C950.7,403.1,954.4,400.5,956.2,396.7z"/>
		<path d="M986.6,407.4V366c0-1.7,1.5-3.2,3.2-3.2c1.7,0,3.2,1.5,3.2,3.2v16.7h23.6V366c0-1.7,1.5-3.2,3.2-3.2s3.2,1.5,3.2,3.2v41.4
			c0,1.7-1.5,3.2-3.2,3.2s-3.2-1.5-3.2-3.2v-18.8h-23.6v18.8c0,1.7-1.5,3.2-3.2,3.2C988.1,410.6,986.6,409.1,986.6,407.4z"/>
		<path d="M1030.4,393.3c0-8.9,5.9-17.8,16.4-17.8c9.6,0,15.4,7.5,15.8,15c0,2.3-0.5,3.7-2.9,3.7h-23.2c0.3,6.8,5,10.8,12.2,10.8
			c2.9,0,5.5-0.5,8-1.5c1.7-0.6,3.6,0.5,3.6,2.4c0,1-0.5,1.8-1.3,2.3c-3,1.7-6.5,2.5-10.4,2.5
			C1038.3,410.6,1030.4,403.2,1030.4,393.3z M1056.7,389.5c-0.3-4.8-4.5-8.3-9.9-8.3c-5.2,0-9.5,3.6-10,8.3H1056.7z"/>
		<path d="M1067.4,399.5c0-6.3,5.8-10.8,13.8-10.8c4.2,0,7.8,1.3,9.9,3.6v-3.8c0-4.5-3.2-7.2-9.2-7.2c-2.6,0-5,0.5-7.2,1.5
			c-1.5,0.5-3.7-0.5-3.7-2.5c0-1.1,0.6-2.1,1.7-2.5c2.8-1.2,6.4-2.2,10.4-2.2c8.5,0,14,4.8,14,12.4v19.7c0,1.7-1.3,3-2.9,3
			s-3-1.2-3-3.3v-0.3c-1.7,1.8-5.6,3.8-9.9,3.8C1073,410.7,1067.4,406.1,1067.4,399.5z M1091.2,399.5c0-4-4.9-5.8-9.3-5.8
			c-4.4,0-8.6,1.8-8.6,5.8c0,4.1,4.2,5.8,8.6,5.8C1086.5,405.3,1091.2,403.5,1091.2,399.5z"/>
		<path d="M1105.4,407.6v-29c0-1.6,1.3-3,2.9-3c1.7,0,3,1.4,3,3v1.5c1.5-1.9,4-3.2,6.8-3.7c1.6-0.2,3.1,1.1,3.1,2.7
			c0,1.5-1.3,2.5-2.8,2.7c-3.1,0.5-7.1,1.9-7.1,5.5v20.4c0,1.6-1.3,3-2.9,3C1106.8,410.6,1105.4,409.2,1105.4,407.6z"/>
		<path d="M1141,410.1c-3.6,0.9-6.5,0.5-8.4-0.8c-2.3-1.7-3.2-4.5-3.2-8.6v-18.6h-1.9c-1.5,0-2.8-1.3-2.8-2.8s1.3-2.8,2.8-2.8h1.9
			V371c0-1.6,1.3-3,3-3c1.6,0,2.9,1.4,2.9,3v5.5h3c1.5,0,2.8,1.3,2.8,2.8s-1.3,2.8-2.8,2.8h-3v18.3c0,1.9,0.3,3.2,1.1,3.8
			c0.9,0.8,2.1,0.9,3.6,0.5c1.6-0.3,3.1,1.1,3.1,2.7C1143.1,408.7,1142.2,409.9,1141,410.1z"/>
		<path d="M1147.8,407.4c-0.8-0.5-1.3-1.3-1.3-2.3c0-2.3,2.7-3.2,4-2.4c3.9,2.2,5.8,2.3,8.3,2.3c4.2,0,6.7-1.7,6.7-4.4
			c0-1.7-1.3-3.1-4.1-4.1l-6.2-2.1c-5.8-1.9-8.4-4.9-8.4-9.4c0-5.6,5-9.5,12-9.5c3.6,0,7.5,1.3,10.4,3.1c0.9,0.5,1.3,1.3,1.3,2.3
			c0,1.9-2.1,3.3-4,2.4c-3.8-1.9-5.4-2.2-7.6-2.2c-3.8,0-6,1.5-6,3.9c0,1.6,1.1,2.5,5,3.9l6.2,2.2c4.9,1.7,7.6,5,7.6,9.5
			c0,5.8-5.3,10-12.7,10C1154.8,410.6,1150.7,409.3,1147.8,407.4z"/>
	</g>
	<g>
		<path class="st0" d="M726,370.7L726,370.7c-0.1-0.7-0.6-1.2-0.6-1.8c0,0,0-0.1-0.1-0.2c-0.2-0.9,0-1.6,0.4-2.3l0,0c0,0,0,0,0-0.1
			l0,0c0,0,0,0,0-0.1l0,0c0,0,0,0,0-0.1l0,0c0.2-0.6,0.6-0.9,0.9-1.3l0,0l0-0.1l0,0l0-0.1l0,0l0-0.1c0,0,0,0,0-0.1l0-0.1l0,0
			c0.3-0.4,0.5-1,0.7-1.4l0,0l0-0.1l0,0l0-0.1l0,0l0-0.1l0,0c0-0.1,0.1-0.4,0.2-0.6c0.4-1.3,0.5-2.8,0-4.2c-0.8-2-2.8-3-4.7-2.1
			c-1.1,0.5-1.8,1.2-2.6,2.1c-0.3,0.4-0.6,0.5-1,0.2l0,0l-0.1,0l0,0c-0.1,0-0.4-0.1-0.5-0.3c0,0,0,0-0.1,0l-0.1,0l0,0
			c-0.7-0.4-1.5-0.4-2.3-0.4c0,0-0.1,0-0.2,0.1c-1.1,0.3-1.9,0.9-2.5,1.8l0,0c0,0.1-0.1,0.4-0.3,0.5l0,0c-0.4,1.3-0.2,2.7,0.6,3.9
			c0.4,0.8,1.1,1.3,1.5,1.9c0.1,0,0.1,0,0.1,0.2c0.3,0.1,0.5,0.3,0.7,0.5l0.1,0c0.1,0,0.1,0,0.3,0.2l0,0c0.5,0.3,1.1,0.7,1.6,1
			c1.2,0.7,2.5,1.3,3.8,2c1,0.5,1.8,1,2.7,1.6l0,0l0.1,0l0,0C726,370.7,726,370.7,726,370.7z"/>
		<path class="st0" d="M917.7,371.9L917.7,371.9c0.3-0.7,1-1,1.2-1.7c0,0,0-0.2,0.2-0.2c0.5-0.9,0.5-1.7,0.3-2.6l0,0c0,0,0,0,0-0.2
			l0,0c0,0,0,0,0-0.2l0,0c0,0,0,0,0-0.2l0,0c0-0.7-0.3-1.2-0.5-1.7l0,0v-0.2l0,0v-0.2l0,0v-0.2c0,0,0,0,0-0.2v-0.2l0,0
			c-0.2-0.5-0.2-1.2-0.3-1.7l0,0v-0.2l0,0v-0.2l0,0V362l0,0c0-0.2,0-0.5,0-0.7c0-1.6,0.3-3.1,1.4-4.3c1.6-1.9,4-2.3,5.7-0.7
			c1,0.9,1.6,1.9,2.1,3.1c0.2,0.5,0.5,0.7,1,0.5l0,0h0.2l0,0c0.2,0,0.5,0,0.7-0.2c0,0,0,0,0.2,0h0.2l0,0c0.9-0.2,1.7,0,2.6,0.3
			c0,0,0.2,0,0.2,0.2c1,0.7,1.7,1.6,2.1,2.8l0,0c0,0.2,0,0.5,0.2,0.7l0,0c0,1.6-0.7,2.9-1.9,4c-0.7,0.7-1.6,1-2.3,1.6
			c-0.2,0-0.2,0-0.2,0.2c-0.3,0-0.7,0.2-0.9,0.3h-0.2c-0.2,0-0.2,0-0.3,0.2l0,0c-0.7,0.2-1.4,0.3-2.1,0.5c-1.6,0.3-3.1,0.5-4.7,0.9
			c-1.2,0.2-2.3,0.5-3.5,0.9l0,0h-0.2l0,0C917.9,371.9,917.9,371.9,917.7,371.9z"/>
	</g>
</g>
<g>
	<g>
		<path class="st3" d="M1561,403.3c-74.9,0-149.7,0-224.6,0c-0.2,0-0.3,0-0.4-0.1c0-74.8,0-149.7,0-224.5c0-0.1,0-0.3,0.1-0.4
			c74.8,0,149.7,0,224.5,0c0.2,0,0.3,0,0.4,0.1C1561,253.3,1561,328.3,1561,403.3z M1524.1,264.4c0-15.6-0.2-29.6,0.1-43.6
			c0.1-4.5-1.3-5.6-5.7-5.6c-46.8,0.1-93.6,0.1-140.4,0c-4,0-5.1,1.1-5.1,5.1c0.1,46.8,0.1,93.6,0,140.4c0,4.4,1.2,5.7,5.6,5.7
			c30.7-0.2,61.3-0.1,92-0.1c1.4,0,2.8-0.3,4.9-0.5c-5-8.2-3.8-15.1,3.3-20.8c-9.3-5.2-12.8-15.1-1-26.1c-1-4.4-2.6-8.6-2.7-12.8
			c-0.2-12.6,9.1-21.3,22.4-21.7c7.5-0.2,15-0.2,22.5,0c3.4,0.1,5-1.4,4-4.4c-0.9-2.8-2.4-5.8-4.4-8c-32-33.2-85.6-32.7-117.7,1.3
			c-4.2,4.5-8.3,3.9-13.7,3.3c13.1-17.9,29.7-29.5,50.5-34.6C1470.3,234.5,1498.4,242.2,1524.1,264.4z M1523.6,347.6
			c0.3-2.6,0.5-4,0.5-5.3c0-14.1,0-28.3-0.1-42.4c0-7.5-1.2-8.2-8.1-6.2c0.9,5.2,3.1,10.5,2.4,15.4c-2,14.7-15.6,22-30.4,17.1
			c-2.5-0.8-5.1-1.9-6.6,1c-1,2-2,5-1.3,6.7c0.8,1.7,3.7,3.2,5.8,3.4c4.9,0.5,10,0.3,15,0.1C1509.7,337,1517.7,338.5,1523.6,347.6z
			 M1496.8,319.4c7.9,0,12.7-5,12.7-13.3c0-7.9-4.9-13.2-12.3-13.3c-7.8-0.1-13.2,5.2-13.3,13
			C1483.8,314.2,1488.7,319.4,1496.8,319.4z M1498.6,346.1c-2.7,0-5.7-0.8-7.9,0.2c-3.2,1.5-6.4,3.9-8.2,6.9c-2,3.1,0.2,6.3,3,8.6
			c6.4,5.2,20.5,4.5,25.6-2.1c1.7-2.2,2.7-6.4,1.7-8.9c-0.8-2.2-4.6-3.6-7.3-4.6C1503.5,345.5,1500.9,346.1,1498.6,346.1z"/>
		<path class="st3" d="M1445.3,348.8c0-2.2,0-4.1,0-6.1c10.2-1.4,10.9-2.3,10.9-12.6c0-16.6,0-33.3,0-49.9c0-1.5,0-2.9,0-4.6
			c3.2,0,6,0,9.4,0c0,1.9,0,3.7,0,5.5c0,16.8,0,33.6-0.1,50.4C1465.6,345,1459.3,350.4,1445.3,348.8z"/>
	</g>
</g>
</svg>
